<svg width="24" height="24" viewBox="0 0 24 24" fill="none" xmlns="http://www.w3.org/2000/svg">
<path d="M15 20.8366C14.7864 20.9421 14.5488 21 14.2984 21H2.6662C1.74682 21 1 20.2173 1 19.2505C1 17.2485 1.77369 15.4366 3.02263 14.1238C4.27157 12.8109 5.99859 12 7.90523 12H9.05941C9.7553 12 10.4286 12.1084 11.0622 12.3089L11.0566 12.3193C10.8586 12.6802 10.8062 13.1005 10.9081 13.503C11.0113 13.9054 11.2574 14.2426 11.6011 14.4505L11.7595 14.547C11.7412 14.7401 11.7313 14.9347 11.7313 15.1292C11.7313 15.3238 11.7412 15.5183 11.7595 15.7114L11.6011 15.8079C11.2574 16.0158 11.0113 16.353 10.9081 16.7554C10.8062 17.1579 10.8586 17.5782 11.0566 17.9391L11.8331 19.35C12.0976 19.8312 12.5912 20.1312 13.1202 20.1312C13.3805 20.1312 13.6365 20.0584 13.8628 19.9218L14.0212 19.8252C14.3225 20.0525 14.645 20.2485 14.983 20.4074V20.6005C14.983 20.6807 14.9887 20.7594 15 20.8366Z" fill="white"/>
<path d="M8 11C10.2091 11 12 9.20914 12 7C12 4.79086 10.2091 3 8 3C5.79086 3 4 4.79086 4 7C4 9.20914 5.79086 11 8 11Z" fill="white"/>
<path d="M21.8311 17.1078L21.0249 16.624C21.1178 16.2647 21.1676 15.8887 21.1676 15.5C21.1676 15.1113 21.1178 14.7339 21.0249 14.376L21.8311 13.8922C21.9926 13.7958 22.0478 13.5819 21.9549 13.4141L21.216 12.0859C21.1232 11.9181 20.9172 11.8608 20.7557 11.9573L19.9495 12.441C19.4381 11.9098 18.7948 11.5155 18.0747 11.3156V10.3495C18.0747 10.1566 17.924 10 17.7382 10H16.2618C16.076 10 15.9253 10.1566 15.9253 10.3495V11.3156C15.2052 11.5141 14.5619 11.9084 14.0505 12.441L13.2443 11.9573C13.0828 11.8608 12.8768 11.9181 12.784 12.0859L12.0451 13.4141C11.9522 13.5819 12.0074 13.7958 12.1689 13.8922L12.9751 14.376C12.8822 14.7353 12.8324 15.1113 12.8324 15.5C12.8324 15.8887 12.8822 16.2661 12.9751 16.624L12.1689 17.1078C12.0074 17.2042 11.9522 17.4181 12.0451 17.5859L12.784 18.9141C12.8768 19.0819 13.0828 19.1392 13.2443 19.0427L14.0505 18.559C14.5619 19.0902 15.2052 19.4845 15.9253 19.6844V20.6505C15.9253 20.8434 16.076 21 16.2618 21H17.7382C17.924 21 18.0747 20.8434 18.0747 20.6505V19.6844C18.7948 19.4859 19.4381 19.0916 19.9495 18.559L20.7557 19.0427C20.9172 19.1392 21.1232 19.0819 21.216 18.9141L21.9549 17.5859C22.0478 17.4181 21.9926 17.2042 21.8311 17.1078ZM16.9993 17.2658C16.0599 17.2658 15.2995 16.4745 15.2995 15.5C15.2995 14.5241 16.0612 13.7342 16.9993 13.7342C17.9374 13.7342 18.6992 14.5255 18.6992 15.5C18.6992 16.4745 17.9388 17.2658 16.9993 17.2658Z" fill="white"/>
</svg>
