<svg width="16" height="16" viewBox="0 0 16 16" fill="none" xmlns="http://www.w3.org/2000/svg">
<path d="M11.5469 3.5875C10.3656 3.75938 9.07812 3.84375 7.6875 3.84375C6.29687 3.84375 5.00938 3.75938 3.82812 3.5875C2.64687 3.41875 1.7125 3.18438 1.02813 2.89062C0.34375 2.59687 0 2.27187 0 1.92188C0 1.57187 0.34375 1.25 1.02813 0.953125C1.7125 0.659375 2.64687 0.425 3.82812 0.25625C5.00938 0.0875 6.29687 0 7.6875 0C9.07812 0 10.3656 0.084375 11.5469 0.25625C12.7281 0.428125 13.6625 0.659375 14.3469 0.953125C15.0312 1.25 15.375 1.57187 15.375 1.92188C15.375 2.27187 15.0312 2.59375 14.3469 2.89062C13.6625 3.18438 12.7281 3.41875 11.5469 3.5875ZM11.5469 7.4C10.3656 7.57188 9.07812 7.6875 7.6875 7.6875C6.29687 7.6875 5.00938 7.57188 3.82812 7.4C2.64687 7.23125 1.7125 7.02812 1.02813 6.73438C0.34375 6.44063 0 6.11562 0 5.76562V3.8125C0 3.73125 0.03125 3.6375 0.090625 3.52813C0.7125 3.9 1.725 4.2 3.13125 4.42812C4.5375 4.65937 6.05625 4.775 7.6875 4.775C9.31875 4.775 10.8375 4.65937 12.2438 4.42812C13.65 4.19688 14.6625 3.89688 15.2844 3.52813C15.3438 3.6375 15.375 3.73438 15.375 3.8125V5.76562C15.375 6.11562 15.0312 6.4375 14.3469 6.73438C13.6625 7.02812 12.7281 7.23125 11.5469 7.4ZM11.5469 11.2437C10.3656 11.4156 9.07812 11.5 7.6875 11.5C6.29687 11.5 5.00938 11.4156 3.82812 11.2437C2.64687 11.075 1.7125 10.8406 1.02813 10.5469C0.34375 10.2531 0 9.92813 0 9.57812V7.65625C0 7.575 0.03125 7.48125 0.090625 7.37187C0.7125 7.74375 1.725 8.04375 3.13125 8.27188C4.5375 8.50313 6.05625 8.61875 7.6875 8.61875C9.31875 8.61875 10.8375 8.50313 12.2438 8.27188C13.65 8.04063 14.6625 7.74062 15.2844 7.37187C15.3438 7.48125 15.375 7.57812 15.375 7.65625V9.57812C15.375 9.92813 15.0312 10.25 14.3469 10.5469C13.6625 10.8406 12.7281 11.075 11.5469 11.2437ZM11.5469 15.0875C10.3656 15.2594 9.07812 15.3438 7.6875 15.3438C6.29687 15.3438 5.00938 15.2594 3.82812 15.0875C2.64687 14.9187 1.7125 14.6844 1.02813 14.3906C0.34375 14.0969 0 13.7719 0 13.4219V11.5C0 11.4187 0.03125 11.325 0.090625 11.2156C0.7125 11.5875 1.725 11.8875 3.13125 12.1156C4.5375 12.3469 6.05625 12.4625 7.6875 12.4625C9.31875 12.4625 10.8375 12.3469 12.2438 12.1156C13.65 11.8844 14.6625 11.5844 15.2844 11.2156C15.3438 11.325 15.375 11.4219 15.375 11.5V13.4219C15.375 13.7719 15.0312 14.0938 14.3469 14.3906C13.6625 14.6844 12.7281 14.9187 11.5469 15.0875Z" fill="#0B6DFF"/>
</svg>
