<svg width="24" height="24" viewBox="0 0 24 24" fill="none" xmlns="http://www.w3.org/2000/svg">
<path d="M15.113 11.8201C16.1216 11.1514 16.888 10.1757 17.2987 9.0374C17.7094 7.89914 17.7426 6.65887 17.3934 5.50027C17.0442 4.34166 16.3312 3.32631 15.3599 2.6046C14.3886 1.88288 13.2106 1.49316 12.0005 1.49316C10.7905 1.49316 9.61254 1.88288 8.64123 2.6046C7.66992 3.32631 6.95687 4.34166 6.60767 5.50027C6.25847 6.65887 6.29169 7.89914 6.7024 9.0374C7.11312 10.1757 7.8795 11.1514 8.88805 11.8201C7.17982 12.4556 5.70642 13.5977 4.665 15.0935C3.62357 16.5893 3.06379 18.3674 3.06055 20.1901V21.7501C3.06055 21.949 3.13956 22.1397 3.28022 22.2804C3.42087 22.421 3.61163 22.5001 3.81055 22.5001H20.1905C20.3895 22.5001 20.5802 22.421 20.7209 22.2804C20.8615 22.1397 20.9405 21.949 20.9405 21.7501V20.1901C20.9373 18.3674 20.3775 16.5893 19.3361 15.0935C18.2947 13.5977 16.8213 12.4556 15.113 11.8201ZM12.518 10.5001C12.3784 10.6386 12.1898 10.7167 11.993 10.7176C11.8943 10.7181 11.7965 10.6992 11.7051 10.6619C11.6137 10.6246 11.5306 10.5696 11.4605 10.5001C11.3903 10.4303 11.3345 10.3474 11.2964 10.256C11.2583 10.1646 11.2387 10.0666 11.2387 9.96756C11.2387 9.86856 11.2583 9.77053 11.2964 9.67913C11.3345 9.58774 11.3903 9.50479 11.4605 9.43506C11.6011 9.29538 11.7912 9.21697 11.9893 9.21697C12.1874 9.21697 12.3775 9.29538 12.518 9.43506C12.5889 9.50453 12.6453 9.58736 12.6839 9.67877C12.7225 9.77017 12.7426 9.86833 12.743 9.96756C12.7426 10.0668 12.7225 10.165 12.6839 10.2564C12.6453 10.3478 12.5889 10.4306 12.518 10.5001ZM12.743 7.89007V8.27256C12.743 8.47148 12.664 8.66224 12.5234 8.80289C12.3827 8.94355 12.192 9.02256 11.993 9.02256C11.7941 9.02256 11.6034 8.94355 11.4627 8.80289C11.3221 8.66224 11.243 8.47148 11.243 8.27256V7.29006C11.243 7.09115 11.3221 6.90039 11.4627 6.75974C11.6034 6.61908 11.7941 6.54006 11.993 6.54006C12.1502 6.54006 12.3009 6.47764 12.412 6.36653C12.5231 6.25541 12.5855 6.10471 12.5855 5.94756C12.5865 5.86913 12.5719 5.79127 12.5426 5.71852C12.5133 5.64577 12.4698 5.57956 12.4147 5.52375C12.3596 5.46793 12.2939 5.42362 12.2215 5.39337C12.1492 5.36313 12.0715 5.34756 11.993 5.34756C11.8339 5.34756 11.6813 5.41078 11.5688 5.5233C11.4563 5.63582 11.393 5.78843 11.393 5.94756C11.393 6.14648 11.314 6.33724 11.1734 6.47789C11.0327 6.61855 10.842 6.69757 10.643 6.69757C10.4441 6.69757 10.2534 6.61855 10.1127 6.47789C9.97206 6.33724 9.89305 6.14648 9.89305 5.94756C9.89284 5.56512 9.99708 5.18989 10.1945 4.86234C10.3919 4.5348 10.6751 4.2674 11.0133 4.08898C11.3516 3.91056 11.7322 3.8279 12.114 3.84993C12.4958 3.87196 12.8644 3.99783 13.1799 4.21397C13.4954 4.43011 13.7459 4.7283 13.9043 5.07637C14.0628 5.42444 14.1232 5.80918 14.079 6.18906C14.0348 6.56894 13.8877 6.92955 13.6536 7.23196C13.4195 7.53437 13.1072 7.76711 12.7505 7.90506L12.743 7.89007Z" fill="white"/>
</svg>
