<svg width="24" height="24" viewBox="0 0 24 24" fill="none" xmlns="http://www.w3.org/2000/svg">
<path d="M1.31211 4.83793H3.60516C3.92932 6.21705 5.1669 7.24795 6.64333 7.24795C8.11995 7.24795 9.35758 6.21705 9.68174 4.83793H22.6871C23.0807 4.83793 23.3996 4.51902 23.3996 4.12543C23.3996 3.73184 23.0807 3.41293 22.6871 3.41293H9.68246C9.35935 2.03239 8.12097 1.00012 6.64333 1.00012C5.1659 1.00012 3.92755 2.03239 3.60444 3.41293H1.31211C0.918518 3.41293 0.599609 3.73184 0.599609 4.12543C0.599609 4.51902 0.918518 4.83793 1.31211 4.83793Z" fill="white"/>
<path d="M22.6871 11.2861H20.3941C20.0699 9.907 18.8323 8.8761 17.3559 8.8761C15.8793 8.8761 14.6416 9.907 14.3175 11.2861H1.31211C0.918518 11.2861 0.599609 11.605 0.599609 11.9986C0.599609 12.3922 0.918518 12.7111 1.31211 12.7111H14.3168C14.6399 14.0917 15.8783 15.1239 17.3559 15.1239C18.8333 15.1239 20.0717 14.0917 20.3948 12.7111H22.6871C23.0807 12.7111 23.3996 12.3922 23.3996 11.9986C23.3996 11.605 23.0807 11.2861 22.6871 11.2861Z" fill="white"/>
<path d="M22.6871 19.1649H9.68246C9.35935 17.7843 8.12097 16.7521 6.64333 16.7521C5.1659 16.7521 3.92755 17.7843 3.60444 19.1649H1.31211C0.918518 19.1649 0.599609 19.4838 0.599609 19.8774C0.599609 20.271 0.918518 20.5899 1.31211 20.5899H3.60516C3.92932 21.969 5.1669 22.9999 6.64333 22.9999C8.11995 22.9999 9.35758 21.969 9.68174 20.5899H22.6871C23.0807 20.5899 23.3996 20.271 23.3996 19.8774C23.3996 19.4838 23.0807 19.1649 22.6871 19.1649Z" fill="white"/>
</svg>
