<svg width="16" height="15" viewBox="0 0 16 15" fill="none" xmlns="http://www.w3.org/2000/svg">
<path d="M15.7449 11.5332L9.62932 0.940685C9.28926 0.351686 8.68017 0 7.99998 0C7.31983 0 6.71071 0.351686 6.37065 0.940685L0.25507 11.5332C-0.0850232 12.1222 -0.0850232 12.8256 0.25507 13.4146C0.595162 14.0036 1.20422 14.3553 1.88441 14.3553H14.1156C14.7957 14.3553 15.4048 14.0036 15.7449 13.4146C16.085 12.8256 16.085 12.1222 15.7449 11.5332ZM14.9331 12.9459C14.7625 13.2415 14.4568 13.4179 14.1156 13.4179H1.88441C1.5431 13.4179 1.23747 13.2415 1.06685 12.9459C0.896224 12.6504 0.896224 12.2975 1.06685 12.0019L7.18249 1.4094C7.35311 1.11384 7.65874 0.937404 8.00002 0.937404C8.34127 0.937404 8.64692 1.11384 8.81754 1.4094L14.9332 12.0019C15.1037 12.2975 15.1037 12.6504 14.9331 12.9459Z" fill="#DF4648"/>
<path d="M8.46862 4.67795H7.53125V9.36487H8.46862V4.67795Z" fill="#DF4648"/>
<path d="M7.99994 10.3023C7.65534 10.3023 7.375 10.5827 7.375 10.9272C7.375 11.2718 7.65534 11.5522 7.99994 11.5522C8.3445 11.5522 8.62487 11.2718 8.62487 10.9272C8.62487 10.5827 8.34453 10.3023 7.99994 10.3023Z" fill="#DF4648"/>
</svg>
