<svg width="16" height="16" viewBox="0 0 16 16" fill="none" xmlns="http://www.w3.org/2000/svg">
<path d="M1.14286 8.57144H0V15.4286H1.14286C1.48571 15.4286 1.71429 15.2 1.71429 14.8572V9.14287C1.71429 8.80001 1.48571 8.57144 1.14286 8.57144Z" fill="#011448"/>
<path d="M15.3714 9.31428C14.9714 9.08571 14.4571 9.02857 14.0571 9.25714L10.2856 11.3143C10.1714 12 9.59993 12.5714 8.85707 12.5714H6.57136C6.39993 12.5714 6.28564 12.4571 6.28564 12.2857C6.28564 12.1143 6.39993 12 6.57136 12H8.85707C9.31422 12 9.71422 11.6 9.71422 11.1429C9.71422 10.6857 9.37136 10.2857 8.85707 10.2857C8.68564 10.2857 5.94279 10.2857 5.94279 10.2857L4.97136 9.31428C4.85707 9.2 4.74279 9.14286 4.57136 9.14286H2.28564V14.8571H3.31422L5.14279 15.4286C5.88564 15.6571 6.74279 16 7.65707 16C8.45707 16 9.31422 15.7143 9.99993 15.2L15.4285 11.6C15.7714 11.3714 15.9999 10.9143 15.9999 10.5143C15.9999 10 15.7714 9.6 15.3714 9.31428Z" fill="#011448"/>
<path d="M5.71429 9.14286C6.66106 9.14286 7.42857 7.09616 7.42857 4.57143C7.42857 2.0467 6.66106 0 5.71429 0C4.76751 0 4 2.0467 4 4.57143C4 7.09616 4.76751 9.14286 5.71429 9.14286Z" fill="#0B6DFF"/>
<path d="M7.88561 2.85714H9.02847C8.91418 2.17142 8.74275 1.6 8.57132 1.14285H7.42847C7.65704 1.65714 7.77132 2.22857 7.88561 2.85714Z" fill="#0B6DFF"/>
<path d="M8.28576 0.571429C8.00005 0.228571 7.71433 0 7.42862 0H6.80005C6.91433 0.171429 7.08576 0.342857 7.20005 0.571429H8.28576Z" fill="#0B6DFF"/>
<path d="M9.0287 6.28571H7.88584C7.77155 6.91428 7.65727 7.48571 7.48584 7.99999H8.57155C8.74298 7.54285 8.91441 6.97142 9.0287 6.28571Z" fill="#0B6DFF"/>
<path d="M6.80005 9.14287H7.42862C7.71433 9.14287 8.00005 8.9143 8.28576 8.57144H7.20005C7.08576 8.80001 6.97148 8.97144 6.80005 9.14287Z" fill="#0B6DFF"/>
<path d="M8.00001 4.57142C8.00001 4.97142 8.00001 5.31427 7.94287 5.71427H9.08573C9.14287 5.37142 9.14287 4.97142 9.14287 4.57142C9.14287 4.17142 9.14287 3.77142 9.08573 3.42856H7.94287C8.00001 3.82856 8.00001 4.17142 8.00001 4.57142Z" fill="#0B6DFF"/>
<path d="M11.4286 9.14286C12.3754 9.14286 13.1429 7.09616 13.1429 4.57143C13.1429 2.0467 12.3754 0 11.4286 0C10.4819 0 9.71436 2.0467 9.71436 4.57143C9.71436 7.09616 10.4819 9.14286 11.4286 9.14286Z" fill="#0B6DFF"/>
<path d="M13.6 2.85714H14.7428C14.6285 2.17142 14.4571 1.6 14.2857 1.14285H13.1428C13.3714 1.65714 13.4857 2.22857 13.6 2.85714Z" fill="#0B6DFF"/>
<path d="M13.9999 0.571429C13.7142 0.228571 13.4284 0 13.1427 0H12.5142C12.6284 0.171429 12.7999 0.342857 12.9142 0.571429H13.9999Z" fill="#0B6DFF"/>
<path d="M14.7428 6.28571H13.6C13.4857 6.91428 13.3714 7.48571 13.2 7.99999H14.2857C14.4571 7.54285 14.6285 6.97142 14.7428 6.28571Z" fill="#0B6DFF"/>
<path d="M12.5142 9.14287H13.1427C13.4284 9.14287 13.7142 8.9143 13.9999 8.57144H12.9142C12.7999 8.80001 12.6856 8.97144 12.5142 9.14287Z" fill="#0B6DFF"/>
<path d="M13.7144 4.57142C13.7144 4.97142 13.7144 5.31427 13.6572 5.71427H14.8001C14.8572 5.37142 14.8572 4.97142 14.8572 4.57142C14.8572 4.17142 14.8572 3.77142 14.8001 3.42856H13.6572C13.7144 3.82856 13.7144 4.17142 13.7144 4.57142Z" fill="#0B6DFF"/>
</svg>
