<svg width="24" height="24" viewBox="0 0 24 24" fill="none" xmlns="http://www.w3.org/2000/svg">
<path d="M14.9603 19.6555C14.651 19.6555 14.3979 19.4025 14.3979 19.0931C14.3979 18.7838 14.651 18.5308 14.9603 18.5308H18.5315V5.46924H15.1712C14.8478 5.46924 14.6088 5.21617 14.6088 4.90685C14.6088 4.59754 14.8478 4.34446 15.1712 4.34446H19.0939C19.4032 4.34446 19.6562 4.59754 19.6562 4.90685V19.0931C19.6562 19.4025 19.4032 19.6555 19.0939 19.6555H14.9603ZM11.4454 19.6555H4.90757C4.59825 19.6555 4.34518 19.4025 4.34518 19.0931V4.90685C4.34518 4.59754 4.59825 4.34446 4.90757 4.34446H11.4454V0.56239C11.4454 0.253076 11.6984 0 12.0077 0C12.3171 0 12.5701 0.253076 12.5701 0.56239V4.90685V23.4376C12.5701 23.7469 12.3171 24 12.0077 24C11.6984 24 11.4454 23.7469 11.4454 23.4376V19.6555Z" fill="white"/>
</svg>
