<svg width="24" height="24" viewBox="0 0 24 24" fill="none" xmlns="http://www.w3.org/2000/svg">
<path d="M12.0005 1.875C6.41797 1.875 1.87549 6.41674 1.87549 12C1.87549 13.9622 2.43507 15.8438 3.50001 17.4851L1.17969 22.125H12.0005C17.583 22.125 22.1255 17.5833 22.1255 12C22.1255 6.41674 17.583 1.875 12.0005 1.875ZM13.1255 17.8401H10.8755V15.5901H13.1255V17.8401ZM13.9107 12.3728C13.4185 12.7104 13.1255 13.2773 13.1255 13.8889H10.8755C10.8755 12.5361 11.5332 11.2756 12.6362 10.5183C12.9424 10.3081 13.1255 9.96093 13.1255 9.59032C13.1255 8.96997 12.6201 8.46532 12.0005 8.46532C11.3809 8.46532 10.8755 8.96997 10.8755 9.59032H8.62549C8.62549 7.72924 10.1401 6.21532 12.0005 6.21532C13.8608 6.21532 15.3755 7.72924 15.3755 9.59032C15.3755 10.7022 14.8276 11.7422 13.9107 12.3728Z" fill="white"/>
</svg>
