<svg width="31" height="31" viewBox="0 0 31 31" fill="none" xmlns="http://www.w3.org/2000/svg">
<g clip-path="url(#clip0_1012_2498)">
<path d="M20.4123 19.8073C19.4678 20.6477 18.2881 21.6934 16.1492 21.6934H14.8701C13.3223 21.6934 11.9145 21.1294 10.9069 20.1071C9.92253 19.1081 9.38067 17.741 9.38067 16.2569V14.5024C9.38067 13.0183 9.92253 11.6512 10.9069 10.6522C11.9145 9.62991 13.3223 9.06676 14.8701 9.06676H16.1492C18.2907 9.06676 19.4678 10.1116 20.4123 10.952C21.3932 11.8184 22.2393 12.5756 24.4957 12.5756C24.8399 12.5755 25.1835 12.548 25.5233 12.4933L25.5155 12.4734C25.3804 12.1369 25.2218 11.8103 25.0411 11.4961L23.533 8.87703C22.853 7.69634 21.8749 6.71592 20.6971 6.03429C19.5193 5.35266 18.1832 4.99384 16.8233 4.9939H13.8063C12.4463 4.99384 11.1103 5.35266 9.9325 6.03429C8.7547 6.71592 7.77662 7.69634 7.09655 8.87703L5.5885 11.4961C4.90867 12.6769 4.55078 14.0163 4.55078 15.3797C4.55078 16.743 4.90867 18.0824 5.5885 19.2632L7.09655 21.8823C7.77662 23.063 8.7547 24.0434 9.9325 24.725C11.1103 25.4067 12.4463 25.7655 13.8063 25.7654H16.8233C18.1832 25.7655 19.5193 25.4067 20.6971 24.725C21.8749 24.0434 22.853 23.063 23.533 21.8823L25.0411 19.2676C25.2218 18.9533 25.3804 18.6268 25.5155 18.2903L25.5233 18.2712C25.1837 18.2147 24.84 18.1857 24.4957 18.1846C22.2393 18.1846 21.3932 18.9375 20.4123 19.8082" fill="#006BFF"/>
<path d="M16.1495 10.6572H14.8704C12.5146 10.6572 10.9668 12.344 10.9668 14.503V16.2575C10.9668 18.4165 12.5146 20.1033 14.8704 20.1033H16.1495C19.5821 20.1033 19.3125 16.5945 24.496 16.5945C24.9872 16.5939 25.4773 16.6392 25.96 16.7296C26.1173 15.837 26.1173 14.9235 25.96 14.0309C25.4772 14.1209 24.9871 14.1661 24.496 14.166C19.3108 14.166 19.5821 10.6572 16.1495 10.6572Z" fill="#006BFF"/>
<path d="M28.9377 18.0115C28.055 17.3633 27.037 16.9246 25.9605 16.7283C25.9605 16.7379 25.9605 16.7457 25.9605 16.7543C25.8678 17.2716 25.7231 17.7782 25.5284 18.2662C26.4177 18.4042 27.2614 18.7526 27.9897 19.2824C27.9897 19.2894 27.9853 19.298 27.9828 19.3058C27.0454 22.3487 25.0504 24.9536 22.3601 26.6473C19.6699 28.341 16.4629 29.0111 13.3217 28.5359C10.1806 28.0607 7.31362 26.4718 5.24168 24.0577C3.16974 21.6436 2.03028 18.5645 2.03028 15.3798C2.03028 12.1951 3.16974 9.11605 5.24168 6.70196C7.31362 4.28787 10.1806 2.6989 13.3217 2.22372C16.4629 1.74853 19.6699 2.41865 22.3601 4.11233C25.0504 5.80601 27.0454 8.4109 27.9828 11.4538C27.9828 11.4616 27.9871 11.4703 27.9897 11.4772C27.2615 12.0071 26.4177 12.3552 25.5284 12.4926C25.7228 12.9813 25.8676 13.4884 25.9605 14.0062C25.96 14.0142 25.96 14.0224 25.9605 14.0304C27.0369 13.8345 28.055 13.3961 28.9377 12.7482C29.7864 12.1183 29.6222 11.407 29.4934 10.986C28.4441 7.57424 26.2088 4.6531 23.1936 2.75335C20.1784 0.853596 16.5834 0.101311 13.0619 0.633194C9.54036 1.16508 6.32604 2.94583 4.00299 5.65186C1.67995 8.35789 0.402344 11.8096 0.402344 15.3798C0.402344 18.95 1.67995 22.4017 4.00299 25.1078C6.32604 27.8138 9.54036 29.5946 13.0619 30.1264C16.5834 30.6583 20.1784 29.906 23.1936 28.0063C26.2088 26.1065 28.4441 23.1854 29.4934 19.7737C29.6222 19.3526 29.7864 18.6413 28.9377 18.0115Z" fill="#006BFF"/>
<path d="M25.5235 12.4924C25.1839 12.5489 24.8402 12.5779 24.4959 12.579C22.2395 12.579 21.3934 11.8261 20.4134 10.9554C19.4679 10.115 18.2909 9.06927 16.1494 9.06927H14.8703C13.3217 9.06927 11.9147 9.63329 10.9071 10.6556C9.92272 11.6546 9.38086 13.0217 9.38086 14.5058V16.2603C9.38086 17.7444 9.92272 19.1115 10.9071 20.1105C11.9147 21.1328 13.3217 21.6959 14.8703 21.6959H16.1494C18.2909 21.6959 19.4679 20.6511 20.4134 19.8107C21.3934 18.9443 22.2395 18.1871 24.4959 18.1871C24.8401 18.1872 25.1837 18.2147 25.5235 18.2694C25.7185 17.7815 25.8633 17.275 25.9556 16.7576C25.9561 16.7489 25.9561 16.7402 25.9556 16.7316C25.4727 16.6418 24.9827 16.5969 24.4916 16.5973C19.3063 16.5973 19.5777 20.107 16.1451 20.107H14.866C12.5102 20.107 10.9624 18.4193 10.9624 16.2603V14.5024C10.9624 12.3433 12.5102 10.6565 14.866 10.6565H16.1451C19.5777 10.6565 19.3081 14.1645 24.4916 14.1645C24.9827 14.1653 25.4728 14.1204 25.9556 14.0302C25.9556 14.0224 25.9556 14.0146 25.9556 14.0059C25.8627 13.4881 25.7179 12.981 25.5235 12.4924Z" fill="#0AE8F0"/>
<path d="M25.5235 12.4924C25.1839 12.5489 24.8402 12.5779 24.4959 12.579C22.2395 12.579 21.3934 11.8261 20.4134 10.9554C19.4679 10.115 18.2909 9.06927 16.1494 9.06927H14.8703C13.3217 9.06927 11.9147 9.63329 10.9071 10.6556C9.92272 11.6546 9.38086 13.0217 9.38086 14.5058V16.2603C9.38086 17.7444 9.92272 19.1115 10.9071 20.1105C11.9147 21.1328 13.3217 21.6959 14.8703 21.6959H16.1494C18.2909 21.6959 19.4679 20.6511 20.4134 19.8107C21.3934 18.9443 22.2395 18.1871 24.4959 18.1871C24.8401 18.1872 25.1837 18.2147 25.5235 18.2694C25.7185 17.7815 25.8633 17.275 25.9556 16.7576C25.9561 16.7489 25.9561 16.7402 25.9556 16.7316C25.4727 16.6418 24.9827 16.5969 24.4916 16.5973C19.3063 16.5973 19.5777 20.107 16.1451 20.107H14.866C12.5102 20.107 10.9624 18.4193 10.9624 16.2603V14.5024C10.9624 12.3433 12.5102 10.6565 14.866 10.6565H16.1451C19.5777 10.6565 19.3081 14.1645 24.4916 14.1645C24.9827 14.1653 25.4728 14.1204 25.9556 14.0302C25.9556 14.0224 25.9556 14.0146 25.9556 14.0059C25.8627 13.4881 25.7179 12.981 25.5235 12.4924Z" fill="#0AE8F0"/>
</g>
<defs>
<clipPath id="clip0_1012_2498">
<rect width="30" height="30" fill="white" transform="translate(0 0.379883)"/>
</clipPath>
</defs>
</svg>
