<svg width="30" height="30" viewBox="0 0 30 30" fill="none" xmlns="http://www.w3.org/2000/svg">
<g clip-path="url(#clip0_1177_3279)">
<path d="M14.9597 17.4117C15.8551 17.4117 16.5836 16.6833 16.5836 15.7879C16.5836 14.8926 15.8551 14.1642 14.9597 14.1642C14.0644 14.1642 13.3359 14.8926 13.3359 15.7879C13.3359 16.6833 14.0644 17.4117 14.9597 17.4117Z" fill="#011448"/>
<path d="M15.798 19.1681H14.1339C12.4942 19.1681 11.1602 20.502 11.1602 22.1417V22.2284C12.3202 22.8381 13.6182 23.1616 14.966 23.1616C16.3138 23.1616 17.6118 22.8381 18.7718 22.2284V22.1417C18.7718 20.502 17.4378 19.1681 15.798 19.1681Z" fill="#011448"/>
<path d="M28.7871 22.9311C28.0049 22.149 26.9651 21.7183 25.8589 21.7183C25.0518 21.7183 24.2804 21.9486 23.6183 22.3765L21.3493 20.1076C22.524 18.6552 23.1626 16.8595 23.1626 14.9654C23.1626 13.0744 22.526 11.2815 21.3551 9.83039L23.6114 7.61924C24.2751 8.04996 25.0491 8.28176 25.8589 8.28176C26.9651 8.28176 28.0049 7.85104 28.7871 7.06893C29.5692 6.28676 30 5.24689 30 4.14082C30 3.03475 29.5692 1.99488 28.7871 1.21277C28.0049 0.430723 26.9651 0 25.8589 0C24.7528 0 23.7129 0.430723 22.9308 1.21283C22.1486 1.99494 21.7179 3.0348 21.7179 4.14088C21.7179 4.94531 21.9468 5.71412 22.3719 6.37482L20.1144 8.58709C18.6609 7.40941 16.8628 6.7691 14.966 6.7691C13.0856 6.7691 11.3021 7.39852 9.85529 8.55686L7.62814 6.37471C8.05324 5.71406 8.28211 4.94525 8.28211 4.14088C8.28211 3.0348 7.85133 1.99494 7.06922 1.21283C5.45467 -0.40166 2.8275 -0.40166 1.21289 1.21283C-0.40166 2.82732 -0.40166 5.45437 1.21289 7.06887C1.995 7.85098 3.03492 8.2817 4.14106 8.2817C4.951 8.2817 5.7249 8.04984 6.38865 7.61912L8.60707 9.79272C7.41674 11.2504 6.76945 13.058 6.76945 14.9653C6.76945 16.8758 7.41885 18.6863 8.61299 20.1452L6.3818 22.3765C5.71957 21.9486 4.94824 21.7183 4.14111 21.7183C3.03498 21.7183 1.99506 22.149 1.21295 22.9311C0.430723 23.7132 0 24.753 0 25.8592C0 26.9653 0.430723 28.0051 1.21289 28.7872C1.995 29.5693 3.03492 30 4.14106 30C5.24719 30 6.28705 29.5693 7.06916 28.7872C7.85133 28.0051 8.28205 26.9652 8.28205 25.8591C8.28205 25.0519 8.05166 24.2805 7.62369 23.6183L9.41537 21.8266C9.53461 20.0238 10.6678 18.4944 12.249 17.8045C11.8288 17.2412 11.5798 16.5431 11.5798 15.7879C11.5798 13.9241 13.0962 12.4078 14.96 12.4078C16.8239 12.4078 18.3403 13.9241 18.3403 15.7879C18.3403 16.5413 18.0923 17.2378 17.6739 17.8005C19.2383 18.4791 20.3658 19.9788 20.5109 21.753L22.3761 23.6183C21.9482 24.2805 21.7178 25.0519 21.7178 25.8591C21.7178 26.9651 22.1486 28.0049 22.9307 28.7871C23.7129 29.5693 24.7528 30 25.8589 30C26.9651 30 28.0049 29.5693 28.7871 28.7872C29.5692 28.0051 29.9999 26.9652 29.9999 25.8591C30 24.753 29.5692 23.7132 28.7871 22.9311Z" fill="#011448"/>
</g>
<defs>
<clipPath id="clip0_1177_3279">
<rect width="30" height="30" fill="white"/>
</clipPath>
</defs>
</svg>
