<svg width="24" height="24" viewBox="0 0 24 24" fill="none" xmlns="http://www.w3.org/2000/svg">
<path d="M14.1173 1.57375C16.6321 1.56055 18.9106 2.36381 20.7531 4.09817C20.7997 4.14119 20.8466 4.1847 20.8947 4.22903C21.7538 5.04747 22.9197 6.53409 23.0138 7.7593C23.0146 7.80925 23.0159 7.8592 23.0167 7.91067C23.0181 7.96056 23.0192 8.01064 23.0206 8.06203C22.9987 8.23879 22.9753 8.29659 22.8429 8.4175C22.6775 8.43908 22.5308 8.4474 22.3654 8.44582C22.3186 8.44603 22.2719 8.44659 22.2238 8.4468C22.1248 8.44695 22.0258 8.44574 21.9269 8.44485C21.7755 8.44371 21.6241 8.44544 21.4728 8.4468C21.3766 8.44666 21.2799 8.44624 21.1837 8.44582C21.1385 8.44626 21.0927 8.44636 21.046 8.4468C20.7337 8.44184 20.7336 8.44189 20.5695 8.32278C20.5668 8.31899 20.5643 8.31483 20.5616 8.31106H20.5392C20.5167 8.26493 20.4942 8.21854 20.4718 8.17239C20.4363 8.11271 20.4039 8.05166 20.3741 7.98391C20.3553 7.94225 20.3359 7.90086 20.3165 7.85793C20.3075 7.83751 20.2983 7.81696 20.2892 7.79641C20.283 7.78358 20.2768 7.77018 20.2706 7.75735C20.2451 7.70498 20.2197 7.65212 20.1935 7.59817C20.1574 7.52334 20.1571 7.52328 20.1202 7.4468C20.1067 7.41892 20.0929 7.391 20.0792 7.36282C19.9324 7.08104 19.7713 6.81472 19.5743 6.55129C19.541 6.50629 19.5081 6.46093 19.4738 6.41457C18.7122 5.42858 17.72 4.71891 16.548 4.29543C16.5144 4.28315 16.48 4.27098 16.4454 4.25832C15.6121 3.97467 14.7994 3.96853 13.9279 3.97219C13.7967 3.97222 13.6655 3.97227 13.5343 3.97219C13.2604 3.9722 12.986 3.97318 12.712 3.97414C12.3629 3.97535 12.0133 3.97548 11.6642 3.97512C11.3933 3.97494 11.1225 3.9746 10.8517 3.97512C10.7231 3.97532 10.5945 3.97618 10.4659 3.9761C8.59084 3.97589 6.81749 4.33579 5.32434 5.5386C5.29473 5.56245 5.265 5.58629 5.2345 5.61086C3.67232 6.87974 2.65399 8.65113 2.43078 10.6568C2.36005 12.1105 2.54956 13.5183 3.2345 14.8159C3.28323 14.9096 3.28337 14.9098 3.33313 15.0054C3.91706 16.0737 4.76116 16.9337 5.75891 17.6275C6.14723 17.9024 6.4332 18.1854 6.55578 18.6548C6.57247 18.8207 6.57595 18.9862 6.57825 19.1529C6.57928 19.1996 6.58011 19.2463 6.58118 19.2945C6.58436 19.4432 6.58749 19.592 6.58996 19.7407C6.59201 19.842 6.59369 19.9441 6.59582 20.0454C6.60095 20.2928 6.60532 20.5403 6.6095 20.7876C6.93599 20.6132 7.24726 20.4242 7.55383 20.2173C7.63858 20.1606 7.72396 20.1041 7.80871 20.0474C7.85034 20.0194 7.8918 19.9912 7.93469 19.9624C8.14422 19.8219 8.3552 19.6828 8.56555 19.5435C8.73836 19.429 8.9111 19.3135 9.08313 19.1978C9.13764 19.1612 9.13772 19.1609 9.19348 19.1236C9.26376 19.0765 9.33435 19.0294 9.40442 18.982C9.62067 18.8373 9.78026 18.7553 10.0411 18.7544C10.0852 18.7541 10.1295 18.7537 10.1749 18.7534C10.2229 18.7534 10.271 18.7525 10.3204 18.7525C10.3967 18.7521 10.397 18.7529 10.4747 18.7525C10.5854 18.7519 10.6961 18.7509 10.8068 18.7505C10.9827 18.7499 11.1591 18.7487 11.3351 18.7476C11.8356 18.7443 12.3365 18.7416 12.837 18.7398C13.143 18.7386 13.449 18.7372 13.755 18.7349C13.8711 18.7341 13.9876 18.7331 14.1036 18.7329C14.9264 18.7316 15.717 18.694 16.4972 18.4048C16.5345 18.3913 16.5721 18.3778 16.6105 18.3638C17.3017 18.1035 17.9939 17.7319 18.5138 17.2007C18.6097 17.1084 18.6102 17.1089 18.7169 17.1089C18.7313 17.0769 18.7461 17.0443 18.7609 17.0113C18.8255 16.8932 18.8854 16.8303 18.9855 16.7417C19.68 16.0647 20.1313 15.1434 20.4698 14.2486C20.5443 14.0563 20.576 13.9735 20.7531 13.856C20.9137 13.8442 21.0699 13.8388 21.2306 13.8384C21.2773 13.838 21.3241 13.8378 21.3722 13.8374C21.4711 13.8369 21.5701 13.8364 21.6691 13.8364C21.8205 13.8362 21.9718 13.8336 22.1232 13.8316C22.2194 13.8313 22.316 13.8317 22.4122 13.8316C22.4574 13.8308 22.5025 13.8294 22.5489 13.8286C22.8635 13.8311 22.864 13.8316 23.0304 13.9575C23.1713 14.1538 23.1713 14.2744 23.1407 14.5152C23.0846 14.7786 22.9653 15.0137 22.8488 15.2554C22.8225 15.3109 22.7967 15.3671 22.7697 15.4243C22.3837 16.2332 21.9941 17.0327 21.4493 17.7486C21.4162 17.7933 21.3829 17.8382 21.3488 17.8843C20.6213 18.8319 19.6616 19.5846 18.6105 20.148C18.5766 20.1663 18.5428 20.1848 18.5079 20.2036C17.1494 20.9238 15.6857 21.1138 14.1691 21.1167C14.0094 21.1171 13.8492 21.1177 13.6896 21.1187C13.236 21.1215 12.7819 21.1237 12.3282 21.1245C12.0497 21.1251 11.7708 21.1272 11.4923 21.1294C11.3868 21.1301 11.2814 21.1305 11.1759 21.1304C11.0282 21.1303 10.8802 21.1309 10.7325 21.1323C10.6894 21.132 10.6462 21.1317 10.6017 21.1314C10.2992 21.1363 10.1298 21.2063 9.87805 21.3736C9.81544 21.4131 9.81495 21.4133 9.7511 21.4536C9.69498 21.4912 9.69507 21.4915 9.63782 21.5298C9.59456 21.5587 9.55152 21.588 9.50696 21.6177C9.46123 21.6484 9.4154 21.6789 9.36828 21.7105C9.26781 21.7775 9.16702 21.8447 9.06653 21.9116C8.98917 21.9632 8.98918 21.9635 8.91028 22.0161C8.50393 22.2867 8.09558 22.5546 7.68762 22.8228C7.58423 22.8908 7.48037 22.9587 7.37707 23.0269C7.22446 23.1275 7.07187 23.2282 6.91907 23.3286C6.87353 23.3587 6.82731 23.3884 6.78039 23.4195C5.85979 24.0228 5.85987 24.0236 5.32434 23.9868C5.03415 23.8866 4.85025 23.7026 4.68078 23.4536C4.57958 23.2432 4.55892 23.0688 4.55383 22.8364C4.55204 22.7669 4.54981 22.6972 4.54797 22.6255C4.54726 22.5885 4.54676 22.5513 4.54602 22.5132C4.54376 22.397 4.54126 22.2808 4.53821 22.1646C4.53075 21.8759 4.52411 21.5871 4.5177 21.2984C4.51223 21.054 4.50655 20.8093 4.50012 20.565C4.49728 20.4505 4.49452 20.3357 4.49231 20.2212C4.49052 20.1519 4.48926 20.0826 4.48743 20.0113C4.48542 19.9196 4.48556 19.9189 4.48352 19.8257C4.46767 19.6719 4.44497 19.5823 4.3595 19.4546C4.22162 19.3619 4.22149 19.3621 4.05481 19.2749C3.62942 19.0312 3.29241 18.7049 2.94446 18.3638C2.87719 18.2985 2.80817 18.235 2.7384 18.1724C1.58496 17.1187 0.699418 15.3336 0.288207 13.856C0.272621 13.8044 0.256412 13.7529 0.240355 13.6997C0.0211748 12.9204 -0.0019803 12.0943 0.000120851 11.2896C0.000149895 11.2471 9.09266e-05 11.2044 0.000120851 11.1607C0.00671869 9.06546 0.684289 7.07292 2.00207 5.43118C2.05882 5.35842 2.05945 5.35887 2.11731 5.28469C3.58919 3.43512 5.84635 2.10131 8.18371 1.71926C8.22339 1.7127 8.26296 1.70551 8.30383 1.69875C9.1186 1.57296 9.9397 1.58291 10.7618 1.58157C10.8242 1.58141 10.887 1.58172 10.9513 1.58157C11.2814 1.58077 11.6114 1.57984 11.9415 1.57961C12.2793 1.57932 12.6174 1.5782 12.9552 1.57668C13.2178 1.57568 13.4807 1.57579 13.7433 1.57571C13.8677 1.57555 13.9929 1.57446 14.1173 1.57375Z" fill="white"/>
<path d="M17.9195 6.50502C18.0884 6.46172 18.2412 6.61673 18.1944 6.78402L16.9862 11.1031C16.9394 11.2704 16.7282 11.3246 16.6061 11.2006L15.7534 10.3353L12.2473 13.7409C11.8217 14.1542 11.1401 14.1459 10.7247 13.7224L9.64389 12.6202L6.64588 15.5321C6.26511 15.9019 5.65525 15.8944 5.28367 15.5155C4.91209 15.1365 4.91951 14.5296 5.30024 14.1597L8.90649 10.657C9.33205 10.2436 10.0137 10.2519 10.429 10.6754L11.5098 11.7777L14.4043 8.96627L13.4518 7.99979C13.3296 7.8758 13.3881 7.66664 13.5571 7.62332L17.9195 6.50502Z" fill="white"/>
</svg>
