<svg width="1920" height="360" viewBox="0 0 1920 360" fill="none" xmlns="http://www.w3.org/2000/svg">
<g opacity="0.5">
<path d="M170.938 359.363C146.031 359.363 123.171 355.013 102.358 346.313C81.5455 337.614 63.4622 325.233 48.1084 309.172C32.7547 292.777 20.8129 273.537 12.283 251.454C4.09433 229.37 0 205.111 0 178.678C0 153.582 4.43553 130.328 13.3066 108.913C22.5188 87.1639 35.143 68.0916 51.1792 51.696C67.2153 35.3005 85.8104 22.5857 106.964 13.5514C128.119 4.51713 150.979 0 175.545 0C192.946 0 209.835 2.67681 226.212 8.03044C242.931 13.0495 257.943 20.2434 271.25 29.6123C284.897 38.6466 295.986 49.0192 304.516 60.7303L267.667 98.373C257.772 88.6696 247.707 80.6391 237.471 74.2817C227.577 67.5897 217.341 62.5706 206.764 59.2246C196.528 55.8786 186.122 54.2055 175.545 54.2055C158.826 54.2055 143.131 57.3843 128.46 63.7417C114.13 69.7646 101.505 78.2969 90.5871 89.3388C80.0101 100.381 71.6509 113.597 65.5094 128.989C59.3679 144.046 56.2971 160.609 56.2971 178.678C56.2971 197.75 59.1973 215.149 64.9976 230.876C71.1391 246.267 79.6689 259.484 90.5871 270.526C101.505 281.568 114.471 290.1 129.483 296.123C144.837 301.811 161.726 304.655 180.151 304.655C191.41 304.655 202.499 303.15 213.417 300.138C224.335 297.127 234.571 292.777 244.125 287.089C253.678 281.401 262.379 274.708 270.226 267.013L297.863 311.18C290.015 320.214 279.268 328.412 265.62 335.773C252.313 343.135 237.301 348.99 220.582 353.34C204.205 357.355 187.657 359.363 170.938 359.363Z" fill="url(#paint0_linear_288_1248)"/>
<path d="M465.071 359.363C438.799 359.363 415.256 353.507 394.443 341.796C373.972 329.751 357.765 313.522 345.823 293.112C333.881 272.366 327.911 248.777 327.911 222.343C327.911 195.91 333.881 172.487 345.823 152.077C357.765 131.331 373.972 115.103 394.443 103.392C415.256 91.3464 438.799 85.3236 465.071 85.3236C491.002 85.3236 514.203 91.3464 534.674 103.392C555.487 115.103 571.865 131.331 583.806 152.077C595.748 172.487 601.719 195.91 601.719 222.343C601.719 248.777 595.748 272.366 583.806 293.112C571.865 313.522 555.487 329.751 534.674 341.796C514.203 353.507 491.002 359.363 465.071 359.363ZM465.071 312.184C481.107 312.184 495.437 308.336 508.061 300.64C520.685 292.61 530.58 281.902 537.745 268.518C544.91 254.8 548.322 239.408 547.981 222.343C548.322 204.944 544.91 189.552 537.745 176.168C530.58 162.449 520.685 151.742 508.061 144.046C495.437 136.35 481.107 132.502 465.071 132.502C449.035 132.502 434.534 136.518 421.568 144.548C408.944 152.244 399.05 162.951 391.885 176.67C384.719 190.054 381.307 205.278 381.649 222.343C381.307 239.408 384.719 254.8 391.885 268.518C399.05 281.902 408.944 292.61 421.568 300.64C434.534 308.336 449.035 312.184 465.071 312.184Z" fill="url(#paint1_linear_288_1248)"/>
<path d="M643.806 354.344V90.8445H697.032V173.659L691.914 153.582C695.668 140.868 701.98 129.324 710.851 118.951C720.063 108.578 730.469 100.381 742.07 94.3578C754.012 88.335 766.295 85.3236 778.919 85.3236C784.719 85.3236 790.178 85.8255 795.296 86.8293C800.755 87.8331 805.02 89.0042 808.091 90.3426L794.273 146.556C790.178 144.883 785.572 143.544 780.454 142.541C775.678 141.202 770.901 140.533 766.124 140.533C756.912 140.533 748.041 142.373 739.511 146.054C731.322 149.4 723.987 154.252 717.504 160.609C711.363 166.632 706.415 173.826 702.662 182.191C698.909 190.221 697.032 199.088 697.032 208.792V354.344H643.806Z" fill="url(#paint2_linear_288_1248)"/>
<path d="M948.386 354.344L834.768 90.8445H891.577L973.464 288.093L963.74 292.61L1051.26 90.8445H1105.51L986.259 354.344H948.386Z" fill="url(#paint3_linear_288_1248)"/>
<path d="M1256.28 359.363C1228.64 359.363 1204.07 353.675 1182.58 342.298C1161.42 330.587 1144.71 314.693 1132.42 294.617C1120.48 274.541 1114.51 251.454 1114.51 225.355C1114.51 204.609 1117.92 185.704 1124.75 168.64C1131.57 151.575 1140.95 136.852 1152.9 124.472C1165.18 111.757 1179.68 102.054 1196.4 95.3616C1213.46 88.335 1231.88 84.8217 1251.67 84.8217C1269.07 84.8217 1285.28 88.1677 1300.29 94.8597C1315.3 101.217 1328.27 110.084 1339.19 121.461C1350.45 132.837 1358.98 146.388 1364.78 162.115C1370.92 177.506 1373.82 194.404 1373.48 212.807L1372.97 234.891H1153.41L1141.64 193.735H1327.42L1319.74 202.267V190.221C1318.72 179.179 1314.96 169.309 1308.48 160.609C1302 151.909 1293.81 145.05 1283.91 140.031C1274.02 135.012 1263.27 132.502 1251.67 132.502C1233.25 132.502 1217.72 136.016 1205.1 143.042C1192.47 149.735 1182.92 159.773 1176.44 173.157C1169.95 186.206 1166.71 202.434 1166.71 221.841C1166.71 240.244 1170.64 256.305 1178.48 270.024C1186.33 283.408 1197.42 293.781 1211.75 301.142C1226.08 308.503 1242.63 312.184 1261.39 312.184C1274.7 312.184 1286.98 310.009 1298.24 305.659C1309.84 301.309 1322.3 293.446 1335.6 282.07L1362.22 318.709C1354.03 326.739 1343.96 333.766 1332.02 339.789C1320.42 345.811 1307.97 350.663 1294.66 354.344C1281.7 357.69 1268.9 359.363 1256.28 359.363Z" fill="url(#paint4_linear_288_1248)"/>
<path d="M1592.53 354.344L1505.52 243.423L1497.85 233.887L1384.74 90.8445H1451.27L1536.74 200.259L1545.44 211.301L1657.01 354.344H1592.53ZM1385.25 354.344L1491.19 218.83L1522.41 255.469L1447.69 354.344H1385.25ZM1548.51 226.86L1519.34 190.723L1585.36 90.8445H1647.8L1548.51 226.86Z" fill="url(#paint5_linear_288_1248)"/>
<path d="M1773.15 359.364C1750.97 359.364 1730.68 353.342 1712.26 341.299C1694.18 329.256 1679.68 312.864 1668.76 292.123C1657.85 271.382 1652.39 221.871 1652.39 221.871C1652.39 221.871 1657.85 172.026 1668.76 151.619C1680.02 130.878 1695.03 114.653 1713.79 102.945C1732.89 91.2362 1754.21 85.3819 1777.75 85.3819C1791.74 85.3819 1804.53 87.3891 1816.13 91.4035C1827.73 95.4179 1837.79 101.105 1846.32 108.465C1855.19 115.49 1862.35 123.686 1867.81 133.053C1873.61 142.42 1877.19 152.456 1878.55 163.161L1866.78 159.146V90.9017H1920V354.346H1866.78V291.621L1879.07 288.108C1877.02 297.141 1872.75 306.006 1866.27 314.704C1860.13 323.067 1852.12 330.594 1842.22 337.285C1832.67 343.975 1821.93 349.328 1809.99 353.342C1798.39 357.357 1786.11 359.364 1773.15 359.364ZM1786.96 311.693C1802.99 311.693 1817.15 307.846 1829.43 300.152C1841.71 292.457 1851.26 281.92 1858.09 268.538C1865.25 254.823 1868.83 239.267 1868.83 221.871C1868.83 204.81 1865.25 189.589 1858.09 176.207C1851.26 162.826 1841.71 152.288 1829.43 144.594C1817.15 136.9 1802.99 133.053 1786.96 133.053C1771.27 133.053 1757.28 136.9 1745 144.594C1733.06 152.288 1723.51 162.826 1716.35 176.207C1709.53 189.589 1706.12 204.81 1706.12 221.871C1706.12 239.267 1709.53 254.823 1716.35 268.538C1723.51 281.92 1733.06 292.457 1745 300.152C1757.28 307.846 1771.27 311.693 1786.96 311.693Z" fill="url(#paint6_linear_288_1248)"/>
</g>
<defs>
<linearGradient id="paint0_linear_288_1248" x1="1069.1" y1="130.862" x2="1069.36" y2="343.687" gradientUnits="userSpaceOnUse">
<stop stop-color="white"/>
<stop offset="1" stop-color="white" stop-opacity="0"/>
</linearGradient>
<linearGradient id="paint1_linear_288_1248" x1="1069.1" y1="130.862" x2="1069.36" y2="343.687" gradientUnits="userSpaceOnUse">
<stop stop-color="white"/>
<stop offset="1" stop-color="white" stop-opacity="0"/>
</linearGradient>
<linearGradient id="paint2_linear_288_1248" x1="1069.1" y1="130.862" x2="1069.36" y2="343.687" gradientUnits="userSpaceOnUse">
<stop stop-color="white"/>
<stop offset="1" stop-color="white" stop-opacity="0"/>
</linearGradient>
<linearGradient id="paint3_linear_288_1248" x1="1069.1" y1="130.862" x2="1069.36" y2="343.687" gradientUnits="userSpaceOnUse">
<stop stop-color="white"/>
<stop offset="1" stop-color="white" stop-opacity="0"/>
</linearGradient>
<linearGradient id="paint4_linear_288_1248" x1="1069.1" y1="130.862" x2="1069.36" y2="343.687" gradientUnits="userSpaceOnUse">
<stop stop-color="white"/>
<stop offset="1" stop-color="white" stop-opacity="0"/>
</linearGradient>
<linearGradient id="paint5_linear_288_1248" x1="1069.1" y1="130.862" x2="1069.36" y2="343.687" gradientUnits="userSpaceOnUse">
<stop stop-color="white"/>
<stop offset="1" stop-color="white" stop-opacity="0"/>
</linearGradient>
<linearGradient id="paint6_linear_288_1248" x1="1069.1" y1="130.862" x2="1069.36" y2="343.687" gradientUnits="userSpaceOnUse">
<stop stop-color="white"/>
<stop offset="1" stop-color="white" stop-opacity="0"/>
</linearGradient>
</defs>
</svg>
