<svg width="22" height="22" viewBox="0 0 22 22" fill="none" xmlns="http://www.w3.org/2000/svg">
<path fill-rule="evenodd" clip-rule="evenodd" d="M13.4112 1.44229C15.8006 1.4301 17.9663 2.16667 19.7169 3.75674C19.7611 3.79603 19.8052 3.83541 19.8507 3.87588C20.6669 4.62608 21.7748 5.98909 21.8644 7.11221C21.8652 7.15793 21.8665 7.20379 21.8673 7.25088C21.8686 7.29675 21.8699 7.34327 21.8712 7.39053C21.8504 7.5525 21.8272 7.60484 21.7013 7.71572C21.5442 7.73548 21.4053 7.74353 21.2482 7.74209C21.2038 7.74228 21.1591 7.7419 21.1134 7.74209C21.0194 7.74222 20.9252 7.74193 20.8312 7.74112C20.6873 7.74007 20.5434 7.74084 20.3995 7.74209C20.3082 7.74196 20.2165 7.74248 20.1251 7.74209C20.0823 7.74249 20.0394 7.74266 19.9952 7.74307C19.6981 7.73852 19.6981 7.73805 19.5421 7.62881C19.5396 7.62542 19.5377 7.62144 19.5353 7.61807H19.5128C19.491 7.57478 19.4692 7.5315 19.4474 7.48819C19.4144 7.4344 19.3843 7.37927 19.3566 7.31826C19.3387 7.28014 19.3203 7.2423 19.3019 7.20303C19.2924 7.18242 19.2831 7.1613 19.2736 7.14053C19.2687 7.13077 19.2638 7.121 19.2589 7.11123C19.2346 7.06311 19.2097 7.0153 19.1847 6.96572C19.1502 6.89673 19.1505 6.89646 19.1153 6.82608C19.1027 6.8008 19.0901 6.77546 19.0773 6.7499C18.9377 6.4912 18.7842 6.2466 18.5968 6.00479C18.5651 5.9635 18.5328 5.92232 18.5001 5.87979C17.7765 4.97596 16.8344 4.32458 15.7208 3.93643C15.689 3.92521 15.6569 3.91478 15.6241 3.90322C14.8325 3.64319 14.0605 3.63815 13.2325 3.64151C13.1078 3.64153 12.9823 3.64158 12.8575 3.64151C12.5972 3.64151 12.3366 3.64159 12.0763 3.64248C11.7447 3.64359 11.4127 3.64379 11.0812 3.64346C10.824 3.6433 10.5668 3.64298 10.3097 3.64346C10.1875 3.64365 10.0647 3.64451 9.9425 3.64444C8.16124 3.6443 6.47617 3.97359 5.05773 5.07608C5.02963 5.09791 5.00172 5.11998 4.97277 5.14248C3.48859 6.30563 2.52175 7.92993 2.30968 9.76846C2.24248 11.1011 2.42263 12.3914 3.07336 13.581C3.11961 13.6667 3.11985 13.6672 3.16711 13.7548C3.72187 14.734 4.52395 15.5222 5.47179 16.1581C5.84046 16.41 6.11213 16.6696 6.22863 17.0995C6.24449 17.2516 6.24794 17.4038 6.25011 17.5565C6.2511 17.5994 6.25203 17.6423 6.25304 17.6864C6.25607 17.8228 6.25851 17.9592 6.26086 18.0956C6.2628 18.1883 6.26469 18.2812 6.26672 18.3739C6.27158 18.6007 6.27544 18.8278 6.27941 19.0546C6.58956 18.8948 6.88564 18.7228 7.17687 18.5331C7.25732 18.4812 7.33763 18.4288 7.41808 18.3769C7.4577 18.3512 7.49739 18.3252 7.5382 18.2987C7.73727 18.1699 7.93796 18.0426 8.13781 17.9149C8.30192 17.81 8.46565 17.7045 8.62902 17.5985C8.68119 17.5648 8.68142 17.5645 8.73449 17.5302C8.80131 17.487 8.86806 17.4428 8.93468 17.3993C9.13996 17.2668 9.29162 17.1922 9.53918 17.1913C9.58094 17.191 9.62311 17.1906 9.66613 17.1903C9.71179 17.1903 9.75776 17.1904 9.8048 17.1903C9.87722 17.19 9.87765 17.1897 9.95129 17.1894C10.0565 17.1888 10.1625 17.1887 10.2677 17.1884C10.4347 17.1878 10.6017 17.1865 10.7687 17.1855C11.2442 17.1824 11.7199 17.1793 12.1954 17.1776C12.4864 17.1766 12.7776 17.1749 13.0685 17.1728C13.1787 17.1721 13.2893 17.1719 13.3995 17.1718C14.181 17.1705 14.9319 17.136 15.673 16.871C15.7083 16.8586 15.744 16.8457 15.7804 16.8329C16.437 16.5943 17.095 16.2543 17.589 15.7675C17.6802 15.6827 17.6807 15.6825 17.7823 15.6825C17.796 15.6532 17.8093 15.6238 17.8234 15.5937C17.8848 15.4854 17.9421 15.4278 18.0372 15.3466C18.6972 14.7259 19.1257 13.8808 19.4474 13.0605C19.5181 12.8843 19.5487 12.8087 19.7169 12.7011C19.8694 12.6903 20.0175 12.6849 20.17 12.6845C20.2144 12.6842 20.2591 12.6838 20.3048 12.6835C20.3988 12.683 20.4931 12.6825 20.587 12.6825C20.7308 12.6823 20.8749 12.6814 21.0187 12.6796C21.1098 12.6793 21.201 12.6787 21.2921 12.6786C21.3351 12.6779 21.3787 12.6774 21.423 12.6767C21.7217 12.6789 21.722 12.6784 21.88 12.7938C22.014 12.9739 22.0136 13.0846 21.9845 13.3056C21.9312 13.5471 21.8188 13.7627 21.7081 13.9843C21.6832 14.0352 21.6577 14.0861 21.632 14.1386C21.2653 14.88 20.8956 15.6132 20.378 16.2694C20.3466 16.3105 20.3148 16.3512 20.2823 16.3935C19.5912 17.2622 18.6795 17.9522 17.6808 18.4687C17.6486 18.4854 17.6163 18.5021 17.5831 18.5194C16.2924 19.1796 14.902 19.3537 13.4611 19.3563C13.3094 19.3567 13.1576 19.3574 13.006 19.3583C12.5751 19.3608 12.1439 19.3634 11.713 19.3642C11.4484 19.3647 11.1837 19.366 10.9191 19.3681C10.8186 19.3687 10.7177 19.3692 10.6173 19.369C10.477 19.3689 10.3367 19.3696 10.1964 19.371C10.1555 19.3707 10.1145 19.3704 10.0724 19.37C9.78485 19.3746 9.62332 19.4392 9.3839 19.5927C9.32476 19.6288 9.32436 19.629 9.26379 19.6659C9.21074 19.7002 9.21061 19.7002 9.15636 19.7353C9.11541 19.7616 9.07453 19.7882 9.03234 19.8153C8.98889 19.8434 8.94527 19.8723 8.9005 19.9013C8.80505 19.9627 8.70887 20.0235 8.61339 20.0849C8.53983 20.1322 8.53978 20.1324 8.46496 20.1806C8.07882 20.4286 7.69051 20.675 7.30285 20.9208C7.20473 20.9831 7.10694 21.0459 7.0089 21.1083C6.86385 21.2006 6.71858 21.2926 6.57336 21.3847C6.53009 21.4123 6.4861 21.4392 6.44152 21.4677C5.56685 22.0208 5.56679 22.0209 5.05773 21.9872C4.78232 21.8953 4.60828 21.727 4.44738 21.4989C4.35123 21.306 4.33112 21.1465 4.32629 20.9335C4.32459 20.8697 4.32315 20.8059 4.3214 20.7401C4.32072 20.7064 4.32015 20.6724 4.31945 20.6376C4.3173 20.531 4.31454 20.4239 4.31164 20.3173C4.30455 20.0527 4.29819 19.788 4.29211 19.5233C4.28692 19.2994 4.28161 19.0754 4.2755 18.8515C4.27281 18.7465 4.26979 18.641 4.26769 18.536C4.26599 18.4724 4.26456 18.4083 4.26281 18.3427C4.2609 18.2589 4.26085 18.2585 4.2589 18.1728C4.24384 18.0319 4.22288 17.9499 4.14172 17.8329C4.01089 17.748 4.01091 17.7477 3.85265 17.6679C3.44851 17.4444 3.12756 17.1456 2.79699 16.8329C2.73326 16.7733 2.66776 16.7153 2.60168 16.6581C1.50584 15.6922 0.664218 14.0556 0.273551 12.7011C0.258729 12.6537 0.2439 12.6063 0.228629 12.5575C0.0204058 11.8431 -0.00188251 11.0862 0.000113663 10.3485C0.000141257 10.3096 8.52329e-05 10.2705 0.000113663 10.2304C0.00638144 8.30975 0.650496 6.48337 1.90246 4.97842C1.9563 4.9118 1.95684 4.91169 2.01183 4.84365C3.41017 3.14839 5.55409 1.92532 7.77453 1.5751C7.81216 1.5691 7.85003 1.56371 7.88879 1.55752C8.66296 1.4422 9.44355 1.45036 10.2247 1.44912C10.284 1.44899 10.3434 1.44927 10.4044 1.44912C10.7179 1.4484 11.0314 1.44836 11.3448 1.44815C11.6658 1.44788 11.9877 1.44661 12.3087 1.44522C12.5581 1.4443 12.8074 1.44334 13.0568 1.44326C13.1748 1.44312 13.2932 1.44294 13.4112 1.44229Z" fill="#0B6DFF"/>
<path d="M17.0241 5.96304C17.1847 5.92335 17.3298 6.06544 17.2853 6.21879L16.1375 10.178C16.0931 10.3313 15.8924 10.381 15.7763 10.2674L14.9663 9.47416L11.6353 12.596C11.231 12.9749 10.5834 12.9673 10.1888 12.579L9.16192 11.5687L6.31366 14.2379C5.95192 14.5769 5.37252 14.5701 5.0195 14.2227C4.66648 13.8753 4.67353 13.3189 5.03525 12.9799L8.46136 9.76901C8.86566 9.39012 9.51327 9.39773 9.90784 9.78595L10.9347 10.7964L13.6846 8.21921L12.7796 7.33326C12.6636 7.2196 12.7191 7.02786 12.8797 6.98816L17.0241 5.96304Z" fill="#0B6DFF"/>
</svg>
