<svg width="39" height="40" viewBox="0 0 39 40" fill="none" xmlns="http://www.w3.org/2000/svg">
<path fill-rule="evenodd" clip-rule="evenodd" d="M18.4827 23.667C18.0141 23.667 17.6392 23.2687 17.6392 22.8V17.1527C17.6392 16.684 18.0141 16.3091 18.4827 16.3091C18.9748 16.3091 19.3498 16.684 19.3498 17.1527V22.8C19.3498 23.2687 18.9748 23.667 18.4827 23.667Z" fill="white"/>
<path fill-rule="evenodd" clip-rule="evenodd" d="M19.8184 20.8551H18.4827C18.0141 20.8551 17.6392 20.4567 17.6392 19.9881V17.1527C17.6392 16.684 18.0141 16.3091 18.4827 16.3091H19.8184C21.0135 16.3091 21.9977 17.2698 21.9977 18.4883V18.6758C21.9977 19.8709 21.0135 20.8551 19.8184 20.8551ZM19.3498 19.121H19.8184C20.0528 19.121 20.2636 18.9101 20.2636 18.6758V18.4883C20.2636 18.2306 20.0528 18.0197 19.8184 18.0197H19.3498V19.121Z" fill="white"/>
<path fill-rule="evenodd" clip-rule="evenodd" d="M20.9194 23.6437C20.6382 23.6437 20.3804 23.5031 20.2164 23.2687L18.2715 20.4568C17.9903 20.0584 18.084 19.5195 18.4824 19.2617C18.8807 18.9805 19.4197 19.0742 19.6774 19.4726L21.6224 22.2845C21.9036 22.6829 21.8098 23.2219 21.4115 23.4796C21.2709 23.5968 21.0834 23.6437 20.9194 23.6437Z" fill="white"/>
<path fill-rule="evenodd" clip-rule="evenodd" d="M14.0539 23.6906C13.2572 23.6906 12.5073 23.386 11.8981 22.8001C10.5624 21.4879 10.3749 19.2618 11.4997 17.7152C12.0621 16.9185 12.9057 16.4264 13.7961 16.3561C14.6866 16.2624 15.5536 16.5904 16.2332 17.2465C16.5612 17.5746 16.5847 18.1136 16.2332 18.465C15.9051 18.7931 15.3661 18.8165 15.0147 18.465C14.71 18.1839 14.3351 18.0433 13.9602 18.0667C13.5384 18.0901 13.1635 18.3245 12.9057 18.7228C12.2964 19.5664 12.3902 20.8552 13.0932 21.5582C13.3978 21.8628 13.7961 22.0034 14.1711 21.9566C14.5694 21.9331 14.9444 21.6988 15.2256 21.3239C15.5067 20.9255 16.0457 20.8318 16.4441 21.113C16.819 21.3942 16.9127 21.9331 16.6315 22.3315C16.0691 23.1048 15.2256 23.5969 14.3351 23.6906C14.2414 23.6906 14.1476 23.6906 14.0539 23.6906Z" fill="white"/>
<path fill-rule="evenodd" clip-rule="evenodd" d="M27.3166 23.6439C26.8479 23.6439 26.4496 23.2689 26.4496 22.8003V20.3867C26.309 20.621 26.0278 20.7616 25.7232 20.7616C25.442 20.7616 25.1608 20.621 24.9967 20.3867V22.8003C24.9967 23.2689 24.6218 23.6439 24.1532 23.6439C23.6611 23.6439 23.2861 23.2689 23.2861 22.8003V17.1529C23.2861 16.778 23.5439 16.4265 23.9188 16.3328C24.2937 16.2391 24.6921 16.4031 24.903 16.7312L25.7232 18.184L26.5667 16.7312C26.7776 16.4031 27.176 16.2391 27.5509 16.3328C27.9259 16.4265 28.1836 16.778 28.1836 17.1529V22.8003C28.1836 23.2689 27.7853 23.6439 27.3166 23.6439Z" fill="white"/>
<path fill-rule="evenodd" clip-rule="evenodd" d="M23.6144 40H15.3191C15.1317 40 14.9208 39.9063 14.8036 39.7422C14.663 39.6016 14.5927 39.3907 14.6396 39.1798L15.202 35.29C12.6244 34.5636 10.2811 33.2279 8.35956 31.3298L5.28985 33.7903C5.12582 33.9074 4.91492 33.9543 4.70403 33.9309C4.51656 33.884 4.3291 33.7668 4.23537 33.5794L0.0877407 26.4089C-0.00599102 26.2214 -0.0294239 26.0105 0.0408748 25.8231C0.0877407 25.6122 0.251771 25.4716 0.439235 25.4013L4.09477 23.9484C3.76671 22.6596 3.60268 21.324 3.60268 19.9883C3.60268 18.6526 3.76671 17.3404 4.09477 16.0516L0.439235 14.5987C0.251771 14.5284 0.0877407 14.3644 0.0408748 14.1769C-0.0294239 13.9895 -0.00599102 13.7786 0.0877407 13.5911L4.23537 6.39719C4.3291 6.23316 4.51656 6.11599 4.70403 6.06913C4.91492 6.02226 5.12582 6.06913 5.28985 6.20972L8.35956 8.64675C10.2811 6.77211 12.6244 5.41301 15.202 4.71002L14.6396 0.820152C14.5927 0.609256 14.663 0.39836 14.8036 0.257762C14.9208 0.0937317 15.1317 0 15.3191 0H23.6144C23.8253 0 24.0128 0.0937317 24.1534 0.257762C24.294 0.39836 24.3408 0.609256 24.3174 0.820152L23.7316 4.71002C26.3092 5.41301 28.6525 6.77211 30.574 8.64675L33.6671 6.20972C33.8312 6.06913 34.042 6.02226 34.2295 6.06913C34.4404 6.11599 34.6044 6.23316 34.7216 6.39719L38.8692 13.5911C38.963 13.7786 38.9864 13.9895 38.9161 14.1769C38.8458 14.3644 38.7052 14.5284 38.5177 14.5987L34.8622 16.0516C35.1903 17.3404 35.3543 18.6526 35.3543 19.9883C35.3543 21.324 35.1903 22.6596 34.8622 23.9484L38.5177 25.4013C38.7052 25.4716 38.8458 25.6122 38.9161 25.8231C38.9864 26.0105 38.963 26.2214 38.8692 26.4089L34.7216 33.5794C34.6044 33.7668 34.4404 33.884 34.2295 33.9309C34.042 33.9543 33.8312 33.9074 33.6671 33.7903L30.574 31.3298C28.6525 33.2279 26.3092 34.5636 23.7316 35.29L24.3174 39.1798C24.3408 39.3907 24.294 39.6016 24.1534 39.7422C24.0128 39.9063 23.8253 40 23.6144 40ZM19.4668 30.9549C13.4211 30.9549 8.52359 26.034 8.52359 19.9883C8.52359 13.9426 13.4211 9.04511 19.4668 9.04511C25.5125 9.04511 30.4334 13.9426 30.4334 19.9883C30.4334 26.034 25.5125 30.9549 19.4668 30.9549Z" fill="white"/>
</svg>
