<svg width="19" height="19" viewBox="0 0 19 19" fill="none" xmlns="http://www.w3.org/2000/svg">
<path d="M10.8203 9.05369L17.733 2.14101C18.2322 1.64176 18.2322 0.873686 17.733 0.374437C17.2337 -0.124812 16.4656 -0.124812 15.9664 0.374437L9.05369 7.28712L2.14101 0.374437C1.64176 -0.124812 0.873686 -0.124812 0.374437 0.374437C-0.0864086 0.873686 -0.0864086 1.64176 0.374437 2.14101L7.28712 9.05369L0.374437 15.9664C-0.124812 16.4656 -0.124812 17.2337 0.374437 17.733C0.60486 17.9634 0.950494 18.0786 1.25772 18.0786C1.56495 18.0786 1.91059 17.9634 2.14101 17.733L9.05369 10.8203L15.9664 17.733C16.1968 17.9634 16.5424 18.0786 16.8497 18.0786C17.1569 18.0786 17.5025 17.9634 17.733 17.733C18.2322 17.2337 18.2322 16.4656 17.733 15.9664L10.8203 9.05369Z" fill="#FF5656"/>
</svg>
