<svg width="20" height="20" viewBox="0 0 20 20" fill="none" xmlns="http://www.w3.org/2000/svg">
<path d="M15.8327 4.16696H14.9993V2.5003C14.9993 2.27928 14.9116 2.06732 14.7553 1.91104C14.599 1.75476 14.387 1.66696 14.166 1.66696C13.945 1.66696 13.733 1.75476 13.5768 1.91104C13.4205 2.06732 13.3327 2.27928 13.3327 2.5003V4.16696H6.66602V2.5003C6.66602 2.27928 6.57822 2.06732 6.42194 1.91104C6.26566 1.75476 6.0537 1.66696 5.83268 1.66696C5.61167 1.66696 5.39971 1.75476 5.24343 1.91104C5.08715 2.06732 4.99935 2.27928 4.99935 2.5003V4.16696H4.16602C3.50297 4.16696 2.86709 4.43035 2.39825 4.8992C1.92941 5.36804 1.66602 6.00392 1.66602 6.66696V7.5003H18.3327V6.66696C18.3327 6.00392 18.0693 5.36804 17.6005 4.8992C17.1316 4.43035 16.4957 4.16696 15.8327 4.16696Z" fill="#011448"/>
<path d="M1.66602 15.8336C1.66602 16.4967 1.92941 17.1325 2.39825 17.6014C2.86709 18.0702 3.50297 18.3336 4.16602 18.3336H15.8327C16.4957 18.3336 17.1316 18.0702 17.6005 17.6014C18.0693 17.1325 18.3327 16.4967 18.3327 15.8336V9.16695H1.66602V15.8336Z" fill="#011448"/>
</svg>
