<svg width="24" height="24" viewBox="0 0 24 24" fill="none" xmlns="http://www.w3.org/2000/svg">
<path d="M4.64945 15.311H3.0332C2.73491 15.3113 2.4489 15.4299 2.23797 15.6408C2.02704 15.8517 1.90844 16.1377 1.9082 16.436V21.3748C1.90844 21.6731 2.02704 21.9591 2.23797 22.17C2.4489 22.3809 2.73491 22.4995 3.0332 22.4998H4.64945C4.94755 22.4989 5.23319 22.3801 5.44398 22.1693C5.65477 21.9585 5.77358 21.6729 5.77445 21.3748V16.436C5.77358 16.1379 5.65477 15.8523 5.44398 15.6415C5.23319 15.4307 4.94755 15.3119 4.64945 15.311Z" fill="white"/>
<path d="M10.087 10.8452H8.4707C8.1726 10.8461 7.88696 10.9649 7.67617 11.1757C7.46538 11.3865 7.34657 11.6721 7.3457 11.9702V21.3752C7.34658 21.6733 7.46538 21.959 7.67617 22.1697C7.88696 22.3805 8.1726 22.4993 8.4707 22.5002H10.087C10.3852 22.5 10.6713 22.3814 10.8822 22.1704C11.0931 21.9595 11.2117 21.6735 11.212 21.3752V11.9702C11.2117 11.6719 11.0931 11.3859 10.8822 11.175C10.6713 10.9641 10.3852 10.8455 10.087 10.8452Z" fill="white"/>
<path d="M15.5284 5.97022H13.9121C13.7643 5.97002 13.6179 5.99898 13.4814 6.05545C13.3448 6.11192 13.2207 6.19478 13.1162 6.29928C13.0117 6.40379 12.9288 6.52788 12.8723 6.66446C12.8159 6.80104 12.7869 6.94742 12.7871 7.09522V21.3752C12.7873 21.6735 12.906 21.9595 13.1169 22.1704C13.3278 22.3814 13.6138 22.5 13.9121 22.5002H15.5284C15.8265 22.4993 16.1121 22.3805 16.3229 22.1697C16.5337 21.959 16.6525 21.6733 16.6534 21.3752V7.09522C16.6531 6.79692 16.5345 6.51091 16.3236 6.29998C16.1127 6.08905 15.8267 5.97045 15.5284 5.97022Z" fill="white"/>
<path d="M20.9659 1.5H19.3496C19.0515 1.50087 18.7659 1.61968 18.5551 1.83047C18.3443 2.04126 18.2255 2.3269 18.2246 2.625V21.375C18.2255 21.6731 18.3443 21.9587 18.5551 22.1695C18.7659 22.3803 19.0515 22.4991 19.3496 22.5H20.9659C21.2642 22.4998 21.5502 22.3812 21.7611 22.1702C21.972 21.9593 22.0906 21.6733 22.0909 21.375V2.625C22.0906 2.3267 21.972 2.04069 21.7611 1.82976C21.5502 1.61883 21.2642 1.50023 20.9659 1.5Z" fill="white"/>
</svg>
