<svg width="30" height="30" viewBox="0 0 30 30" fill="none" xmlns="http://www.w3.org/2000/svg">
<g clip-path="url(#clip0_1177_4767)">
<path d="M13.5352 26.4844H16.4648V30H13.5352V26.4844Z" fill="#011448"/>
<path d="M18.2227 26.4844V30H27.3047C28.7586 30 29.9414 28.8172 29.9414 27.3633V26.4844H18.2227Z" fill="#011448"/>
<path d="M0.0585938 27.3633C0.0585938 28.8172 1.24143 30 2.69531 30H11.7773V26.4844H0.0585938V27.3633Z" fill="#011448"/>
<path d="M6.78758 7.38281H6.21289C6.21377 7.88244 6.21482 8.56248 6.21482 8.84314C6.21482 9.17801 6.2167 9.82969 6.21822 10.3094C6.44076 10.3079 6.67355 10.3059 6.81131 10.3035C7.53436 10.2909 7.85797 9.5632 7.85797 8.84766C7.85791 8.504 7.78074 7.38281 6.78758 7.38281Z" fill="#011448"/>
<path d="M22.3242 10.3125C23.1332 10.3125 23.7891 9.65667 23.7891 8.84766C23.7891 8.03865 23.1332 7.38281 22.3242 7.38281C21.5152 7.38281 20.8594 8.03865 20.8594 8.84766C20.8594 9.65667 21.5152 10.3125 22.3242 10.3125Z" fill="#011448"/>
<path d="M27.5977 3.22266C27.5977 1.44568 26.152 0 24.375 0H5.625C3.84803 0 2.40234 1.44568 2.40234 3.22266V17.6953H27.5977V3.22266ZM6.83086 11.4752C6.49945 11.481 5.67064 11.4842 5.63555 11.4844C5.63484 11.4844 5.63408 11.4844 5.63332 11.4844C5.47869 11.4844 5.33033 11.4233 5.22053 11.3143C5.11025 11.2048 5.04797 11.0559 5.04738 10.9005C5.04738 10.9005 5.04205 9.41338 5.04205 8.84314C5.04205 8.37557 5.03906 6.79799 5.03906 6.79799C5.03877 6.64236 5.10035 6.49307 5.21027 6.38297C5.3202 6.27287 5.46943 6.21094 5.625 6.21094H6.78668C8.12783 6.21094 9.02894 7.27055 9.02894 8.84766C9.02889 10.3479 8.10451 11.453 6.83086 11.4752ZM12.2063 8.26172C12.5299 8.26172 12.7922 8.52404 12.7922 8.84766C12.7922 9.17127 12.5299 9.43359 12.2063 9.43359H11.1914V10.3125H12.3337C12.6573 10.3125 12.9196 10.5748 12.9196 10.8984C12.9196 11.2221 12.6573 11.4844 12.3337 11.4844H10.6055C10.2819 11.4844 10.0195 11.2221 10.0195 10.8984V6.79688C10.0195 6.47326 10.2819 6.21094 10.6055 6.21094H12.3337C12.6573 6.21094 12.9196 6.47326 12.9196 6.79688C12.9196 7.12049 12.6573 7.38281 12.3337 7.38281H11.1914V8.26172H12.2063ZM18.7366 11.442C18.4188 11.5027 18.1118 11.2942 18.0511 10.9764L17.6775 9.02156L17.1149 10.9951C17.1129 11.0018 17.111 11.0085 17.1088 11.0152C17.0183 11.2944 16.7603 11.4829 16.4668 11.4844C16.4657 11.4844 16.4644 11.4844 16.4633 11.4844C16.1713 11.4844 15.9131 11.2989 15.82 11.022C15.8177 11.015 15.8155 11.0081 15.8135 11.0012L15.2306 9.02572L14.8796 10.9706C14.8221 11.2891 14.5174 11.5007 14.1989 11.4431C13.8804 11.3856 13.6689 11.0808 13.7264 10.7624L14.4473 6.76822C14.4477 6.766 14.4481 6.76383 14.4485 6.7616C14.5067 6.45908 14.7621 6.23338 15.0694 6.21275C15.377 6.19184 15.6601 6.38168 15.7581 6.67377C15.7605 6.68068 15.7627 6.6876 15.7647 6.69451L16.4552 9.0348L17.1207 6.70031C17.1226 6.69357 17.1247 6.68684 17.1268 6.68016C17.2218 6.38719 17.5027 6.19371 17.8104 6.21205C18.1179 6.22934 18.3756 6.45223 18.4372 6.75398C18.4376 6.75633 18.4381 6.75873 18.4386 6.76107L19.2021 10.7565C19.2629 11.0743 19.0545 11.3812 18.7366 11.442ZM22.3242 11.4844C20.8703 11.4844 19.6875 10.3015 19.6875 8.84766C19.6875 7.39377 20.8703 6.21094 22.3242 6.21094C23.7781 6.21094 24.9609 7.39377 24.9609 8.84766C24.9609 10.3015 23.7781 11.4844 22.3242 11.4844Z" fill="#011448"/>
<path d="M27.9388 19.4531H2.0625L0.304688 24.7266H29.6966L27.9388 19.4531ZM7.09049 22.9688H5.33268C4.84728 22.9688 4.45377 22.5752 4.45377 22.0898C4.45377 21.6045 4.84728 21.2109 5.33268 21.2109H7.09049C7.57588 21.2109 7.96939 21.6045 7.96939 22.0898C7.96939 22.5752 7.57588 22.9688 7.09049 22.9688ZM18.5163 22.9688H11.485C10.9996 22.9688 10.6061 22.5752 10.6061 22.0898C10.6061 21.6045 10.9996 21.2109 11.485 21.2109H18.5163C19.0017 21.2109 19.3952 21.6045 19.3952 22.0898C19.3952 22.5752 19.0017 22.9688 18.5163 22.9688ZM24.6686 22.9688H22.9108C22.4254 22.9688 22.0319 22.5752 22.0319 22.0898C22.0319 21.6045 22.4254 21.2109 22.9108 21.2109H24.6686C25.154 21.2109 25.5475 21.6045 25.5475 22.0898C25.5475 22.5752 25.154 22.9688 24.6686 22.9688Z" fill="#011448"/>
</g>
<defs>
<clipPath id="clip0_1177_4767">
<rect width="30" height="30" fill="white"/>
</clipPath>
</defs>
</svg>
