<svg width="24" height="24" viewBox="0 0 24 24" fill="none" xmlns="http://www.w3.org/2000/svg">
<path d="M13.0696 18.3484C13.0701 18.1115 13.168 17.879 13.3363 17.7119L14.7506 16.2971C14.9227 16.1248 15.1495 16.03 15.3897 16.03C15.6227 16.03 15.8409 16.1202 16.0036 16.2834L16.9883 17.2682L17.9863 16.2705C17.2823 13.7447 15.2476 15.3066 12.4821 13.1699C12.467 13.738 11.2403 14.1971 9.72714 14.1971C8.21418 14.1971 6.9873 13.738 6.97242 13.1699C3.51522 15.8411 1.19922 12.7302 1.19922 19.0545C1.19922 20.7875 5.82426 21.6213 9.7101 21.6213C9.71586 21.6213 9.72186 21.621 9.72714 21.621C9.7329 21.621 9.7389 21.6213 9.74418 21.6213C11.6529 21.6213 13.7387 21.4194 15.3683 21.0093L13.3226 18.9638C13.1589 18.8001 13.0691 18.5817 13.0696 18.3484Z" fill="#0B6DFF"/>
<path d="M6.00185 9.54242C6.30569 10.3699 6.76793 11.1747 7.33721 11.8063C7.48529 11.9705 7.64225 12.1188 7.80377 12.2571C7.84793 12.2947 7.89041 12.3355 7.93553 12.3713C8.48201 12.8023 9.09497 13.0692 9.74369 13.0692C10.3886 13.0692 10.9977 12.8057 11.5418 12.3795C11.5785 12.3507 11.6133 12.3168 11.6493 12.2866C11.8183 12.1452 11.9817 11.9916 12.1358 11.8215C12.713 11.1857 13.1817 10.3719 13.4879 9.53546C13.7447 9.45938 14.014 8.97218 14.1239 8.3501C14.243 7.67378 14.1302 7.08386 13.8717 6.98738C13.8595 6.76778 13.8391 6.54578 13.8086 6.32378C13.7044 4.4117 13.1203 3.55706 12.2572 3.17546C11.6459 2.68466 10.8283 2.37842 9.74321 2.37842C8.66129 2.37842 7.84649 2.67698 7.23785 3.15674C6.28697 3.55586 5.66465 4.50674 5.62913 6.7625C5.62337 6.83426 5.61881 6.90554 5.61449 6.97682C5.33249 7.03178 5.20433 7.64426 5.32889 8.3501C5.44433 9.00194 5.73449 9.50426 6.00185 9.54242Z" fill="#0B6DFF"/>
<path d="M22.7201 15.6315L21.3053 14.2164C21.2533 14.1643 21.1856 14.1377 21.1198 14.1377C21.061 14.1377 21.0039 14.1593 20.9602 14.2027L16.988 18.175L15.5499 16.7367C15.5062 16.6927 15.4486 16.6714 15.3896 16.6714C15.3241 16.6714 15.2566 16.6978 15.2045 16.7501L13.79 18.1651C13.6909 18.2635 13.6837 18.4176 13.7758 18.51L16.8221 21.5563C16.8627 21.5967 16.915 21.6147 16.9688 21.618C16.975 21.6185 16.981 21.6209 16.9873 21.6211C16.9952 21.6209 17.0029 21.618 17.0115 21.6173C17.0641 21.6132 17.1149 21.5957 17.1545 21.5563L22.734 15.9763C22.8262 15.8847 22.8193 15.7308 22.7201 15.6315Z" fill="#0B6DFF"/>
</svg>
