<svg width="45" height="45" viewBox="0 0 45 45" fill="none" xmlns="http://www.w3.org/2000/svg">
<g clip-path="url(#clip0_933_614)">
<path d="M27.8721 0C18.4221 0 10.751 7.66406 10.751 17.1211C10.751 21.1359 12.1361 24.8273 14.4564 27.7523L11.7916 30.4031L10.2869 28.8984L0.787695 38.4047C-0.259961 39.4523 -0.259961 41.1469 0.787695 42.1945L2.80566 44.2125C3.85332 45.2602 5.54785 45.2602 6.59551 44.2125L16.1018 34.7063L14.59 33.2016L17.2479 30.5437C20.1658 32.8641 23.8572 34.2492 27.8721 34.2492C37.3291 34.2422 45.0002 26.5781 45.0002 17.1211C45.0002 7.66406 37.3291 0 27.8721 0ZM27.8721 30.3539C20.5666 30.3539 14.6393 24.4266 14.6393 17.1211C14.6393 9.80859 20.5666 3.88828 27.8721 3.88828C35.1846 3.88828 41.1049 9.80859 41.1049 17.1211C41.1049 24.4266 35.1846 30.3539 27.8721 30.3539Z" fill="white"/>
<path d="M34.5308 13.2117V27.7242C35.8245 26.9156 36.9636 25.8679 37.8847 24.6445V13.2117H34.5308Z" fill="white"/>
<path d="M28.8564 29.6085C30.0307 29.5242 31.1557 29.264 32.2174 28.8773V10.7625H28.8564V29.6085Z" fill="white"/>
<path d="M23.1895 28.7437C24.2441 29.1726 25.3691 29.4539 26.5434 29.5804V16.407H23.1895V28.7437Z" fill="white"/>
<path d="M17.5151 24.1593C18.4081 25.4741 19.5472 26.6062 20.862 27.4991V18.3374H17.5151V24.1593Z" fill="white"/>
</g>
<defs>
<clipPath id="clip0_933_614">
<rect width="45" height="45" fill="white"/>
</clipPath>
</defs>
</svg>
