<svg width="240" height="326" viewBox="0 0 240 326" fill="none" xmlns="http://www.w3.org/2000/svg">
<rect width="317.574" height="325.647" rx="158.787" fill="#0B6DFF" fill-opacity="0.7"/>
<path fill-rule="evenodd" clip-rule="evenodd" d="M183.101 62.9674C207.19 62.84 229.014 70.5333 246.663 87.1471C247.11 87.5591 247.557 87.9715 248.018 88.3961C256.247 96.2349 267.417 110.473 268.319 122.209C268.326 122.688 268.335 123.167 268.343 123.661C268.356 124.14 268.369 124.619 268.383 125.113C268.173 126.806 267.945 127.353 266.675 128.512C265.091 128.719 263.692 128.799 262.108 128.784C261.659 128.786 261.21 128.788 260.748 128.79C259.8 128.791 258.851 128.787 257.903 128.779C256.452 128.768 255.002 128.779 253.551 128.792C252.629 128.79 251.708 128.788 250.786 128.784C250.353 128.788 249.919 128.792 249.473 128.796C246.476 128.749 246.475 128.749 244.901 127.606C244.873 127.567 244.847 127.528 244.82 127.489H244.611C244.411 127.076 244.211 126.663 244.011 126.25C243.651 125.652 243.33 125.042 243.031 124.363C242.851 123.963 242.67 123.563 242.484 123.151C242.385 122.928 242.286 122.705 242.186 122.48C242.139 122.384 242.093 122.287 242.046 122.191C241.801 121.688 241.557 121.185 241.305 120.667C240.958 119.946 240.957 119.946 240.603 119.211C240.437 118.869 240.271 118.526 240.103 118.178C238.728 115.564 237.208 113.091 235.374 110.638C235.054 110.206 234.734 109.775 234.404 109.33C227.109 99.885 217.611 93.0857 206.383 89.0299C206.061 88.9122 205.74 88.7946 205.408 88.6734C197.426 85.9556 189.638 85.905 181.289 85.94C180.032 85.9403 178.773 85.9398 177.516 85.9391C174.891 85.9391 172.266 85.9444 169.641 85.9537C166.297 85.9653 162.952 85.9659 159.609 85.9625C157.014 85.9608 154.42 85.9643 151.826 85.9693C150.594 85.9713 149.362 85.9721 148.13 85.9713C130.17 85.9693 113.184 89.4152 98.883 100.935C98.5993 101.164 98.3149 101.392 98.0226 101.628C83.0597 113.781 73.312 130.751 71.174 149.961C70.4965 163.884 72.3099 177.366 78.8703 189.795C79.3374 190.692 79.3381 190.692 79.8146 191.607C85.4076 201.84 93.4938 210.075 103.051 216.72C106.77 219.354 109.511 222.067 110.685 226.563C110.845 228.152 110.875 229.735 110.897 231.331C110.907 231.78 110.917 232.229 110.927 232.692C110.957 234.117 110.981 235.543 111.005 236.968C111.025 237.938 111.045 238.908 111.066 239.879C111.115 242.249 111.157 244.62 111.197 246.991C114.325 245.321 117.305 243.515 120.241 241.533C121.053 240.99 121.865 240.446 122.677 239.903C123.077 239.634 123.477 239.365 123.889 239.088C125.896 237.743 127.912 236.41 129.927 235.076C131.583 233.978 133.236 232.877 134.884 231.768C135.41 231.415 135.41 231.415 135.947 231.055C136.621 230.604 137.294 230.15 137.966 229.696C140.037 228.31 141.564 227.523 144.063 227.514C144.485 227.511 144.907 227.508 145.342 227.505C145.803 227.505 146.265 227.505 146.74 227.504C147.471 227.501 147.471 227.501 148.217 227.497C149.278 227.491 150.339 227.486 151.4 227.483C153.085 227.477 154.771 227.467 156.457 227.456C161.251 227.424 166.046 227.397 170.84 227.379C173.773 227.369 176.706 227.35 179.639 227.328C180.75 227.321 181.862 227.317 182.974 227.315C190.855 227.302 198.428 226.94 205.902 224.17C206.259 224.04 206.616 223.91 206.985 223.776C213.606 221.282 220.238 217.727 225.218 212.639C226.138 211.754 226.138 211.754 227.164 211.754C227.302 211.447 227.439 211.14 227.581 210.824C228.2 209.693 228.771 209.092 229.73 208.243C236.384 201.758 240.703 192.931 243.946 184.359C244.66 182.517 244.967 181.728 246.663 180.602C248.202 180.489 249.692 180.434 251.232 180.43C251.68 180.427 252.128 180.423 252.59 180.42C253.538 180.414 254.487 180.413 255.436 180.413C256.886 180.41 258.337 180.392 259.787 180.373C260.709 180.37 261.63 180.368 262.552 180.367C262.985 180.359 263.42 180.352 263.866 180.344C266.879 180.368 266.879 180.368 268.472 181.574C269.823 183.456 269.82 184.609 269.527 186.919C268.989 189.442 267.855 191.693 266.739 194.007C266.488 194.539 266.236 195.072 265.977 195.62C262.28 203.367 258.553 211.024 253.334 217.881C253.016 218.311 252.697 218.741 252.369 219.184C245.402 228.261 236.206 235.466 226.138 240.862C225.813 241.037 225.489 241.213 225.154 241.394C212.141 248.292 198.124 250.113 183.596 250.141C182.066 250.145 180.537 250.152 179.007 250.162C174.662 250.188 170.317 250.213 165.973 250.221C163.304 250.226 160.636 250.241 157.967 250.262C156.955 250.269 155.942 250.271 154.93 250.27C153.515 250.269 152.101 250.28 150.687 250.295C150.273 250.291 149.858 250.288 149.432 250.285C146.533 250.332 144.912 251.004 142.498 252.608C141.898 252.987 141.898 252.988 141.286 253.375C140.749 253.734 140.749 253.734 140.2 254.101C139.786 254.377 139.372 254.654 138.945 254.938C138.507 255.232 138.067 255.527 137.615 255.83C136.653 256.471 135.691 257.113 134.729 257.754C133.986 258.25 133.985 258.25 133.228 258.755C129.335 261.347 125.426 263.915 121.518 266.484C120.528 267.135 119.537 267.787 118.548 268.44C117.085 269.405 115.621 270.368 114.156 271.33C113.72 271.618 113.284 271.907 112.834 272.204C104.015 277.984 104.015 277.984 98.883 277.631C96.1036 276.672 94.3479 274.909 92.7248 272.525C91.7554 270.509 91.5528 268.845 91.5041 266.62C91.4869 265.952 91.47 265.284 91.4523 264.595C91.4455 264.241 91.4389 263.887 91.4318 263.522C91.4101 262.408 91.382 261.293 91.3527 260.179C91.2813 257.414 91.2207 254.648 91.1593 251.882C91.107 249.542 91.05 247.2 90.9884 244.86C90.9613 243.764 90.9403 242.667 90.9191 241.571C90.902 240.905 90.885 240.238 90.8674 239.551C90.8481 238.672 90.848 238.671 90.8283 237.774C90.6765 236.301 90.4653 235.446 89.6467 234.223C88.3251 233.335 88.3246 233.335 86.7277 232.5C82.6536 230.165 79.4245 227.045 76.092 223.778C75.4468 223.152 74.7835 222.544 74.1144 221.943C63.0667 211.851 54.5872 194.755 50.6486 180.602C50.4992 180.107 50.3495 179.612 50.1955 179.102C48.0962 171.637 47.8707 163.732 47.8908 156.025C47.8911 155.617 47.8915 155.21 47.8918 154.79C47.9545 134.721 54.4462 115.639 67.0685 99.9137C67.6121 99.2167 67.6125 99.2166 68.1672 98.5055C82.2648 80.7908 103.883 68.0171 126.271 64.358C126.652 64.295 127.033 64.2315 127.425 64.1666C135.23 62.9616 143.093 63.0545 150.969 63.0416C151.567 63.0401 152.165 63.0382 152.78 63.0367C155.943 63.0291 159.105 63.0243 162.268 63.0221C165.504 63.0193 168.74 63.0073 171.976 62.9928C174.492 62.9832 177.009 62.9808 179.526 62.9801C180.717 62.9785 181.909 62.9742 183.101 62.9674Z" fill="white"/>
<path d="M219.524 110.195C221.142 109.781 222.605 111.265 222.157 112.868L210.585 154.235C210.137 155.837 208.114 156.356 206.944 155.169L198.777 146.881L165.196 179.499C161.12 183.458 154.591 183.379 150.613 179.322L140.26 168.766L111.545 196.655C107.898 200.197 102.057 200.125 98.498 196.496C94.939 192.866 95.01 187.053 98.6567 183.511L133.197 149.962C137.273 146.003 143.802 146.082 147.78 150.139L158.132 160.696L185.856 133.769L176.733 124.512C175.562 123.325 176.123 121.321 177.741 120.906L219.524 110.195Z" fill="white"/>
</svg>
