<svg width="24" height="24" viewBox="0 0 24 24" fill="none" xmlns="http://www.w3.org/2000/svg">
<path d="M14 8.75C13.59 8.75 13.25 8.41 13.25 8V1.25H7C4.93 1.25 3.25 2.93 3.25 5V19C3.25 21.07 4.93 22.75 7 22.75H17C19.07 22.75 20.75 21.07 20.75 19V8.75H14ZM8 7.25H10C10.41 7.25 10.75 7.59 10.75 8C10.75 8.41 10.41 8.75 10 8.75H8C7.59 8.75 7.25 8.41 7.25 8C7.25 7.59 7.59 7.25 8 7.25ZM16 16.75H8C7.59 16.75 7.25 16.41 7.25 16C7.25 15.59 7.59 15.25 8 15.25H16C16.41 15.25 16.75 15.59 16.75 16C16.75 16.41 16.41 16.75 16 16.75ZM16 12.75H8C7.59 12.75 7.25 12.41 7.25 12C7.25 11.59 7.59 11.25 8 11.25H16C16.41 11.25 16.75 11.59 16.75 12C16.75 12.41 16.41 12.75 16 12.75ZM20.31 7.25H14.75V1.69L20.31 7.25Z" fill="white"/>
</svg>
