<svg width="27" height="21" viewBox="0 0 27 21" fill="none" xmlns="http://www.w3.org/2000/svg">
<path d="M21.5363 7.77C21.195 3.42844 17.5528 0 13.125 0C9.3375 0 6.08625 2.46 5.03719 6.04781C2.04469 7.08656 0 9.92156 0 13.125C0 17.2603 3.36469 20.625 7.5 20.625H19.6875C23.3062 20.625 26.25 17.6812 26.25 14.0625C26.25 11.1103 24.3094 8.57625 21.5363 7.77ZM17.5378 12.8503L13.7878 16.6003C13.605 16.7831 13.365 16.875 13.125 16.875C12.885 16.875 12.645 16.7831 12.4622 16.6003L8.71219 12.8503C8.44406 12.5822 8.36344 12.1791 8.50875 11.8284C8.65406 11.4788 8.99625 11.25 9.375 11.25H11.25V7.5C11.25 6.465 12.09 5.625 13.125 5.625C14.16 5.625 15 6.465 15 7.5V11.25H16.875C17.2537 11.25 17.5959 11.4788 17.7412 11.8284C17.8866 12.1791 17.8059 12.5822 17.5378 12.8503Z" fill="#011448"/>
</svg>
