<svg width="30" height="30" viewBox="0 0 30 30" fill="none" xmlns="http://www.w3.org/2000/svg">
<path d="M17.4469 26.0063L14.0906 26.7094C13.8995 26.7502 13.7048 26.7722 13.5094 26.775C12.764 26.7728 12.0497 26.4763 11.5219 25.95C11.1905 25.6195 10.9474 25.2112 10.8148 24.7624C10.6821 24.3136 10.6641 23.8388 10.7625 23.3813L11.4656 20.025C11.574 19.4867 11.8419 18.9934 12.2344 18.6094L21.0562 9.7875C21.2139 9.63118 21.3831 9.48702 21.5625 9.35625V4.6875C21.5603 3.94226 21.2632 3.22819 20.7363 2.70122C20.2093 2.17426 19.4952 1.87723 18.75 1.875H5.625C4.87976 1.87723 4.16569 2.17426 3.63872 2.70122C3.11176 3.22819 2.81473 3.94226 2.8125 4.6875V25.3125C2.81473 26.0577 3.11176 26.7718 3.63872 27.2988C4.16569 27.8257 4.87976 28.1228 5.625 28.125H18.75C19.4952 28.1228 20.2093 27.8257 20.7363 27.2988C21.2632 26.7718 21.5603 26.0577 21.5625 25.3125V22.5375L18.8625 25.2375C18.4784 25.63 17.9852 25.8978 17.4469 26.0063ZM7.5 5.625H16.875C17.1236 5.625 17.3621 5.72377 17.5379 5.89959C17.7137 6.0754 17.8125 6.31386 17.8125 6.5625C17.8125 6.81114 17.7137 7.0496 17.5379 7.22541C17.3621 7.40123 17.1236 7.5 16.875 7.5H7.5C7.25136 7.5 7.0129 7.40123 6.83709 7.22541C6.66127 7.0496 6.5625 6.81114 6.5625 6.5625C6.5625 6.31386 6.66127 6.0754 6.83709 5.89959C7.0129 5.72377 7.25136 5.625 7.5 5.625ZM7.5 9.375H16.875C17.1236 9.375 17.3621 9.47377 17.5379 9.64959C17.7137 9.8254 17.8125 10.0639 17.8125 10.3125C17.8125 10.5611 17.7137 10.7996 17.5379 10.9754C17.3621 11.1512 17.1236 11.25 16.875 11.25H7.5C7.25136 11.25 7.0129 11.1512 6.83709 10.9754C6.66127 10.7996 6.5625 10.5611 6.5625 10.3125C6.5625 10.0639 6.66127 9.8254 6.83709 9.64959C7.0129 9.47377 7.25136 9.375 7.5 9.375ZM6.5625 14.0625C6.5625 13.8139 6.66127 13.5754 6.83709 13.3996C7.0129 13.2238 7.25136 13.125 7.5 13.125H11.25C11.4986 13.125 11.7371 13.2238 11.9129 13.3996C12.0887 13.5754 12.1875 13.8139 12.1875 14.0625C12.1875 14.3111 12.0887 14.5496 11.9129 14.7254C11.7371 14.9012 11.4986 15 11.25 15H7.5C7.25136 15 7.0129 14.9012 6.83709 14.7254C6.66127 14.5496 6.5625 14.3111 6.5625 14.0625Z" fill="#011448"/>
<path d="M26.3644 11.1093C25.8285 10.5979 25.1162 10.3126 24.3755 10.3126C23.6348 10.3126 22.9225 10.5979 22.3866 11.1093L13.5553 19.9396C13.4271 20.068 13.3388 20.2308 13.3013 20.4084L12.5963 23.7656C12.5676 23.902 12.5696 24.0432 12.6024 24.1788C12.6351 24.3143 12.6977 24.4409 12.7855 24.5492C12.8734 24.6575 12.9843 24.7449 13.1101 24.8049C13.236 24.8649 13.3737 24.8961 13.5132 24.8962C13.5781 24.8962 13.6428 24.8893 13.7063 24.8756L17.0635 24.1696C17.241 24.1321 17.4038 24.0438 17.5322 23.9156L26.3625 15.0862C26.6237 14.825 26.831 14.515 26.9723 14.1737C27.1137 13.8324 27.1865 13.4667 27.1865 13.0973C27.1865 12.7279 27.1137 12.3621 26.9723 12.0209C26.831 11.6796 26.6237 11.3696 26.3625 11.1084L26.3644 11.1093Z" fill="#011448"/>
</svg>
