<svg width="45" height="45" viewBox="0 0 45 45" fill="none" xmlns="http://www.w3.org/2000/svg">
<g clip-path="url(#clip0_933_621)">
<path d="M41.25 9.37497H31.875V7.49991C31.875 5.43175 30.1932 3.74988 28.125 3.74988H16.875C14.8068 3.74988 13.125 5.43167 13.125 7.49991V9.37488H3.75003C1.68179 9.37497 0 11.0568 0 13.1249V18.7499C0 20.8182 1.68179 22.4999 3.75003 22.4999H18.7501V21.5624C18.7501 21.0442 19.1694 20.6249 19.6876 20.6249H25.3126C25.8308 20.6249 26.2501 21.0442 26.2501 21.5624V22.4999H41.2501C43.3182 22.4999 45 20.8182 45 18.7499V13.1249C45 11.0568 43.3182 9.37497 41.25 9.37497ZM28.125 9.37497H16.875V7.49991H28.125V9.37497Z" fill="white"/>
<path d="M44.48 23.5117C44.1605 23.3534 43.7787 23.39 43.4966 23.6042C42.8302 24.1087 42.0537 24.3751 41.2499 24.3751H26.25V27.1876C26.25 27.7058 25.8307 28.1251 25.3125 28.1251H19.6875C19.1693 28.1251 18.75 27.7058 18.75 27.1876V24.3751H3.75003C2.94618 24.3751 2.16984 24.1087 1.50328 23.6042C1.22036 23.3882 0.839531 23.3515 0.519961 23.5117C0.201445 23.6702 0 23.9951 0 24.3513V37.5001C0 39.5683 1.68179 41.2502 3.75003 41.2502H41.2501C43.3182 41.2502 45.0001 39.5684 45.0001 37.5001V24.3513C45 23.9951 44.7986 23.6702 44.48 23.5117Z" fill="white"/>
</g>
<defs>
<clipPath id="clip0_933_621">
<rect width="45" height="45" fill="white"/>
</clipPath>
</defs>
</svg>
