<svg width="45" height="45" viewBox="0 0 45 45" fill="none" xmlns="http://www.w3.org/2000/svg">
<g clip-path="url(#clip0_888_723)">
<path d="M11.7051 28.5431C11.0175 27.8557 10.7585 28.2011 10.6056 28.3542C6.64602 32.3137 3.13079 41.8676 4.98915 40.9344C11.7543 37.5376 12.8815 38.549 16.841 34.5897C16.994 34.4366 17.346 34.1843 16.6384 33.4765L11.7051 28.5431Z" fill="white"/>
<path d="M33.0507 28.4901C32.8712 27.9191 33.2471 27.6439 33.4054 27.4731C42.1445 18.0381 47.6986 5.46774 43.5827 1.35158C39.4885 -2.7424 27.3058 2.97398 17.8733 11.6501C17.6867 11.822 17.3189 12.1474 16.6609 12.0101L13.7222 11.3103C12.9062 11.1162 11.7533 11.4424 11.1603 12.0355L0.37697 22.8186C-0.216114 23.4118 -0.0234221 24.0037 0.805219 24.1338L8.60442 25.3594C9.43306 25.4898 10.5962 25.111 11.1892 24.5178C11.1892 24.5178 11.5916 24.1143 11.9959 24.5185C14.2265 26.7489 18.3716 30.8939 20.4968 33.0192C20.9192 33.4415 20.5146 33.8433 20.5146 33.8433C19.9214 34.4365 19.5428 35.5994 19.6732 36.4282L20.8987 44.2272C21.0289 45.0562 21.6208 45.2489 22.2138 44.6556L32.9973 33.8722C33.5902 33.2791 33.9165 32.1265 33.7222 31.3106L33.0507 28.4901ZM30.6364 14.5589C28.81 12.7324 28.81 9.77145 30.6364 7.94528C32.4627 6.11884 35.4237 6.11884 37.2503 7.94528C39.0764 9.77132 39.0764 12.7324 37.2503 14.5587C35.4237 16.3852 32.4626 16.3852 30.6364 14.5589Z" fill="white"/>
</g>
<defs>
<clipPath id="clip0_888_723">
<rect width="45" height="45" fill="white"/>
</clipPath>
</defs>
</svg>
