<svg width="45" height="45" viewBox="0 0 45 45" fill="none" xmlns="http://www.w3.org/2000/svg">
<g clip-path="url(#clip0_888_719)">
<path d="M22.5 31.875C27.6777 31.875 31.875 27.6777 31.875 22.5C31.875 17.3223 27.6777 13.125 22.5 13.125C17.3223 13.125 13.125 17.3223 13.125 22.5C13.125 27.6777 17.3223 31.875 22.5 31.875Z" fill="white"/>
<path d="M43.125 20.625H41.1544C40.2731 11.7806 33.2194 4.72688 24.375 3.84563V1.875C24.375 0.84 23.5369 0 22.5 0C21.4631 0 20.625 0.84 20.625 1.875V3.84563C11.7806 4.72688 4.72688 11.7806 3.84563 20.625H1.875C0.838125 20.625 0 21.465 0 22.5C0 23.535 0.838125 24.375 1.875 24.375H3.84563C4.72875 33.2194 11.7806 40.2731 20.625 41.1544V43.125C20.625 44.16 21.4631 45 22.5 45C23.5369 45 24.375 44.16 24.375 43.125V41.1544C33.2194 40.2712 40.2731 33.2194 41.1544 24.375H43.125C44.1619 24.375 45 23.535 45 22.5C45 21.465 44.1619 20.625 43.125 20.625ZM24.3488 37.3744C24.2812 36.4013 23.4919 35.625 22.5 35.625C21.5081 35.625 20.7188 36.4013 20.6512 37.3744C13.86 36.5344 8.4675 31.1419 7.6275 24.3506C8.60063 24.2812 9.375 23.49 9.375 22.5C9.375 21.51 8.60063 20.7188 7.62562 20.6512C8.46562 13.86 13.8581 8.4675 20.6494 7.6275C20.7188 8.59875 21.5081 9.375 22.5 9.375C23.4919 9.375 24.2812 8.59875 24.3488 7.62562C31.14 8.46562 36.5325 13.8581 37.3725 20.6494C36.3994 20.7188 35.625 21.51 35.625 22.5C35.625 23.49 36.3994 24.2812 37.3744 24.3488C36.5325 31.1419 31.1419 36.5325 24.3488 37.3744Z" fill="white"/>
</g>
<defs>
<clipPath id="clip0_888_719">
<rect width="45" height="45" fill="white"/>
</clipPath>
</defs>
</svg>
