<svg width="45" height="45" viewBox="0 0 45 45" fill="none" xmlns="http://www.w3.org/2000/svg">
<g clip-path="url(#clip0_888_713)">
<path d="M35.8948 25.6666L34.1353 24.6508C34.2911 23.8931 34.3652 23.193 34.3652 22.5C34.3652 21.807 34.2911 21.1069 34.1354 20.3491L35.8949 19.3333C36.1977 19.1585 36.4186 18.8705 36.5092 18.5329C36.5996 18.1951 36.5522 17.8352 36.3774 17.5324L33.7407 12.9655C33.3766 12.3349 32.5704 12.1189 31.9398 12.483L30.1963 13.4896C29.1035 12.5626 27.8352 11.8381 26.4551 11.3527V9.31641C26.4551 8.58832 25.8648 7.99805 25.1367 7.99805H19.8633C19.1352 7.99805 18.5449 8.58832 18.5449 9.31641V11.3527C17.1649 11.8381 15.8964 12.5626 14.8037 13.4896L13.0602 12.483C12.4296 12.1188 11.6233 12.335 11.2593 12.9655L8.62261 17.5324C8.4478 17.8352 8.40042 18.1951 8.49086 18.5329C8.58139 18.8706 8.80235 19.1585 9.10513 19.3333L10.8646 20.3491C10.7088 21.1069 10.6347 21.807 10.6347 22.5C10.6347 23.193 10.7088 23.8931 10.8644 24.6509L9.10495 25.6667C8.80217 25.8415 8.58121 26.1295 8.49069 26.4671C8.40025 26.8049 8.44762 27.1648 8.62244 27.4676L11.2592 32.0345C11.6233 32.6652 12.4296 32.8812 13.06 32.517L14.8035 31.5104C15.8964 32.4374 17.1647 33.1619 18.5448 33.6473V35.6836C18.5448 36.4117 19.135 37.002 19.8631 37.002H25.1366C25.8646 37.002 26.4549 36.4117 26.4549 35.6836V33.6473C27.835 33.1619 29.1034 32.4374 30.1962 31.5104L31.9396 32.517C32.5702 32.8811 33.3764 32.665 33.7405 32.0345L36.3772 27.4676C36.5521 27.1648 36.5994 26.8049 36.509 26.4671C36.4185 26.1294 36.1977 25.8415 35.8948 25.6666ZM22.4999 26.4551C20.3191 26.4551 18.5448 24.6808 18.5448 22.5C18.5448 20.3192 20.3191 18.5449 22.4999 18.5449C24.6808 18.5449 26.455 20.3192 26.455 22.5C26.455 24.6808 24.6808 26.4551 22.4999 26.4551Z" fill="white"/>
<path d="M40.5307 9.03208L38.6663 3.43872C38.436 2.74799 37.6893 2.37454 36.9986 2.6049C36.3079 2.83518 35.9346 3.58172 36.1648 4.27254L36.3233 4.74794C35.1403 3.8475 33.8654 3.05394 32.5233 2.38816C29.3735 0.82582 25.9075 0 22.5 0C16.5226 0 10.8814 2.34932 6.61544 6.61544C2.34932 10.8814 0 16.5226 0 22.5C0 25.2606 0.57999 28.0889 1.72362 30.9061C1.93157 31.4184 2.4249 31.7289 2.94557 31.7289C3.11071 31.7289 3.27867 31.6977 3.44109 31.6317C4.11574 31.3579 4.44059 30.5889 4.16672 29.9143C3.15141 27.4135 2.63672 24.919 2.63672 22.5C2.63672 11.5473 11.5473 2.63672 22.5 2.63672C26.5201 2.63672 30.5784 3.97406 33.9501 6.2935C33.3056 6.16122 32.6493 6.52772 32.4359 7.16748C32.2058 7.85813 32.579 8.60484 33.2698 8.83512L38.8631 10.6996C39.3348 10.8568 39.8577 10.7358 40.2122 10.3811C40.5653 10.0281 40.6886 9.50572 40.5307 9.03208Z" fill="white"/>
<path d="M43.2762 14.094C43.0023 13.4192 42.2332 13.0947 41.5587 13.3683C40.8841 13.6422 40.5592 14.4112 40.8331 15.0858C41.8484 17.5866 42.3631 20.0811 42.3631 22.5001C42.3631 33.4528 33.4525 42.3634 22.4998 42.3634C18.4797 42.3634 14.4215 41.026 11.0497 38.7066C11.6941 38.8388 12.3506 38.4725 12.5639 37.8326C12.7941 37.142 12.4208 36.3953 11.7301 36.165L6.13671 34.3005C5.66315 34.1425 5.14064 34.2657 4.78759 34.619C4.43444 34.9721 4.31113 35.4944 4.46907 35.9681L6.3335 41.5615C6.51771 42.1139 7.03196 42.4634 7.58409 42.4633C7.72225 42.4633 7.86288 42.4414 8.00113 42.3954C8.69186 42.1651 9.06514 41.4186 8.83495 40.7277L8.67648 40.2523C9.85949 41.1528 11.1343 41.9463 12.4764 42.6121C15.6263 44.1743 19.0923 45.0001 22.4998 45.0001C28.4773 45.0001 34.1184 42.6508 38.3844 38.3847C42.6505 34.1187 44.9998 28.4774 44.9998 22.5001C44.9998 19.7395 44.4198 16.9112 43.2762 14.094Z" fill="white"/>
</g>
<defs>
<clipPath id="clip0_888_713">
<rect width="45" height="45" fill="white"/>
</clipPath>
</defs>
</svg>
