<svg width="13" height="13" viewBox="0 0 13 13" fill="none" xmlns="http://www.w3.org/2000/svg">
<path d="M9.01995 13H3.98005C1.78539 13 0 11.2146 0 9.01995V3.98005C0 1.78539 1.78539 0 3.98005 0H9.01995C11.2146 0 13 1.78539 13 3.98005V9.01995C13 11.2144 11.2146 13 9.01995 13ZM3.98005 0.973452C2.32224 0.973452 0.973452 2.32224 0.973452 3.98005V9.01995C0.973452 10.6778 2.32224 12.0265 3.98005 12.0265H9.01995C10.6779 12.0265 12.0267 10.6778 12.0267 9.01995V3.98005C12.0267 2.32224 10.6779 0.973452 9.01995 0.973452H3.98005Z" fill="#011448"/>
<path d="M6.50018 9.78805C4.68694 9.78805 3.21191 8.31286 3.21191 6.49962C3.21191 4.68638 4.68694 3.21118 6.50018 3.21118C8.31342 3.21118 9.78862 4.68638 9.78862 6.49962C9.78862 8.31286 8.31342 9.78805 6.50018 9.78805ZM6.50018 4.20809C5.23662 4.20809 4.20865 5.23605 4.20865 6.49979C4.20865 7.76335 5.23662 8.79131 6.50018 8.79131C7.76374 8.79131 8.79188 7.76335 8.79188 6.49979C8.79188 5.23605 7.76391 4.20809 6.50018 4.20809Z" fill="#011448"/>
<path d="M11.0024 2.85457C11.0024 3.32746 10.6191 3.71073 10.1462 3.71073C9.67331 3.71073 9.29004 3.32746 9.29004 2.85457C9.29004 2.38168 9.67331 1.99841 10.1462 1.99841C10.6191 1.99841 11.0024 2.38168 11.0024 2.85457Z" fill="#011448"/>
</svg>
