<svg preserveAspectRatio="none" width="100%" height="100%" overflow="visible" style="display: block;" viewBox="0 0 30 30" fill="none" xmlns="http://www.w3.org/2000/svg">
<g id="HubSpot Icon">
<path id="Vector" d="M22.589 10.0966V6.5749C23.5099 6.1409 24.1548 5.21054 24.1548 4.13186V4.05011C24.1548 2.56103 22.9343 1.34245 21.4428 1.34245H21.3618C19.8703 1.34245 18.6498 2.56103 18.6498 4.05011V4.13186C18.6498 5.21138 19.2946 6.1409 20.2155 6.5749V10.0966C18.8447 10.3082 17.5921 10.8728 16.559 11.7029L6.87499 4.18158C6.93829 3.93635 6.98303 3.68437 6.98387 3.41976C6.98471 1.73263 5.61732 0.364056 3.92749 0.361528C2.23766 0.359 0.866894 1.72505 0.864361 3.41218C0.862673 5.0993 2.23007 6.46788 3.9199 6.47041C4.47023 6.47041 4.98005 6.31535 5.42656 6.06169L14.9527 13.4599C14.1424 14.681 13.6681 16.1432 13.6681 17.7174C13.6681 19.2916 14.1897 20.8902 15.0709 22.1442L12.1741 25.0364C11.9453 24.9681 11.7073 24.9201 11.4558 24.9201C10.0673 24.9201 8.94211 26.0434 8.94211 27.4297C8.94211 28.816 10.0681 29.9393 11.4558 29.9393C12.8434 29.9393 13.9694 28.816 13.9694 27.4297C13.9694 27.1786 13.9213 26.9409 13.8529 26.7125L16.7185 23.8515C18.0192 24.8426 19.639 25.4384 21.4023 25.4384C25.6733 25.4384 29.1356 21.9815 29.1356 17.7174C29.1356 13.8569 26.2954 10.668 22.589 10.0966ZM21.4014 21.6756C19.2119 21.6756 17.436 19.9034 17.436 17.7174C17.436 15.5313 19.2111 13.7591 21.4014 13.7591C23.5918 13.7591 25.366 15.5313 25.366 17.7174C25.366 19.9034 23.5909 21.6756 21.4014 21.6756Z" fill="var(--fill-0, #FF4800)"/>
</g>
</svg>
