<svg preserveAspectRatio="none" width="100%" height="100%" overflow="visible" style="display: block;" viewBox="0 0 29.1957 29.8262" fill="none" xmlns="http://www.w3.org/2000/svg">
<g id="Brand mark">
<path id="Vector" d="M20.0099 19.3406C19.0653 20.181 17.8857 21.2267 15.7467 21.2267H14.4677C12.9199 21.2267 11.5121 20.6627 10.5044 19.6403C9.5201 18.6414 8.97823 17.2742 8.97823 15.7901V14.0357C8.97823 12.5516 9.5201 11.1844 10.5044 10.1855C11.5121 9.16317 12.9199 8.60002 14.4677 8.60002H15.7467C17.8883 8.60002 19.0653 9.64488 20.0099 10.4853C20.9908 11.3516 21.8369 12.1089 24.0933 12.1089C24.4375 12.1088 24.7811 12.0813 25.1209 12.0266L25.1131 12.0066C24.9779 11.6702 24.8194 11.3436 24.6386 11.0294L23.1306 8.41028C22.4505 7.2296 21.4724 6.24917 20.2946 5.56754C19.1168 4.88591 17.7808 4.52709 16.4208 4.52715H13.4039C12.0439 4.52709 10.7079 4.88591 9.53007 5.56754C8.35227 6.24917 7.37418 7.2296 6.69412 8.41028L5.18607 11.0294C4.50624 12.2102 4.14835 13.5495 4.14835 14.9129C4.14835 16.2763 4.50624 17.6157 5.18607 18.7965L6.69412 21.4156C7.37418 22.5962 8.35227 23.5767 9.53007 24.2583C10.7079 24.9399 12.0439 25.2987 13.4039 25.2987H16.4208C17.7808 25.2987 19.1168 24.9399 20.2946 24.2583C21.4724 23.5767 22.4505 22.5962 23.1306 21.4156L24.6386 18.8008C24.8194 18.4866 24.9779 18.16 25.1131 17.8235L25.1209 17.8045C24.7812 17.7479 24.4376 17.7189 24.0933 17.7178C21.8369 17.7178 20.9908 18.4707 20.0099 19.3414" fill="var(--fill-0, #006BFF)"/>
<path id="Vector_2" d="M15.7466 10.1904H14.4676C12.1118 10.1904 10.564 11.8773 10.564 14.0363V15.7907C10.564 17.9498 12.1118 19.6366 14.4676 19.6366H15.7466C19.1793 19.6366 18.9097 16.1278 24.0932 16.1278C24.5843 16.1272 25.0744 16.1724 25.5572 16.2629C25.7145 15.3702 25.7145 14.4568 25.5572 13.5641C25.0744 13.6542 24.5843 13.6994 24.0932 13.6993C18.9079 13.6993 19.1793 10.1904 15.7466 10.1904Z" fill="var(--fill-0, #006BFF)"/>
<path id="Vector_3" d="M28.5354 17.5447C27.6527 16.8966 26.6347 16.4578 25.5582 16.2616C25.5582 16.2711 25.5582 16.2789 25.5582 16.2876C25.4655 16.8049 25.3207 17.3114 25.1261 17.7994C26.0153 17.9375 26.859 18.2859 27.5873 18.8157C27.5873 18.8226 27.583 18.8313 27.5804 18.8391C26.643 21.882 24.648 24.4869 21.9578 26.1806C19.2675 27.8743 16.0606 28.5444 12.9194 28.0692C9.77822 27.594 6.91127 26.005 4.83934 23.5909C2.7674 21.1769 1.62794 18.0978 1.62794 14.9131C1.62794 11.7284 2.7674 8.64931 4.83934 6.23522C6.91127 3.82113 9.77822 2.23217 12.9194 1.75698C16.0606 1.2818 19.2675 1.95191 21.9578 3.64559C24.648 5.33928 26.643 7.94417 27.5804 10.9871C27.5804 10.9949 27.5847 11.0035 27.5873 11.0105C26.8591 11.5404 26.0154 11.8885 25.1261 12.0259C25.3205 12.5145 25.4653 13.0216 25.5582 13.5394C25.5577 13.5475 25.5577 13.5556 25.5582 13.5637C26.6346 13.3678 27.6526 12.9293 28.5354 12.2814C29.384 11.6516 29.2198 10.9403 29.0911 10.5192C28.0418 7.1075 25.8065 4.18636 22.7913 2.28661C19.776 0.38686 16.181 -0.365425 12.6595 0.166458C9.13802 0.698341 5.9237 2.47909 3.60065 5.18513C1.2776 7.89116 0 11.3429 0 14.9131C0 18.4833 1.2776 21.935 3.60065 24.641C5.9237 27.3471 9.13802 29.1278 12.6595 29.6597C16.181 30.1916 19.776 29.4393 22.7913 27.5396C25.8065 25.6398 28.0418 22.7187 29.0911 19.3069C29.2198 18.8859 29.384 18.1746 28.5354 17.5447Z" fill="var(--fill-0, #006BFF)"/>
<path id="Vector_4" d="M25.1207 12.0256C24.781 12.0822 24.4374 12.1112 24.0931 12.1123C21.8366 12.1123 20.9906 11.3594 20.0106 10.4887C19.0651 9.64826 17.8881 8.60254 15.7465 8.60254H14.4675C12.9188 8.60254 11.5119 9.16655 10.5042 10.1889C9.51989 11.1878 8.97803 12.555 8.97803 14.0391V15.7935C8.97803 17.2776 9.51989 18.6448 10.5042 19.6437C11.5119 20.6661 12.9188 21.2292 14.4675 21.2292H15.7465C17.8881 21.2292 19.0651 20.1843 20.0106 19.344C20.9906 18.4776 21.8366 17.7204 24.0931 17.7204C24.4373 17.7204 24.7809 17.748 25.1207 17.8027C25.3157 17.3148 25.4605 16.8082 25.5528 16.2908C25.5532 16.2822 25.5532 16.2735 25.5528 16.2648C25.0699 16.1751 24.5799 16.1301 24.0888 16.1305C18.9035 16.1305 19.1749 19.6403 15.7422 19.6403H14.4632C12.1073 19.6403 10.5595 17.9525 10.5595 15.7935V14.0356C10.5595 11.8766 12.1073 10.1898 14.4632 10.1898H15.7422C19.1749 10.1898 18.9052 13.6977 24.0888 13.6977C24.5799 13.6986 25.07 13.6536 25.5528 13.5634C25.5528 13.5557 25.5528 13.5479 25.5528 13.5392C25.4599 13.0214 25.3151 12.5143 25.1207 12.0256Z" fill="var(--fill-0, #0AE8F0)"/>
<path id="Vector_5" d="M25.1207 12.0256C24.781 12.0822 24.4374 12.1112 24.0931 12.1123C21.8366 12.1123 20.9906 11.3594 20.0106 10.4887C19.0651 9.64826 17.8881 8.60254 15.7465 8.60254H14.4675C12.9188 8.60254 11.5119 9.16655 10.5042 10.1889C9.51989 11.1878 8.97803 12.555 8.97803 14.0391V15.7935C8.97803 17.2776 9.51989 18.6448 10.5042 19.6437C11.5119 20.6661 12.9188 21.2292 14.4675 21.2292H15.7465C17.8881 21.2292 19.0651 20.1843 20.0106 19.344C20.9906 18.4776 21.8366 17.7204 24.0931 17.7204C24.4373 17.7204 24.7809 17.748 25.1207 17.8027C25.3157 17.3148 25.4605 16.8082 25.5528 16.2908C25.5532 16.2822 25.5532 16.2735 25.5528 16.2648C25.0699 16.1751 24.5799 16.1301 24.0888 16.1305C18.9035 16.1305 19.1749 19.6403 15.7422 19.6403H14.4632C12.1073 19.6403 10.5595 17.9525 10.5595 15.7935V14.0356C10.5595 11.8766 12.1073 10.1898 14.4632 10.1898H15.7422C19.1749 10.1898 18.9052 13.6977 24.0888 13.6977C24.5799 13.6986 25.07 13.6536 25.5528 13.5634C25.5528 13.5557 25.5528 13.5479 25.5528 13.5392C25.4599 13.0214 25.3151 12.5143 25.1207 12.0256Z" fill="var(--fill-0, #0AE8F0)"/>
</g>
</svg>
