<svg width="28" height="28" viewBox="0 0 28 28" fill="none" xmlns="http://www.w3.org/2000/svg">
<g clip-path="url(#clip0_899_331)">
<path fill-rule="evenodd" clip-rule="evenodd" d="M3.68011 15.2246C3.68011 13.7788 4.85199 12.6054 6.29932 12.6054C7.74664 12.6054 8.91852 13.7788 8.91852 15.2246C8.91852 16.672 7.74664 17.8439 6.29932 17.8439C4.85199 17.8439 3.68011 16.672 3.68011 15.2246ZM11.9673 25.0214C11.9673 28.1511 0.631348 28.1511 0.631348 25.0214C0.631348 21.8918 3.16963 19.3535 6.29932 19.3535C9.429 19.3535 11.9673 21.8918 11.9673 25.0214ZM7.00239 11.9098C6.99586 11.8142 6.9907 11.7182 6.98696 11.6217H6.54056C6.32841 11.6217 6.15624 11.4496 6.15624 11.2374C6.15624 11.0253 6.32841 10.8531 6.54056 10.8531H6.98696C7.18505 5.76969 11.2944 1.66028 16.3779 1.46225V1.01578C16.3779 0.803697 16.5501 0.63147 16.7622 0.63147C16.9743 0.63147 17.1465 0.803697 17.1465 1.01578V1.46225C22.23 1.66028 26.3394 5.76969 26.5374 10.8531H26.9839C27.196 10.8531 27.3682 11.0253 27.3682 11.2374C27.3682 11.4496 27.196 11.6217 26.9839 11.6217H26.5374C26.3394 16.7067 22.23 20.8147 17.1465 21.0127V21.4607C17.1465 21.6728 16.9743 21.845 16.7622 21.845C16.5501 21.845 16.3779 21.6728 16.3779 21.4607V21.0127C13.3982 20.8967 10.7532 19.4372 9.03437 17.2251C9.19951 16.9996 9.33748 16.7529 9.44333 16.4898C11.0122 18.6682 13.5275 20.1229 16.3779 20.2434V19.8126C16.3779 19.6005 16.5501 19.4283 16.7622 19.4283C16.9743 19.4283 17.1465 19.6005 17.1465 19.8126V20.2434C21.8067 20.0463 25.5711 16.2831 25.7682 11.6217H25.3373C25.1252 11.6217 24.953 11.4496 24.953 11.2374C24.953 11.0253 25.1252 10.8531 25.3373 10.8531H25.7682C25.5711 6.19309 21.8066 2.42863 17.1465 2.23148V2.66389C17.1465 2.87597 16.9743 3.0482 16.7622 3.0482C16.5501 3.0482 16.3779 2.87597 16.3779 2.66389V2.23148C11.7178 2.42863 7.95335 6.19309 7.75625 10.8531H8.18707C8.39921 10.8531 8.57138 11.0253 8.57138 11.2374C8.57138 11.4496 8.39921 11.6217 8.18707 11.6217H7.75625C7.76421 11.8112 7.77816 11.9991 7.79776 12.1853C7.54845 12.0622 7.28179 11.9688 7.00239 11.9098ZM16.7622 17.8906C13.0972 17.8906 10.1091 14.9025 10.1091 11.2374C10.1091 7.57399 13.0972 4.58436 16.7622 4.58436C20.4272 4.58436 23.4153 7.57399 23.4153 11.2374C23.4153 14.9025 20.4272 17.8906 16.7622 17.8906ZM16.7622 15.1468C18.9145 15.1468 20.67 13.3913 20.67 11.2374C20.67 9.08511 18.9145 7.32962 16.7622 7.32962C14.6099 7.32962 12.8544 9.08511 12.8544 11.2374C12.8544 13.3913 14.6099 15.1468 16.7622 15.1468ZM16.7622 12.4016C16.121 12.4016 15.5997 11.8786 15.5997 11.2374C15.5997 10.5978 16.121 10.0749 16.7622 10.0749C17.4034 10.0749 17.9248 10.5978 17.9248 11.2374C17.9248 11.8786 17.4034 12.4016 16.7622 12.4016Z" fill="#F9FAFF"/>
</g>
<defs>
<clipPath id="clip0_899_331">
<rect width="28" height="28" fill="white"/>
</clipPath>
</defs>
</svg>
