<svg preserveAspectRatio="none" width="100%" height="100%" overflow="visible" style="display: block;" viewBox="0 0 28.7771 27.869" fill="none" xmlns="http://www.w3.org/2000/svg">
<g id="Dashboard Icon Group">
<path id="Vector" d="M13.3742 0.00978508C13.4517 0.00959773 13.5293 0.00941039 13.6092 0.00921737C14.0195 0.00822934 14.4298 0.00761441 14.8402 0.00732619C15.26 0.0069634 15.6799 0.00537105 16.0998 0.00348493C16.4263 0.0022405 16.7528 0.00190528 17.0793 0.00180431C17.2339 0.00160606 17.3885 0.00108205 17.5431 0.000201783C20.6686 -0.0163242 23.5003 0.98187 25.7901 3.13749C25.8481 3.19096 25.9062 3.24443 25.9659 3.29952C27.0336 4.3166 28.4829 6.16407 28.5999 7.68669C28.6009 7.74887 28.6019 7.81106 28.603 7.87512C28.6047 7.9373 28.6064 7.99948 28.6082 8.06355C28.5809 8.28328 28.5513 8.35423 28.3866 8.5046C28.181 8.53141 27.9996 8.54175 27.7939 8.5398C27.7357 8.54005 27.6775 8.54031 27.6176 8.54057C27.4945 8.54075 27.3714 8.54026 27.2484 8.53915C27.0601 8.53773 26.8721 8.53914 26.6838 8.54083C26.5643 8.54066 26.4447 8.54032 26.3251 8.5398C26.2688 8.54033 26.2126 8.54087 26.1546 8.54142C25.7658 8.53525 25.7658 8.53525 25.5615 8.38696C25.4636 8.24857 25.3869 8.12108 25.3189 7.96623C25.2955 7.91434 25.272 7.86244 25.2479 7.80897C25.2236 7.75427 25.1993 7.69957 25.1743 7.64321C24.9329 7.119 24.6723 6.64944 24.3255 6.18548C24.2839 6.12945 24.2424 6.07341 24.1996 6.01568C23.253 4.79025 22.0206 3.90807 20.5639 3.38183C20.5222 3.36656 20.4804 3.35129 20.4374 3.33556C19.4017 2.98293 18.3914 2.97635 17.3082 2.9809C17.145 2.98093 16.9818 2.9809 16.8186 2.9808C16.478 2.9808 16.1374 2.98149 15.7967 2.98269C15.3629 2.9842 14.929 2.98423 14.4952 2.98379C14.1586 2.98356 13.822 2.98401 13.4854 2.98466C13.3255 2.98491 13.1657 2.98499 13.0058 2.98488C10.6756 2.98462 8.47172 3.43179 6.61616 4.92653C6.57936 4.95618 6.54255 4.98582 6.50463 5.01637C4.56324 6.59323 3.29843 8.79507 3.02105 11.2875C2.93315 13.0941 3.16851 14.8433 4.01969 16.4559C4.08032 16.5723 4.08032 16.5723 4.14218 16.6911C4.86785 18.0189 5.91694 19.0873 7.15695 19.9495C7.63953 20.2913 7.99508 20.6432 8.14742 21.2266C8.16816 21.4328 8.17214 21.6382 8.17499 21.8452C8.17627 21.9035 8.17756 21.9618 8.17889 22.0218C8.18285 22.2068 8.18595 22.3917 8.18903 22.5767C8.19157 22.7026 8.19417 22.8284 8.19683 22.9543C8.2032 23.2619 8.20881 23.5695 8.21399 23.877C8.61973 23.6603 9.00642 23.4261 9.3874 23.1689C9.49272 23.0984 9.59805 23.0279 9.70338 22.9574C9.75529 22.9226 9.8072 22.8877 9.86068 22.8518C10.1211 22.6772 10.3826 22.5042 10.644 22.3312C10.8589 22.1888 11.0733 22.0458 11.2872 21.9019C11.3555 21.8561 11.3555 21.8561 11.4252 21.8094C11.5126 21.7508 11.5999 21.6921 11.6871 21.6331C11.9558 21.4533 12.154 21.3512 12.4782 21.35C12.5329 21.3496 12.5877 21.3493 12.6441 21.3489C12.704 21.3488 12.7638 21.3488 12.8255 21.3487C12.9204 21.3482 12.9204 21.3482 13.0172 21.3477C13.1548 21.347 13.2925 21.3464 13.4301 21.3459C13.6488 21.3452 13.8675 21.3439 14.0863 21.3424C14.7083 21.3384 15.3303 21.3348 15.9524 21.3326C16.3329 21.3312 16.7134 21.3288 17.094 21.3259C17.2382 21.3249 17.3825 21.3244 17.5267 21.3242C18.5493 21.3225 19.5319 21.2755 20.5015 20.916C20.5478 20.8992 20.5942 20.8823 20.642 20.865C21.501 20.5415 22.3616 20.0801 23.0077 19.42C23.1271 19.3051 23.1271 19.3051 23.2602 19.3051C23.2781 19.2653 23.2959 19.2255 23.3143 19.1845C23.3947 19.0377 23.4687 18.9597 23.5931 18.8495C24.4565 18.0081 25.0168 16.8628 25.4377 15.7506C25.5302 15.5116 25.57 15.4092 25.7901 15.2632C25.9898 15.2486 26.1831 15.2414 26.3828 15.2409C26.441 15.2405 26.4992 15.24 26.5592 15.2396C26.6822 15.2389 26.8053 15.2386 26.9283 15.2386C27.1166 15.2383 27.3047 15.2359 27.4929 15.2334C27.6125 15.233 27.7321 15.2328 27.8517 15.2326C27.9079 15.2317 27.9642 15.2307 28.0221 15.2297C28.413 15.2328 28.413 15.2328 28.6198 15.3893C28.7951 15.6335 28.7947 15.7831 28.7566 16.0828C28.6869 16.4102 28.5397 16.7022 28.3949 17.0025C28.3623 17.0716 28.3296 17.1406 28.296 17.2117C27.8164 18.217 27.3327 19.2104 26.6556 20.1002C26.6143 20.156 26.5731 20.2117 26.5305 20.2692C25.6265 21.4469 24.4334 22.3818 23.1271 23.0819C23.085 23.1047 23.0428 23.1275 22.9994 23.1509C21.311 24.0459 19.4923 24.2822 17.6074 24.2858C17.4089 24.2863 17.2105 24.2873 17.012 24.2885C16.4483 24.292 15.8846 24.2952 15.3209 24.2962C14.9746 24.2969 14.6284 24.2988 14.2821 24.3016C14.1508 24.3024 14.0194 24.3028 13.888 24.3026C13.7045 24.3024 13.5211 24.3039 13.3376 24.3058C13.2838 24.3053 13.2301 24.3049 13.1748 24.3044C12.7987 24.3106 12.5883 24.3978 12.2751 24.6059C12.1973 24.6551 12.1973 24.6551 12.1179 24.7053C12.0482 24.752 12.0482 24.752 11.977 24.7996C11.9233 24.8355 11.8695 24.8713 11.8141 24.9083C11.7572 24.9464 11.7003 24.9846 11.6416 25.0239C11.5168 25.1072 11.3919 25.1904 11.267 25.2737C11.1706 25.338 11.1706 25.338 11.0723 25.4036C10.5672 25.7399 10.06 26.073 9.55293 26.4063C9.42444 26.4908 9.29602 26.5754 9.16765 26.6601C8.97785 26.7853 8.78787 26.9102 8.59785 27.035C8.54125 27.0724 8.48465 27.1099 8.42634 27.1484C7.28207 27.8984 7.28207 27.8984 6.61616 27.8527C6.25554 27.7282 6.02785 27.4994 5.81725 27.1901C5.69148 26.9285 5.6652 26.7127 5.65887 26.4239C5.65664 26.3372 5.65442 26.2506 5.65213 26.1613C5.65124 26.1153 5.65035 26.0693 5.64943 26.0219C5.64661 25.8774 5.64302 25.7328 5.63922 25.5883C5.62995 25.2294 5.62202 24.8706 5.61405 24.5117C5.60726 24.208 5.59996 23.9043 5.59197 23.6007C5.58844 23.4584 5.58567 23.3161 5.58292 23.1739C5.58069 23.0874 5.57846 23.0009 5.57617 22.9119C5.57367 22.7977 5.57367 22.7977 5.57112 22.6812C5.55142 22.4901 5.52401 22.3792 5.41779 22.2205C5.24633 22.1053 5.24633 22.1053 5.03914 21.9969C4.5105 21.694 4.09155 21.289 3.65914 20.8652C3.57544 20.7839 3.48938 20.7051 3.40256 20.6272C1.96915 19.3177 0.869007 17.0995 0.357996 15.2632C0.3386 15.1989 0.319204 15.1347 0.299221 15.0685C0.0268432 14.1 -0.00246304 13.0744 0.000148085 12.0744C0.00018429 12.0215 0.000220497 11.9685 0.000257799 11.914C0.0083911 9.31016 0.850745 6.8343 2.48844 4.794C2.55898 4.70355 2.55898 4.70355 2.63095 4.61127C4.46007 2.31279 7.265 0.655384 10.1697 0.180613C10.2191 0.17244 10.2685 0.164267 10.3194 0.155846C11.3321 -0.000498227 12.3524 0.0114638 13.3742 0.00978508Z" fill="var(--fill-0, #0066FF)"/>
<path id="Union" d="M22.2339 7.18373C22.4439 7.12992 22.6337 7.32255 22.5756 7.53045L21.0742 12.8978C21.016 13.1057 20.7535 13.173 20.6017 13.019L19.5421 11.9437L15.185 16.1758C14.6562 16.6895 13.8091 16.6792 13.2929 16.1529L11.9497 14.7832L8.22409 18.4018C7.7509 18.8613 6.99302 18.852 6.53126 18.3811C6.06949 17.9102 6.07871 17.1559 6.55185 16.6963L11.0334 12.3434C11.5622 11.8297 12.4093 11.84 12.9254 12.3663L14.2686 13.7361L17.8656 10.2424L16.6819 9.0413C16.5301 8.88722 16.6028 8.62728 16.8128 8.57345L22.2339 7.18373Z" fill="var(--fill-0, #0B6DFF)"/>
</g>
</svg>
