<svg preserveAspectRatio="none" width="100%" height="100%" overflow="visible" style="display: block;" viewBox="0 0 28.7358 20.1732" fill="none" xmlns="http://www.w3.org/2000/svg">
<g id="Salesforce Icon Group">
<path id="Vector" d="M11.9589 2.20014C12.886 1.23246 14.1746 0.630413 15.6015 0.630413C17.4998 0.630413 19.153 1.69266 20.0362 3.26554C20.8031 2.92197 21.6516 2.72969 22.5411 2.72969C25.9637 2.72969 28.7358 5.53503 28.7358 8.99915C28.7358 12.4633 25.9606 15.2686 22.5411 15.2686C22.1231 15.2686 21.7145 15.2276 21.3216 15.1457C20.5453 16.5326 19.065 17.4719 17.3678 17.4719C16.6575 17.4719 15.9849 17.308 15.3878 17.0149C14.6021 18.8714 12.7666 20.1732 10.6325 20.1732C8.49848 20.1732 6.51215 18.7611 5.78299 16.7816C5.46556 16.8478 5.13555 16.8856 4.79611 16.8856C2.14662 16.8856 0 14.7107 0 12.0251C0 10.2253 0.96488 8.65558 2.39806 7.81397C2.10262 7.13313 1.93919 6.37978 1.93919 5.59177C1.93919 2.50274 4.43782 0 7.52103 0C9.33136 0 10.9405 0.863666 11.9589 2.20014Z" fill="var(--fill-0, #0D9DDA)"/>
<g id="Group">
<path id="Vector_2" d="M4.16436 10.4614C4.14551 10.5087 4.17065 10.5181 4.17694 10.5276C4.23036 10.5654 4.28694 10.5938 4.34037 10.6285C4.63266 10.7829 4.90924 10.8302 5.19839 10.8302C5.78926 10.8302 6.15384 10.515 6.15384 10.0106V10.0012C6.15384 9.53468 5.73897 9.36447 5.35239 9.24154L5.3021 9.22578C5.00981 9.13122 4.75838 9.04926 4.75838 8.85384V8.84438C4.75838 8.68047 4.9061 8.55754 5.13553 8.55754C5.39011 8.55754 5.69183 8.64265 5.88355 8.74982C5.88355 8.74982 5.94012 8.78764 5.96212 8.73091C5.97469 8.69938 6.07212 8.43461 6.08155 8.40624C6.09412 8.37472 6.07212 8.35266 6.05327 8.34005C5.83012 8.20451 5.52525 8.1131 5.20782 8.1131H5.1481C4.60752 8.1131 4.23036 8.44092 4.23036 8.90742V8.91688C4.23036 9.41175 4.64523 9.56936 5.03496 9.68283L5.09781 9.70174C5.38068 9.79 5.62583 9.86565 5.62583 10.0642V10.0737C5.62583 10.2565 5.46554 10.392 5.21096 10.392C5.11039 10.392 4.79295 10.392 4.45037 10.1714C4.40951 10.1462 4.38437 10.1304 4.35294 10.1115C4.33722 10.1021 4.29322 10.0831 4.27437 10.1367L4.15808 10.4614H4.16436Z" fill="var(--fill-0, white)"/>
<path id="Vector_3" d="M12.7917 10.4614C12.7728 10.5087 12.798 10.5181 12.8043 10.5276C12.8577 10.5654 12.9143 10.5938 12.9677 10.6285C13.26 10.7829 13.5366 10.8302 13.8257 10.8302C14.4166 10.8302 14.7812 10.515 14.7812 10.0106V10.0012C14.7812 9.53468 14.3695 9.36447 13.9797 9.24154L13.9294 9.22578C13.6372 9.13122 13.3857 9.04926 13.3857 8.85384V8.84438C13.3857 8.68047 13.5334 8.55754 13.7629 8.55754C14.0174 8.55754 14.3192 8.64265 14.5109 8.74982C14.5109 8.74982 14.5675 8.78764 14.5895 8.73091C14.602 8.69938 14.6995 8.43461 14.7089 8.40624C14.7215 8.37472 14.6995 8.35266 14.6806 8.34005C14.4575 8.20451 14.1526 8.1131 13.8352 8.1131H13.7754C13.2349 8.1131 12.8577 8.44092 12.8577 8.90742V8.91688C12.8577 9.41175 13.2726 9.56936 13.6623 9.68283L13.7252 9.70174C14.008 9.79 14.2532 9.86565 14.2532 10.0642V10.0737C14.2532 10.2565 14.0929 10.392 13.8383 10.392C13.7377 10.392 13.4203 10.392 13.0777 10.1714C13.0369 10.1462 13.0117 10.1304 12.9803 10.1115C12.9709 10.1052 12.9206 10.0863 12.9017 10.1367L12.7854 10.4614H12.7917Z" fill="var(--fill-0, white)"/>
<path id="Vector_4" d="M19.175 8.93884C19.1279 8.77493 19.0524 8.62994 18.9519 8.51016C18.8513 8.39038 18.7256 8.29267 18.5747 8.22332C18.4238 8.15398 18.2478 8.11615 18.0467 8.11615C17.8455 8.11615 17.6695 8.15082 17.5187 8.22332C17.3678 8.29267 17.2421 8.39038 17.1415 8.51016C17.041 8.62994 16.9655 8.77493 16.9184 8.93884C16.8712 9.10275 16.8461 9.27926 16.8461 9.46839C16.8461 9.65751 16.8712 9.83718 16.9184 9.99794C16.9655 10.1618 17.041 10.3068 17.1415 10.4266C17.2421 10.5464 17.371 10.6441 17.5187 10.7135C17.6695 10.7828 17.8455 10.8175 18.0467 10.8175C18.2478 10.8175 18.4238 10.7828 18.5747 10.7135C18.7256 10.6441 18.8513 10.5495 18.9519 10.4266C19.0524 10.3068 19.1279 10.1618 19.175 9.99794C19.2221 9.83403 19.2473 9.65751 19.2473 9.46839C19.2473 9.27926 19.2221 9.0996 19.175 8.93884ZM18.6816 9.46839C18.6816 9.75523 18.6281 9.97902 18.5244 10.1398C18.4207 10.2974 18.2636 10.373 18.0467 10.373C17.8298 10.373 17.6727 10.2974 17.569 10.1398C17.4653 9.97902 17.4118 9.75523 17.4118 9.46839C17.4118 9.18155 17.4653 8.95775 17.5658 8.80015C17.6695 8.64255 17.8235 8.5669 18.0435 8.5669C18.2636 8.5669 18.4176 8.64255 18.5213 8.80015C18.625 8.95775 18.6784 9.18155 18.6784 9.46839" fill="var(--fill-0, white)"/>
<path id="Vector_5" fill-rule="evenodd" clip-rule="evenodd" d="M23.2165 10.298C23.2008 10.2508 23.1536 10.2697 23.1536 10.2697C23.0814 10.2981 23.0059 10.3233 22.9242 10.3359C22.8425 10.3485 22.7514 10.3548 22.6539 10.3548C22.4151 10.3548 22.2265 10.2823 22.0913 10.1436C21.9562 10.0018 21.8776 9.77481 21.8808 9.46906C21.8808 9.18852 21.9499 8.98049 22.0693 8.81973C22.1888 8.65898 22.3711 8.58017 22.6162 8.58017C22.8205 8.58017 22.9745 8.60224 23.1379 8.65582C23.1379 8.65582 23.1757 8.67158 23.1945 8.62115C23.2385 8.50137 23.2699 8.41627 23.3171 8.28388C23.3297 8.24606 23.2982 8.23029 23.2857 8.22714C23.2228 8.20193 23.0719 8.16095 22.9588 8.14519C22.8519 8.12943 22.7294 8.11997 22.5911 8.11997C22.3836 8.11997 22.2013 8.15465 22.0411 8.22714C21.8839 8.29649 21.7519 8.3942 21.645 8.51398C21.5382 8.63376 21.4596 8.77875 21.4062 8.94266C21.3527 9.10657 21.3245 9.28308 21.3245 9.47536C21.3245 9.88513 21.4345 10.2161 21.6513 10.4588C21.8682 10.7015 22.1951 10.8244 22.6225 10.8244C22.8739 10.8244 23.1316 10.774 23.3202 10.6984C23.3202 10.6984 23.3548 10.6826 23.3391 10.6385L23.2197 10.3044L23.2165 10.298Z" fill="var(--fill-0, white)"/>
<path id="Vector_6" fill-rule="evenodd" clip-rule="evenodd" d="M25.7343 8.84743C25.6934 8.68983 25.5897 8.52907 25.5206 8.45658C25.4137 8.33995 25.31 8.26115 25.2031 8.21387C25.068 8.15398 24.9046 8.11615 24.7254 8.11615C24.518 8.11615 24.3294 8.15082 24.1754 8.22332C24.0214 8.29582 23.8925 8.39353 23.792 8.51646C23.6914 8.6394 23.616 8.78439 23.5657 8.95145C23.5185 9.11536 23.4934 9.29503 23.4934 9.48415C23.4934 9.67327 23.5185 9.85609 23.5688 10.0168C23.6191 10.1808 23.7008 10.3226 23.8108 10.4424C23.9208 10.5622 24.0622 10.6567 24.2288 10.7198C24.3954 10.786 24.5997 10.8175 24.8323 10.8175C25.3131 10.8175 25.5677 10.7072 25.6714 10.6504C25.6903 10.641 25.706 10.622 25.6871 10.5716L25.5771 10.2659C25.5614 10.2217 25.5143 10.2375 25.5143 10.2375C25.3948 10.2816 25.2251 10.3604 24.8291 10.3604C24.5714 10.3604 24.3797 10.2848 24.2603 10.165C24.1377 10.0421 24.078 9.8624 24.0654 9.61023H25.7311C25.7311 9.61023 25.7751 9.61023 25.7783 9.56926C25.7783 9.55034 25.8349 9.22568 25.728 8.85058L25.7343 8.84743ZM24.078 9.19731C24.1 9.03971 24.144 8.90732 24.2131 8.8033C24.3137 8.6457 24.4708 8.56059 24.6908 8.56059C24.9108 8.56059 25.0523 8.6457 25.156 8.8033C25.2251 8.90732 25.2534 9.04286 25.266 9.19731H24.078Z" fill="var(--fill-0, white)"/>
<path id="Vector_7" fill-rule="evenodd" clip-rule="evenodd" d="M12.3957 8.84743C12.3548 8.68983 12.2511 8.52907 12.182 8.45658C12.0751 8.33995 11.9714 8.26115 11.8645 8.21387C11.7294 8.15398 11.566 8.11615 11.3868 8.11615C11.1794 8.11615 10.9908 8.15082 10.8368 8.22332C10.6828 8.29582 10.5539 8.39353 10.4534 8.51646C10.3528 8.6394 10.2774 8.78439 10.2271 8.95145C10.1799 9.11536 10.1548 9.29503 10.1548 9.48415C10.1548 9.67327 10.1799 9.85609 10.2302 10.0168C10.2805 10.1808 10.3622 10.3226 10.4722 10.4424C10.5822 10.5622 10.7237 10.6567 10.8902 10.7198C11.0568 10.786 11.2611 10.8175 11.4937 10.8175C11.9745 10.8175 12.2291 10.7072 12.3328 10.6504C12.3517 10.641 12.3674 10.622 12.3454 10.5716L12.2354 10.2659C12.2197 10.2217 12.1726 10.2375 12.1726 10.2375C12.0531 10.2816 11.8834 10.3604 11.4874 10.3604C11.2297 10.3604 11.038 10.2848 10.9185 10.165C10.7959 10.0421 10.7362 9.8624 10.7237 9.61023H12.3894C12.3894 9.61023 12.4334 9.61023 12.4366 9.56926C12.4366 9.55034 12.4931 9.22568 12.3863 8.85058L12.3957 8.84743ZM10.7394 9.19731C10.7614 9.03971 10.8054 8.90732 10.8745 8.8033C10.9782 8.6457 11.1322 8.56059 11.3522 8.56059C11.5723 8.56059 11.7137 8.6457 11.8205 8.8033C11.8897 8.90732 11.918 9.04286 11.9305 9.19731H10.7425H10.7394Z" fill="var(--fill-0, white)"/>
<path id="Vector_8" d="M7.80072 9.11536C7.73158 9.10905 7.64672 9.10905 7.53986 9.10905C7.39843 9.10905 7.26014 9.12797 7.12813 9.16264C6.99927 9.19731 6.87984 9.2509 6.77927 9.32339C6.6787 9.39589 6.59698 9.4873 6.53726 9.59762C6.47755 9.70795 6.44926 9.83718 6.44926 9.98218C6.44926 10.1272 6.4744 10.2596 6.52469 10.3636C6.57498 10.4676 6.64727 10.5559 6.74155 10.6252C6.8327 10.6914 6.94899 10.7418 7.08099 10.7733C7.21299 10.8017 7.36071 10.8175 7.521 10.8175C7.69072 10.8175 7.86358 10.8017 8.02701 10.7765C8.19044 10.7481 8.39159 10.7072 8.44502 10.6945C8.50159 10.6819 8.56131 10.6662 8.56131 10.6662C8.60217 10.6567 8.59903 10.6126 8.59903 10.6126V9.08384C8.59903 8.74972 8.50788 8.5007 8.33188 8.34625C8.15587 8.1918 7.9013 8.11615 7.56814 8.11615C7.44243 8.11615 7.24128 8.13191 7.12185 8.15713C7.12185 8.15713 6.75727 8.22647 6.60955 8.34625C6.60955 8.34625 6.57812 8.36517 6.59384 8.41245L6.71327 8.73081C6.72898 8.77178 6.7667 8.75917 6.7667 8.75917C6.7667 8.75917 6.77927 8.75287 6.79498 8.74657C7.11556 8.5732 7.521 8.57635 7.521 8.57635C7.70015 8.57635 7.83844 8.61418 7.93272 8.68352C8.02387 8.75287 8.07101 8.86004 8.07101 9.08068V9.15003C7.92958 9.12797 7.79758 9.11851 7.79758 9.11851L7.80072 9.11536ZM7.13756 10.2879C7.07156 10.2343 7.06213 10.2217 7.04013 10.1902C7.0087 10.1398 6.98985 10.0673 6.98985 9.97272C6.98985 9.82457 7.03699 9.72055 7.13756 9.64806C7.13756 9.64806 7.28214 9.52197 7.62157 9.52828C7.86044 9.52828 8.07416 9.5661 8.07416 9.5661V10.3258C8.07416 10.3258 7.86358 10.3699 7.62472 10.3856C7.28528 10.4046 7.13442 10.2879 7.13756 10.2879Z" fill="var(--fill-0, white)"/>
<path id="Vector_9" fill-rule="evenodd" clip-rule="evenodd" d="M21.2336 8.25492C21.2462 8.21709 21.2211 8.19818 21.2085 8.19503C21.1802 8.18557 21.0388 8.15405 20.9288 8.14775C20.7182 8.13514 20.6019 8.16981 20.4982 8.21709C20.3945 8.26438 20.2813 8.34003 20.2153 8.42513V8.22025C20.2153 8.19188 20.1965 8.16981 20.1682 8.16981H19.7407C19.7124 8.16981 19.6936 8.19188 19.6936 8.22025V10.7135C19.6936 10.7419 19.7156 10.764 19.7439 10.764H20.1807C20.209 10.764 20.231 10.7419 20.231 10.7135V9.46847C20.231 9.30141 20.2499 9.13435 20.2876 9.03033C20.3222 8.92631 20.3725 8.84436 20.4322 8.78447C20.4919 8.72458 20.561 8.6836 20.6365 8.66154C20.715 8.63632 20.7999 8.63002 20.8596 8.63002C20.9476 8.63002 21.0419 8.65208 21.0419 8.65208C21.0733 8.65523 21.0922 8.63632 21.1016 8.60795C21.1299 8.5323 21.2116 8.3022 21.2273 8.25807L21.2336 8.25492Z" fill="var(--fill-0, white)"/>
<path id="Vector_10" fill-rule="evenodd" clip-rule="evenodd" d="M17.1258 7.10137C17.0724 7.08561 17.0252 7.073 16.9624 7.06355C16.8995 7.05094 16.8209 7.04463 16.7361 7.04463C16.4344 7.04463 16.1986 7.12974 16.0321 7.29995C15.8655 7.46701 15.7524 7.72233 15.6989 8.05645L15.6801 8.16992H15.3029C15.3029 8.16992 15.2558 8.16992 15.2463 8.2172L15.1835 8.56393C15.1803 8.5986 15.1929 8.61751 15.2369 8.61751H15.6046L15.2306 10.7073C15.2023 10.8744 15.1678 11.0131 15.13 11.1203C15.0923 11.2243 15.0578 11.2999 15.0138 11.3567C14.9698 11.4102 14.932 11.4512 14.8629 11.4733C14.8063 11.4922 14.7403 11.5017 14.668 11.5017C14.6272 11.5017 14.5738 11.4954 14.5329 11.4859C14.492 11.4796 14.4732 11.4701 14.4417 11.4575C14.4417 11.4575 14.3977 11.4418 14.382 11.4859C14.3695 11.5206 14.2689 11.7916 14.2595 11.8263C14.2469 11.8578 14.2657 11.8862 14.2846 11.8925C14.3349 11.9114 14.3695 11.9209 14.4355 11.9366C14.5266 11.9587 14.6052 11.9587 14.6806 11.9587C14.8346 11.9587 14.9729 11.9366 15.0892 11.8957C15.2055 11.8547 15.3061 11.779 15.3972 11.6813C15.4946 11.5742 15.5543 11.4607 15.6141 11.3062C15.6706 11.1549 15.7209 10.9658 15.7618 10.7452L16.1358 8.61436H16.6858C16.6858 8.61436 16.7329 8.61436 16.7424 8.56708L16.8052 8.22035C16.8084 8.18568 16.7958 8.16677 16.7518 8.16677H16.2206C16.2206 8.16677 16.2489 7.96819 16.3086 7.78852C16.3338 7.71287 16.3841 7.65298 16.4249 7.60885C16.4658 7.56788 16.5129 7.53951 16.5632 7.5206C16.6167 7.50483 16.6764 7.49538 16.7424 7.49538C16.7927 7.49538 16.8429 7.50168 16.8807 7.50799C16.931 7.51744 16.9529 7.52375 16.9655 7.53005C17.019 7.54581 17.0284 7.53005 17.0378 7.50483L17.1667 7.15496C17.1792 7.11713 17.1478 7.10137 17.1352 7.09822L17.1258 7.10137Z" fill="var(--fill-0, white)"/>
<path id="Vector_11" fill-rule="evenodd" clip-rule="evenodd" d="M9.68661 10.7139C9.68661 10.7423 9.66775 10.7643 9.63947 10.7643H9.19631C9.16803 10.7643 9.14917 10.7423 9.14917 10.7139V7.14892C9.14917 7.12055 9.16803 7.09849 9.19631 7.09849H9.63947C9.66775 7.09849 9.68661 7.12055 9.68661 7.14892V10.7139Z" fill="var(--fill-0, white)"/>
</g>
</g>
</svg>
