<svg preserveAspectRatio="none" width="100%" height="100%" overflow="visible" style="display: block;" viewBox="0 0 28.9001 26.6312" fill="none" xmlns="http://www.w3.org/2000/svg">
<g id="Webpage">
<path id="Vector" d="M4.89 4.81864C5.33404 4.81864 5.694 4.46225 5.694 4.02263C5.694 3.583 5.33404 3.22662 4.89 3.22662C4.44596 3.22662 4.086 3.583 4.086 4.02263C4.086 4.46225 4.44596 4.81864 4.89 4.81864Z" fill="var(--fill-0, #011448)"/>
<path id="Vector_2" d="M7.722 4.81864C8.16604 4.81864 8.526 4.46225 8.526 4.02263C8.526 3.583 8.16604 3.22662 7.722 3.22662C7.27796 3.22662 6.918 3.583 6.918 4.02263C6.918 4.46225 7.27796 4.81864 7.722 4.81864Z" fill="var(--fill-0, #011448)"/>
<path id="Vector_3" d="M10.554 4.81864C10.998 4.81864 11.358 4.46225 11.358 4.02263C11.358 3.583 10.998 3.22662 10.554 3.22662C10.11 3.22662 9.75 3.583 9.75 4.02263C9.75 4.46225 10.11 4.81864 10.554 4.81864Z" fill="var(--fill-0, #011448)"/>
<path id="Vector_4" d="M18.5212 17.465L21.1442 26.0013C21.3982 26.828 22.5742 26.8458 22.8532 26.0261L24.0812 22.4183C24.1712 22.1549 24.3792 21.949 24.6452 21.8599L28.2892 20.6441C29.1162 20.3679 29.0992 19.2036 28.2642 18.9521L19.6422 16.3551C18.9552 16.1492 18.3132 16.7848 18.5212 17.465Z" fill="var(--fill-0, #0B6DFF)"/>
<path id="Vector_5" d="M17.087 17.8964C16.863 17.1697 16.997 16.4024 17.453 15.7935C17.905 15.1905 18.623 14.8302 19.376 14.8302C19.613 14.8302 19.849 14.8648 20.079 14.9341L27.831 17.2677V3.68304C27.831 1.65341 26.161 0 24.111 0H3.72C1.67 0 0 1.65341 0 3.68304V20.1676C0 22.2071 1.67 23.8605 3.73 23.8605H18.918L17.087 17.8964ZM1.8 6.277V3.68403C1.8 2.63555 2.661 1.7831 3.72 1.7831H24.11C25.169 1.7831 26.03 2.63555 26.03 3.68403V6.277H1.8Z" fill="var(--fill-0, #011448)"/>
</g>
</svg>
