<svg width="24" height="24" viewBox="0 0 24 24" fill="none" xmlns="http://www.w3.org/2000/svg">
<path d="M6.58594 20.4807H2.08594C1.87883 20.4807 1.71094 20.6485 1.71094 20.8557V22.125C1.71094 22.3321 1.87883 22.5 2.08594 22.5H6.58594C6.79304 22.5 6.96094 22.3321 6.96094 22.125V20.8557C6.96094 20.6485 6.79304 20.4807 6.58594 20.4807Z" fill="white"/>
<path d="M6.58594 18.0577H2.08594C1.87883 18.0577 1.71094 18.2256 1.71094 18.4327V19.2982C1.71094 19.5053 1.87883 19.6732 2.08594 19.6732H6.58594C6.79304 19.6732 6.96094 19.5053 6.96094 19.2982V18.4327C6.96094 18.2256 6.79304 18.0577 6.58594 18.0577Z" fill="white"/>
<path d="M6.58594 4.3269H2.08594C1.98648 4.3269 1.8911 4.36641 1.82077 4.43674C1.75045 4.50707 1.71094 4.60245 1.71094 4.7019V16.875C1.71094 16.9744 1.75045 17.0698 1.82077 17.1402C1.8911 17.2105 1.98648 17.25 2.08594 17.25H6.58594C6.68539 17.25 6.78078 17.2105 6.8511 17.1402C6.92143 17.0698 6.96094 16.9744 6.96094 16.875V4.7019C6.96094 4.60245 6.92143 4.50707 6.8511 4.43674C6.78078 4.36641 6.68539 4.3269 6.58594 4.3269ZM6.15326 14.4231C6.153 14.7443 6.02527 15.0523 5.79812 15.2795C5.57097 15.5066 5.26296 15.6343 4.94172 15.6346H3.73018C3.40915 15.6337 3.10153 15.5057 2.87453 15.2787C2.64753 15.0517 2.51958 14.7441 2.51864 14.4231V7.96152C2.51957 7.64049 2.64752 7.33287 2.87452 7.10587C3.10153 6.87886 3.40914 6.75092 3.73018 6.74999H4.94172C5.26296 6.75024 5.57097 6.87796 5.79813 7.10512C6.02528 7.33227 6.15301 7.64028 6.15326 7.96152V14.4231Z" fill="white"/>
<path d="M6.58594 1.5H2.08594C1.87883 1.5 1.71094 1.66789 1.71094 1.875V3.14438C1.71094 3.35148 1.87883 3.51938 2.08594 3.51938H6.58594C6.79304 3.51938 6.96094 3.35148 6.96094 3.14438V1.875C6.96094 1.66789 6.79304 1.5 6.58594 1.5Z" fill="white"/>
<path d="M12.6445 6.34613H8.14453C7.93742 6.34613 7.76953 6.51402 7.76953 6.72113V7.99051C7.76953 8.19761 7.93742 8.36551 8.14453 8.36551H12.6445C12.8516 8.36551 13.0195 8.19761 13.0195 7.99051V6.72113C13.0195 6.51402 12.8516 6.34613 12.6445 6.34613Z" fill="white"/>
<path d="M12.6445 9.17328H8.14453C7.93742 9.17328 7.76953 9.34117 7.76953 9.54828V18.0867C7.76953 18.2938 7.93742 18.4617 8.14453 18.4617H12.6445C12.8516 18.4617 13.0195 18.2938 13.0195 18.0867V9.54828C13.0195 9.34117 12.8516 9.17328 12.6445 9.17328Z" fill="white"/>
<path d="M12.6445 19.2693H8.14453C7.93742 19.2693 7.76953 19.4372 7.76953 19.6443V22.125C7.76953 22.3321 7.93742 22.5 8.14453 22.5H12.6445C12.8516 22.5 13.0195 22.3321 13.0195 22.125V19.6443C13.0195 19.4372 12.8516 19.2693 12.6445 19.2693Z" fill="white"/>
<path d="M3.73003 7.55768H4.94155C5.04866 7.55768 5.15139 7.60023 5.22713 7.67597C5.30287 7.75171 5.34542 7.85444 5.34542 7.96155V14.4231C5.34542 14.5302 5.30288 14.6329 5.22714 14.7086C5.15141 14.7844 5.04869 14.8269 4.94159 14.8269H3.73001C3.6229 14.8269 3.52019 14.7844 3.44445 14.7086C3.36872 14.6329 3.32617 14.5302 3.32617 14.4231V7.96154C3.32618 7.85443 3.36873 7.75171 3.44446 7.67597C3.5202 7.60023 3.62292 7.55768 3.73003 7.55768Z" fill="white"/>
<path d="M22.1334 20.2286C22.1249 20.18 22.1069 20.1337 22.0805 20.0921C22.054 20.0505 22.0196 20.0145 21.9793 19.9862C21.9389 19.9579 21.8934 19.9379 21.8453 19.9272C21.7972 19.9165 21.7475 19.9154 21.6989 19.924L16.8685 20.7752C16.7706 20.7924 16.6836 20.8478 16.6266 20.9292C16.5695 21.0106 16.5471 21.1113 16.5642 21.2092L16.7135 22.0615C16.722 22.1101 16.74 22.1565 16.7664 22.1981C16.7929 22.2396 16.8272 22.2756 16.8676 22.3039C16.9079 22.3322 16.9535 22.3522 17.0016 22.3629C17.0497 22.3736 17.0994 22.3747 17.148 22.3662L21.9783 21.515C22.0762 21.4977 22.1632 21.4423 22.2203 21.361C22.2774 21.2796 22.2998 21.1789 22.2827 21.081L22.1334 20.2286Z" fill="white"/>
<path d="M18.7564 3.22114C18.805 3.21256 18.8513 3.1945 18.8928 3.16799C18.9344 3.14149 18.9703 3.10706 18.9985 3.06667C19.0267 3.02628 19.0467 2.98073 19.0573 2.93262C19.0679 2.88451 19.0689 2.83478 19.0603 2.78627L18.9088 1.9333C18.8914 1.83547 18.8359 1.74854 18.7545 1.69159C18.673 1.63465 18.5723 1.61235 18.4745 1.62959L13.6439 2.4808C13.5954 2.48935 13.549 2.50738 13.5074 2.53386C13.4659 2.56034 13.43 2.59475 13.4017 2.63513C13.3735 2.6755 13.3534 2.72105 13.3428 2.76917C13.3322 2.81728 13.3311 2.86702 13.3397 2.91554L13.4915 3.77199C13.5089 3.8699 13.5644 3.95691 13.6459 4.01389C13.7274 4.07086 13.8282 4.09314 13.9261 4.07581L18.7564 3.22114Z" fill="white"/>
<path d="M21.5576 19.1283C21.6061 19.1198 21.6524 19.1018 21.694 19.0753C21.7355 19.0489 21.7714 19.0145 21.7997 18.9741C21.828 18.9338 21.848 18.8883 21.8586 18.8402C21.8693 18.7921 21.8704 18.7424 21.8618 18.6939L19.3267 4.32085C19.3182 4.27233 19.3001 4.22598 19.2737 4.18444C19.2472 4.1429 19.2128 4.10698 19.1724 4.07874C19.1321 4.05049 19.0865 4.03048 19.0384 4.01984C18.9903 4.0092 18.9406 4.00814 18.8921 4.01672L14.0616 4.87142C13.9637 4.88874 13.8767 4.94424 13.8197 5.0257C13.7627 5.10716 13.7404 5.20793 13.7577 5.30584L16.2928 19.6754C16.31 19.7733 16.3655 19.8604 16.447 19.9174C16.5284 19.9744 16.6292 19.9968 16.7271 19.9795L21.5576 19.1283ZM16.0348 10.2715L16.051 10.0777L15.8612 9.9323C15.7411 9.84017 15.6494 9.71614 15.5965 9.57437C15.5436 9.43261 15.5316 9.27882 15.562 9.13057C15.5923 8.98233 15.6637 8.84559 15.768 8.73599C15.8723 8.62639 16.0054 8.54834 16.152 8.51075L16.2569 8.48652L16.4346 8.07863C16.5251 7.88044 16.6888 7.72502 16.8914 7.64502C17.0941 7.56502 17.3198 7.56667 17.5212 7.64963C17.577 7.67029 17.627 7.70387 17.6673 7.74761L18.0662 8.16749L18.1712 8.15538C18.3218 8.14049 18.4736 8.16817 18.6092 8.23529C18.7449 8.30241 18.859 8.40626 18.9385 8.53503C19.018 8.6638 19.0598 8.81231 19.0591 8.96366C19.0584 9.115 19.0152 9.26311 18.9344 9.39112L18.8052 9.59303L18.886 9.77074C18.9532 9.91317 18.9771 10.0722 18.9547 10.2281C18.9324 10.384 18.8648 10.5299 18.7603 10.6477C18.6558 10.7655 18.519 10.85 18.3669 10.8909C18.2148 10.9317 18.0541 10.9269 17.9046 10.8773L17.5937 10.7763L17.3352 10.9782C17.1946 11.0916 17.0191 11.153 16.8385 11.1519C16.7046 11.1514 16.5729 11.1181 16.4549 11.055C16.3155 10.9802 16.2013 10.866 16.1266 10.7266C16.0519 10.5873 16.02 10.429 16.0348 10.2715ZM16.5437 14.6977C16.5744 14.5499 16.6459 14.4137 16.7502 14.3044C16.8544 14.1952 16.9871 14.1174 17.1333 14.0798L17.2383 14.0515L17.416 13.6436C17.4702 13.5225 17.5533 13.4165 17.6579 13.3349C17.7625 13.2533 17.8855 13.1985 18.0162 13.1754C18.1469 13.1523 18.2812 13.1616 18.4075 13.2023C18.5338 13.2431 18.6481 13.3142 18.7406 13.4094L19.0475 13.7325L19.305 13.7126C19.3638 13.7072 19.423 13.7157 19.4779 13.7375C19.5956 13.7784 19.7026 13.8451 19.791 13.9328C19.8795 14.0205 19.9472 14.1268 19.9892 14.2441C20.0312 14.3614 20.0464 14.4866 20.0337 14.6105C20.021 14.7344 19.9807 14.8539 19.9158 14.9602L19.7866 15.1621L19.8673 15.3398C19.9345 15.4822 19.9584 15.6412 19.9361 15.7971C19.9137 15.953 19.8461 16.0989 19.7416 16.2167C19.6371 16.3345 19.5003 16.4191 19.3482 16.4599C19.1961 16.5007 19.0354 16.496 18.886 16.4463L18.575 16.3454L18.3166 16.5473C18.175 16.659 18.0001 16.7201 17.8198 16.721C17.6854 16.721 17.5532 16.6862 17.4362 16.62C17.2967 16.5465 17.1823 16.4331 17.1075 16.2943C17.0327 16.1554 17.0009 15.9975 17.0162 15.8406L17.0324 15.6467L16.8425 15.5013C16.7223 15.4089 16.6305 15.2846 16.5777 15.1424C16.5248 15.0003 16.513 14.8462 16.5437 14.6977Z" fill="white"/>
<path d="M16.8401 10.3442L17.0985 10.1423C17.2019 10.0593 17.3245 10.0036 17.4551 9.98029C17.5856 9.95701 17.7199 9.96688 17.8456 10.009L18.1566 10.11L18.0758 9.93229C18.0178 9.81017 17.9917 9.67529 18.0002 9.54033C18.0087 9.40538 18.0514 9.27481 18.1243 9.16093L18.2535 8.95901L18.1485 8.97111C18.0262 8.98174 17.903 8.96517 17.7878 8.92258C17.6726 8.87999 17.5682 8.81245 17.4822 8.72478L17.1752 8.40167L16.9976 8.80956C16.9485 8.92213 16.8742 9.02187 16.7804 9.10103C16.6865 9.18018 16.5757 9.2366 16.4564 9.26591L16.3555 9.2942L16.5453 9.43956C16.6525 9.52252 16.7371 9.63107 16.7915 9.75527C16.8458 9.87946 16.8681 10.0153 16.8562 10.1504L16.8401 10.3442Z" fill="white"/>
<path d="M17.8367 15.7154L17.8206 15.9092L18.079 15.7073C18.1832 15.6257 18.3059 15.5712 18.4363 15.5487C18.5667 15.5261 18.7006 15.5362 18.8261 15.5781L19.1371 15.679L19.0563 15.5013C18.9992 15.379 18.9737 15.2442 18.9821 15.1095C18.9906 14.9747 19.0328 14.8442 19.1048 14.73L19.234 14.5281L19.129 14.5361C19.0071 14.549 18.8839 14.5334 18.7689 14.4907C18.654 14.448 18.5506 14.3792 18.4667 14.2898L18.1557 13.9708L17.978 14.3787C17.9289 14.4912 17.8546 14.5908 17.7607 14.67C17.6669 14.7491 17.5561 14.8056 17.4369 14.835L17.3359 14.8632L17.5257 15.0087C17.6329 15.0908 17.7175 15.1986 17.7719 15.3221C17.8262 15.4457 17.8485 15.5809 17.8367 15.7154Z" fill="white"/>
</svg>
