<svg width="40" height="40" viewBox="0 0 40 40" fill="none" xmlns="http://www.w3.org/2000/svg">
<path fill-rule="evenodd" clip-rule="evenodd" d="M26.4455 23.8975C26.4455 20.3697 29.3045 17.5107 32.8323 17.5107C36.36 17.5107 39.2191 20.3697 39.2191 23.8975C39.2191 25.0446 38.9157 26.1232 38.3841 27.0555C38.0741 25.7932 37.082 24.8963 35.8551 24.3781C36.205 23.8244 36.4087 23.1689 36.4087 22.4669C36.4087 20.4915 34.8054 18.8904 32.8322 18.8904C30.859 18.8904 29.2556 20.4914 29.2556 22.4669C29.2556 23.1689 29.4572 23.8244 29.8093 24.3781C28.5824 24.8963 27.5903 25.7932 27.2802 27.0555C26.7488 26.1232 26.4453 25.0446 26.4453 23.8975H26.4455Z" fill="white"/>
<path fill-rule="evenodd" clip-rule="evenodd" d="M10.8415 22.334L7.69684 25.4787C5.82777 27.3478 5.82777 30.4327 7.69684 32.3017C9.5659 34.1709 12.653 34.1709 14.5221 32.3017L17.6668 29.1592L21.5667 33.0569L18.422 36.2016C14.4004 40.2232 7.81863 40.2232 3.79699 36.2016C-0.224648 32.1799 -0.224648 25.6004 3.79699 21.5788L6.94168 18.4341L10.8415 22.3339V22.334Z" fill="white"/>
<path d="M18.3242 28.4946L20.9414 25.8774L24.8407 29.7767L22.2235 32.3939L18.3242 28.4946Z" fill="white"/>
<path fill-rule="evenodd" clip-rule="evenodd" d="M14.1236 19.0522L11.5038 21.6698L7.604 17.7721L10.2238 15.1523L14.1236 19.0522Z" fill="white"/>
<path fill-rule="evenodd" clip-rule="evenodd" d="M32.8321 19.8291C34.2893 19.8291 35.4697 21.0095 35.4697 22.4667C35.4697 23.9239 34.2893 25.1064 32.8321 25.1064C31.375 25.1064 30.1924 23.9239 30.1924 22.4667C30.1924 21.0095 31.375 19.8291 32.8321 19.8291Z" fill="white"/>
<path fill-rule="evenodd" clip-rule="evenodd" d="M16.1036 3.10059C14.6464 3.10059 13.4639 4.28098 13.4639 5.73809C13.4639 7.1952 14.6464 8.37785 16.1036 8.37785C17.5608 8.37785 18.7412 7.19527 18.7412 5.73809C18.7412 4.2809 17.5609 3.10059 16.1036 3.10059Z" fill="white"/>
<path fill-rule="evenodd" clip-rule="evenodd" d="M32.8321 3.10059C34.2893 3.10059 35.4697 4.28098 35.4697 5.73809C35.4697 7.1952 34.2893 8.37785 32.8321 8.37785C31.375 8.37785 30.1924 7.19527 30.1924 5.73809C30.1924 4.2809 31.375 3.10059 32.8321 3.10059Z" fill="white"/>
<path fill-rule="evenodd" clip-rule="evenodd" d="M37.5471 28.2049C36.3801 29.4827 34.6991 30.2821 32.8323 30.2821C30.9654 30.2821 29.2845 29.4827 28.1152 28.2049V27.9081C28.1152 26.5396 29.1096 25.6138 30.4494 25.1333C31.8047 26.3469 33.8576 26.3469 35.2151 25.1333C36.5549 25.6138 37.547 26.5396 37.547 27.9081V28.2049H37.5471Z" fill="white"/>
<path fill-rule="evenodd" clip-rule="evenodd" d="M37.5471 11.4759C36.3801 12.7537 34.6991 13.5554 32.8323 13.5554C30.9654 13.5554 29.2845 12.7537 28.1152 11.4759V11.1814C28.1152 9.81055 29.1096 8.88711 30.4494 8.4043C31.8069 9.61789 33.8576 9.61789 35.2151 8.4043C36.5549 8.88711 37.547 9.81055 37.547 11.1814V11.4759H37.5471Z" fill="white"/>
<path fill-rule="evenodd" clip-rule="evenodd" d="M11.3887 11.4759C12.5558 12.7537 14.2366 13.5554 16.1035 13.5554C17.9704 13.5554 19.6513 12.7537 20.8184 11.4759V11.1814C20.8184 9.81055 19.8263 8.88711 18.4864 8.4043C17.1289 9.61789 15.0782 9.61789 13.7207 8.4043C12.3809 8.88484 11.3888 9.81055 11.3888 11.1814V11.4759H11.3887Z" fill="white"/>
<path fill-rule="evenodd" clip-rule="evenodd" d="M16.1035 2.16143C18.0789 2.16143 19.6801 3.76478 19.6801 5.73791C19.6801 6.43994 19.4763 7.09541 19.1264 7.64908C20.3533 8.16728 21.3454 9.06416 21.6555 10.3265C22.187 9.39416 22.4904 8.31791 22.4904 7.16853C22.4904 3.64072 19.6314 0.781738 16.1036 0.781738C12.5758 0.781738 9.7168 3.64072 9.7168 7.16853C9.7168 8.31791 10.0202 9.39416 10.5517 10.3265C10.8618 9.06424 11.8539 8.16728 13.0808 7.64908C12.7309 7.09541 12.5272 6.43994 12.5272 5.73791C12.5272 3.76471 14.1284 2.16143 16.1037 2.16143H16.1035Z" fill="white"/>
<path fill-rule="evenodd" clip-rule="evenodd" d="M32.8325 2.16143C34.8057 2.16143 36.409 3.76478 36.409 5.73791C36.409 6.43994 36.2053 7.09541 35.8554 7.64908C37.0823 8.16728 38.0744 9.06416 38.3845 10.3265C38.916 9.39416 39.2194 8.31791 39.2194 7.16853C39.2194 3.64072 36.3604 0.781738 32.8326 0.781738C29.3048 0.781738 26.4458 3.64072 26.4458 7.16853C26.4458 8.31791 26.7492 9.39416 27.2807 10.3265C27.5907 9.06424 28.5828 8.16728 29.8098 7.64908C29.4577 7.09541 29.2561 6.43994 29.2561 5.73791C29.2561 3.76471 30.8573 2.16143 32.8327 2.16143H32.8325Z" fill="white"/>
</svg>
