<svg width="14" height="13" viewBox="0 0 14 13" fill="none" xmlns="http://www.w3.org/2000/svg">
<path fill-rule="evenodd" clip-rule="evenodd" d="M3.08784 13V4.22847H0.172347V13H3.08784ZM1.63008 3.03087C2.64677 3.03087 3.27958 2.35731 3.27958 1.51556C3.26063 0.654865 2.64677 -9.53674e-07 1.64937 -9.53674e-07C0.652065 -9.53674e-07 0 0.654865 0 1.51556C0 2.35731 0.632671 3.03087 1.61108 3.03087H1.63008Z" fill="#011448"/>
<path fill-rule="evenodd" clip-rule="evenodd" d="M4.70142 13H7.61688V8.10161C7.61688 7.83945 7.63583 7.57756 7.71281 7.39016C7.92358 6.86637 8.4033 6.32389 9.20871 6.32389C10.2637 6.32389 10.6857 7.12826 10.6857 8.30744V13H13.6009V7.97053C13.6009 5.27631 12.1626 4.02264 10.2444 4.02264C8.6716 4.02264 7.98112 4.90177 7.59749 5.50057H7.61696V4.22847H4.7015C4.73975 5.05153 4.70142 13 4.70142 13Z" fill="#011448"/>
</svg>
