<svg width="30" height="30" viewBox="0 0 30 30" fill="none" xmlns="http://www.w3.org/2000/svg">
<path d="M29.9993 12.3125C29.9993 6.56361 24.4221 1.8866 17.5671 1.8866C10.7119 1.8866 5.13477 6.56366 5.13477 12.3125C5.13477 18.0614 10.7119 22.7385 17.5671 22.7385C18.1435 22.7385 18.7219 22.7051 19.2905 22.6392C21.9309 24.3165 23.8801 25.2346 25.0881 25.3689C25.1302 25.3734 25.1725 25.3758 25.2139 25.3758C25.6019 25.3758 25.9611 25.1824 26.175 24.8581C26.414 24.4954 26.4296 24.0352 26.2167 23.6594C26.2068 23.6415 25.2745 21.9406 25.5434 20.3158C28.3798 18.3309 29.9993 15.4302 29.9993 12.3125ZM14.1907 13.8871C13.1735 13.8871 12.3492 13.0626 12.3492 12.0455C12.3492 11.0284 13.1735 10.2039 14.1907 10.2039C15.2078 10.2039 16.0325 11.0285 16.0325 12.0455C16.0325 13.0626 15.2078 13.8871 14.1907 13.8871ZM20.9437 13.8871C19.9264 13.8871 19.1018 13.0626 19.1018 12.0455C19.1018 11.0284 19.9264 10.2039 20.9437 10.2039C21.9607 10.2039 22.7853 11.0285 22.7853 12.0455C22.7853 13.0626 21.9607 13.8871 20.9437 13.8871Z" fill="#011448"/>
<path d="M7.76191 20.654C6.52833 19.6326 5.55593 18.437 4.87211 17.1005C4.15108 15.6914 3.78554 14.1925 3.78554 12.6454C3.78554 11.0983 4.15113 9.59946 4.87211 8.19039C4.9273 8.08254 4.9851 7.97602 5.04397 7.87C1.99902 9.6145 0 12.5261 0 15.8174C0 18.7744 1.59289 21.5161 4.37569 23.3603C4.88966 25.3808 3.69696 27.5185 3.68436 27.5404C3.61328 27.6657 3.61853 27.8204 3.69784 27.9407C3.76931 28.0492 3.89 28.1133 4.01809 28.1133C4.03225 28.1133 4.04637 28.1125 4.06069 28.1109C5.45294 27.9563 7.90466 26.5413 9.76201 25.3481C10.3875 25.433 11.027 25.476 11.665 25.476C14.105 25.476 16.372 24.852 18.2466 23.7873C17.8278 23.8208 17.4059 23.8387 16.9853 23.8387C13.5179 23.8387 10.2424 22.7077 7.76191 20.654Z" fill="#011448"/>
</svg>
