<svg preserveAspectRatio="none" width="100%" height="100%" overflow="visible" style="display: block;" viewBox="0 0 106 29.9992" fill="none" xmlns="http://www.w3.org/2000/svg">
<g id="Group">
<path id="Vector" d="M11.4802 16.9791H3.69618V25.1653H0V4.96615H3.69618V13.4288H11.4802V4.96615H15.1755V25.1653H11.4802V16.9791Z" fill="var(--fill-0, #FF4800)"/>
<path id="Vector_2" d="M27.0026 18.6359C27.0026 20.318 25.6302 21.6874 23.9454 21.6874C22.2607 21.6874 20.889 20.3188 20.889 18.6359V9.98455H17.3887V18.6359C17.3887 22.2453 20.3303 25.1813 23.9454 25.1813C27.5606 25.1813 30.5013 22.2453 30.5013 18.6359V9.98455H27.0026V18.6359Z" fill="var(--fill-0, #FF4800)"/>
<path id="Vector_3" d="M52.9738 10.8753C52.9738 9.10138 54.1496 8.53929 55.4368 8.53929C56.4734 8.53929 57.845 9.32723 58.7405 10.2846L61.0355 7.5828C59.8885 6.03557 57.5647 4.96615 55.6614 4.96615C51.8529 4.96615 49.1088 7.18925 49.1088 10.8762C49.1088 17.714 57.4812 15.5465 57.4812 19.3741C57.4812 20.5548 56.3332 21.5964 55.0182 21.5964C52.946 21.5964 52.2733 20.5834 51.322 19.514L48.7737 22.1585C50.3986 24.1566 52.4142 25.1704 54.8223 25.1704C58.4341 25.1704 61.3462 22.9195 61.3462 19.4011C61.3462 11.804 52.9747 14.1678 52.9747 10.8762L52.9738 10.8753Z" fill="var(--fill-0, #FF4800)"/>
<path id="Vector_4" d="M104.767 21.9385C102.695 21.9385 102.108 21.0444 102.108 19.6742V13.6083H105.327V10.534H102.108V6.48052L98.5528 8.07411V20.4301C98.5528 23.5894 100.736 25.183 103.73 25.183C104.179 25.183 104.795 25.1544 105.131 25.0709L106 21.8846C105.608 21.9116 105.16 21.9394 104.767 21.9394V21.9385Z" fill="var(--fill-0, #FF4800)"/>
<path id="Vector_5" d="M40.3434 10.0857C38.6072 10.0857 37.3959 10.5888 36.2252 11.7357V5.08667H32.7139V17.4098C32.7139 22.022 36.0539 25.1813 39.8074 25.1813C43.9797 25.1813 47.6345 21.9664 47.6345 17.6339C47.6345 13.3015 44.2641 10.0857 40.3434 10.0857ZM40.3215 21.6537C38.1218 21.6537 36.3391 19.8739 36.3391 17.6778C36.3391 15.4816 38.1218 13.7018 40.3215 13.7018C42.5211 13.7018 44.3038 15.4816 44.3038 17.6778C44.3038 19.8739 42.5211 21.6537 40.3215 21.6537Z" fill="var(--fill-0, #FF4800)"/>
<path id="Vector_6" d="M78.4639 17.4519C78.4639 13.1195 74.8082 9.90449 70.6368 9.90449C66.8841 9.90449 63.5433 13.0639 63.5433 17.6761V29.9992H67.0546V23.3493C68.2253 24.4962 69.4366 24.9993 71.1728 24.9993C75.0935 24.9993 78.4639 21.7287 78.4639 17.4511V17.4519ZM75.1332 17.4089C75.1332 19.605 73.3505 21.3849 71.1509 21.3849C68.9512 21.3849 67.1686 19.605 67.1686 17.4089C67.1686 15.2128 68.9512 13.433 71.1509 13.433C73.3505 13.433 75.1332 15.2128 75.1332 17.4089Z" fill="var(--fill-0, #FF4800)"/>
<path id="Vector_7" d="M89.8099 9.73511V6.21338C90.7308 5.77938 91.3757 4.84902 91.3757 3.77033V3.68859C91.3757 2.1995 90.1551 0.98093 88.6637 0.98093H88.5826C87.0911 0.98093 85.8706 2.1995 85.8706 3.68859V3.77033C85.8706 4.84986 86.5155 5.77938 87.4364 6.21338V9.73511C86.0656 9.94663 84.813 10.5113 83.7799 11.3413L74.0958 3.82005C74.1592 3.57482 74.2039 3.32285 74.2047 3.05824C74.2056 1.37111 72.8382 0.00253166 71.1484 3.50351e-06C69.4585 -0.00252466 68.0878 1.36352 68.0852 3.05065C68.0835 4.73778 69.4509 6.10635 71.1408 6.10888C71.6911 6.10888 72.2009 5.95382 72.6474 5.70016L82.1736 13.0984C81.3633 14.3195 80.8889 15.7816 80.8889 17.3558C80.8889 18.93 81.4106 20.5287 82.2918 21.7826L79.3949 24.6749C79.1662 24.6066 78.9281 24.5586 78.6766 24.5586C77.2881 24.5586 76.163 25.6819 76.163 27.0682C76.163 28.4545 77.289 29.5778 78.6766 29.5778C80.0643 29.5778 81.1903 28.4545 81.1903 27.0682C81.1903 26.817 81.1421 26.5794 81.0738 26.351L83.9394 23.49C85.2401 24.481 86.8599 25.0768 88.6231 25.0768C92.8941 25.0768 96.3565 21.62 96.3565 17.3558C96.3565 13.4953 93.5162 10.3065 89.8099 9.73511ZM88.6223 21.3141C86.4328 21.3141 84.6569 19.5418 84.6569 17.3558C84.6569 15.1698 86.4319 13.3976 88.6223 13.3976C90.8126 13.3976 92.5869 15.1698 92.5869 17.3558C92.5869 19.5418 90.8118 21.3141 88.6223 21.3141Z" fill="var(--fill-0, #FF4800)"/>
</g>
</svg>
