<svg preserveAspectRatio="none" width="100%" height="100%" overflow="visible" style="display: block;" viewBox="0 0 185 34.9997" fill="none" xmlns="http://www.w3.org/2000/svg">
<g id="Logo">
<g id="Chat Icon">
<path id="Union" d="M20.5871 2.29501C24.2547 2.27566 27.5777 3.4471 30.2648 5.97665C30.3329 6.03937 30.4008 6.10245 30.4709 6.16708C31.7238 7.36063 33.4244 9.52869 33.5617 11.3155C33.5629 11.3883 33.5644 11.4612 33.5656 11.5362C33.5676 11.6092 33.5694 11.6827 33.5715 11.7579C33.5395 12.0156 33.505 12.0991 33.3117 12.2755C33.0705 12.3069 32.8576 12.3188 32.6164 12.3165C32.5481 12.3168 32.4797 12.3172 32.4094 12.3175C32.2649 12.3177 32.1202 12.3168 31.9758 12.3155C31.755 12.3139 31.5344 12.3155 31.3137 12.3175C31.1734 12.3173 31.033 12.3171 30.8928 12.3165C30.8268 12.3171 30.7605 12.3178 30.6926 12.3184C30.2363 12.3112 30.2361 12.3108 29.9963 12.1368C29.9925 12.1314 29.9893 12.1256 29.9855 12.1202H29.9523C29.9196 12.053 29.8873 11.9853 29.8547 11.9181C29.8029 11.831 29.7554 11.7424 29.7121 11.6436C29.6846 11.5827 29.6564 11.5218 29.6281 11.4591C29.6138 11.4269 29.5995 11.3948 29.5851 11.3624C29.5773 11.3461 29.5695 11.3298 29.5617 11.3136C29.5244 11.237 29.4868 11.16 29.4484 11.0811C29.3956 10.9715 29.3958 10.9713 29.342 10.8595C29.3228 10.8198 29.3028 10.7804 29.2834 10.7403C29.0689 10.3283 28.8339 9.93884 28.5461 9.55379C28.4974 9.48811 28.4488 9.42225 28.3986 9.35458C27.2879 7.91658 25.8414 6.88132 24.132 6.26376C24.0831 6.24585 24.034 6.22751 23.9836 6.20907C22.7681 5.79525 21.5819 5.78771 20.3107 5.79305C20.1194 5.79309 19.9279 5.79317 19.7365 5.79305C19.3368 5.79306 18.9369 5.79359 18.5373 5.79501C18.0282 5.79677 17.519 5.79748 17.0099 5.79696C16.6151 5.7967 16.2202 5.79717 15.8254 5.79794C15.6379 5.79823 15.4503 5.79806 15.2629 5.79794C12.5284 5.79763 9.94133 6.32216 7.76385 8.07626C7.72069 8.11102 7.67745 8.14591 7.63299 8.18172C5.35484 10.0322 3.8706 12.6162 3.5451 15.5411C3.44194 17.6611 3.71812 19.7141 4.71697 21.6065C4.78797 21.7429 4.78822 21.743 4.86053 21.8819C5.71207 23.44 6.94351 24.6943 8.39861 25.7061C8.96492 26.1071 9.38195 26.5206 9.56072 27.2052C9.58504 27.447 9.58961 27.6879 9.59295 27.9307C9.59446 27.9991 9.59627 28.0674 9.59783 28.1378C9.60248 28.3548 9.60594 28.5721 9.60955 28.7891C9.61253 28.9369 9.6162 29.0848 9.61931 29.2325C9.62679 29.5934 9.63276 29.9546 9.63885 30.3155C10.1148 30.0613 10.5689 29.7861 11.0158 29.4845C11.1394 29.4017 11.2633 29.3182 11.3869 29.2354C11.4477 29.1946 11.5089 29.1544 11.5715 29.1124C11.8769 28.9075 12.1838 28.7041 12.4904 28.5011C12.7425 28.334 12.9943 28.1659 13.2453 27.9972C13.3254 27.9434 13.3257 27.9435 13.4074 27.8888C13.51 27.82 13.6127 27.7509 13.715 27.6817C14.0302 27.4709 14.2626 27.3511 14.6428 27.3497C14.707 27.3493 14.7719 27.3492 14.8381 27.3487C14.9083 27.3486 14.9786 27.3478 15.051 27.3477C15.1621 27.3471 15.1622 27.3474 15.2756 27.3468C15.437 27.3459 15.5985 27.3453 15.7599 27.3448C16.0166 27.3439 16.2738 27.3426 16.5304 27.3409C17.2603 27.3361 17.9901 27.3318 18.7199 27.3292C19.1664 27.3275 19.6132 27.3248 20.0597 27.3214C20.229 27.3203 20.3983 27.3197 20.5676 27.3194C21.7675 27.3175 22.9209 27.2618 24.0588 26.8399C24.1131 26.8202 24.1679 26.8007 24.2238 26.7804C25.2316 26.4007 26.2411 25.8594 26.9992 25.085C27.1393 24.9502 27.1398 24.9503 27.2961 24.9503C27.317 24.9037 27.338 24.8567 27.3595 24.8087C27.4538 24.6365 27.5407 24.5444 27.6867 24.4151C28.6997 23.4277 29.357 22.0835 29.8508 20.7784C29.9594 20.498 30.0066 20.3775 30.2648 20.2061C30.499 20.189 30.7258 20.1814 30.9601 20.1807C31.0284 20.1802 31.0968 20.1793 31.1672 20.1788C31.3116 20.178 31.4563 20.1778 31.6008 20.1778C31.8215 20.1775 32.0421 20.1749 32.2629 20.172C32.4032 20.1715 32.5435 20.1711 32.6838 20.171C32.7498 20.1699 32.816 20.1682 32.884 20.1671C33.3426 20.1706 33.3427 20.171 33.5851 20.3546C33.7908 20.641 33.7909 20.8167 33.7463 21.1681C33.6644 21.5523 33.4914 21.8957 33.3215 22.2481C33.2832 22.329 33.2447 22.4099 33.2053 22.4932C32.6424 23.6729 32.075 24.8388 31.2804 25.8829C31.2321 25.9483 31.1838 26.0138 31.134 26.0811C30.0731 27.4632 28.6728 28.5604 27.1398 29.3819C27.0904 29.4086 27.0404 29.4354 26.9894 29.463C25.0082 30.5131 22.8741 30.7908 20.6623 30.795C20.4295 30.7956 20.1968 30.7965 19.964 30.7979C19.3025 30.802 18.6402 30.8055 17.9787 30.8067C17.5725 30.8075 17.1661 30.8103 16.7599 30.8136C16.606 30.8145 16.452 30.8147 16.298 30.8145C16.0827 30.8144 15.8669 30.8163 15.6515 30.8184C15.5887 30.8179 15.5259 30.817 15.4611 30.8165C15.0198 30.8237 14.772 30.9258 14.4045 31.17C14.3134 31.2276 14.3137 31.2285 14.2209 31.2872C14.139 31.342 14.1384 31.3417 14.0549 31.3975C13.9918 31.4396 13.9284 31.4821 13.8635 31.5255C13.7968 31.5702 13.73 31.6152 13.6613 31.6612L12.9933 32.1065C12.4006 32.5012 11.8052 32.8922 11.2101 33.2833C11.0594 33.3824 10.9086 33.4818 10.758 33.5811C10.5355 33.7279 10.3128 33.8742 10.09 34.0206C10.0237 34.0645 9.95721 34.1092 9.88885 34.1544C8.54605 35.0345 8.54528 35.0342 7.76385 34.9806C7.34082 34.8344 7.07343 34.5661 6.82635 34.2032C6.67875 33.8963 6.64822 33.6427 6.6408 33.3038C6.63819 33.2021 6.63568 33.1 6.63299 32.9952C6.63195 32.9414 6.63113 32.8875 6.63006 32.8321C6.62675 32.6625 6.62182 32.4929 6.61736 32.3233C6.60649 31.9022 6.59741 31.4808 6.58806 31.0597C6.5801 30.7033 6.57204 30.3466 6.56267 29.9903C6.55854 29.8237 6.55515 29.657 6.55193 29.4903C6.54932 29.3889 6.54681 29.2871 6.54412 29.1827C6.54119 29.0489 6.54125 29.0485 6.53826 28.9122C6.51514 28.6879 6.48224 28.5574 6.3576 28.3712C6.15656 28.236 6.15632 28.2356 5.91326 28.1085C5.29305 27.753 4.80147 27.2777 4.29412 26.7804C4.19594 26.6851 4.09516 26.5925 3.99334 26.5011C2.31124 24.9644 1.01977 22.3611 0.420096 20.2061C0.397405 20.131 0.374137 20.056 0.35076 19.9786C0.0311634 18.8421 -0.00288079 17.6383 0.000174164 16.4649C0.00021662 16.4029 0.000130423 16.3404 0.000174164 16.2765C0.00971836 13.2209 0.998351 10.3153 2.9201 7.92098C3.00288 7.81484 3.00265 7.81441 3.08709 7.70614C5.23347 5.00895 8.52529 3.06415 11.9338 2.50692C11.9917 2.49734 12.0499 2.48749 12.1095 2.47762C13.2979 2.29416 14.4955 2.30869 15.6945 2.30672C15.7855 2.3065 15.8771 2.30597 15.9709 2.30575C16.4522 2.30459 16.9338 2.30413 17.4152 2.30379C17.9077 2.30337 18.4002 2.30112 18.8928 2.29891C19.2758 2.29745 19.6591 2.29708 20.0422 2.29696C20.2236 2.29673 20.4056 2.29604 20.5871 2.29501Z" fill="var(--fill-0, #0B6DFF)"/>
<g id="Chat Icon Container">
<path id="Union_2" d="M26.1323 9.48659C26.3787 9.42345 26.6014 9.6495 26.5332 9.89347L24.7713 16.1921C24.7031 16.4361 24.3951 16.5151 24.2169 16.3344L22.9735 15.0724L17.8604 20.039C17.2398 20.6418 16.2457 20.6297 15.6401 20.012L14.0639 18.4046L9.69181 22.6511C9.13652 23.1904 8.24716 23.1795 7.70528 22.6269C7.16339 22.0743 7.17421 21.1891 7.72945 20.6497L12.9885 15.5415C13.6091 14.9387 14.6032 14.9508 15.2088 15.5685L16.785 17.1759L21.006 13.0759L19.617 11.6665C19.4388 11.4857 19.5241 11.1806 19.7706 11.1175L26.1323 9.48659Z" fill="var(--fill-0, #0B6DFF)"/>
</g>
</g>
<g id="Vector">
<path d="M51.5466 32.5618C49.6461 32.5618 47.9019 32.225 46.3139 31.5513C44.7259 30.8776 43.3461 29.919 42.1746 28.6753C41.0031 27.4057 40.092 25.9158 39.4411 24.2058C38.8163 22.4957 38.5039 20.6172 38.5039 18.5703C38.5039 16.627 38.8424 14.8263 39.5192 13.168C40.2221 11.4839 41.1854 10.007 42.4089 8.7374C43.6325 7.4678 45.0513 6.48322 46.6653 5.78364C48.2794 5.08407 50.0236 4.73428 51.898 4.73428C53.2257 4.73428 54.5144 4.94156 55.7639 5.35612C57.0396 5.74478 58.185 6.30185 59.2003 7.02733C60.2417 7.7269 61.0877 8.53012 61.7386 9.43697L58.927 12.3519C58.172 11.6005 57.404 10.9786 56.623 10.4863C55.8681 9.96813 55.0871 9.57948 54.2801 9.32038C53.4991 9.06128 52.705 8.93172 51.898 8.93172C50.6224 8.93172 49.4249 9.17787 48.3054 9.67016C47.212 10.1365 46.2488 10.7973 45.4157 11.6523C44.6087 12.5073 43.9709 13.5308 43.5023 14.7226C43.0337 15.8886 42.7994 17.1712 42.7994 18.5703C42.7994 20.0472 43.0207 21.3945 43.4633 22.6123C43.9319 23.8042 44.5827 24.8276 45.4157 25.6826C46.2488 26.5377 47.2381 27.1984 48.3835 27.6648C49.555 28.1052 50.8437 28.3255 52.2495 28.3255C53.1086 28.3255 53.9546 28.2089 54.7877 27.9757C55.6208 27.7425 56.4018 27.4057 57.1307 26.9652C57.8596 26.5247 58.5235 26.0065 59.1222 25.4106L61.2309 28.8307C60.6322 29.5303 59.8121 30.1651 58.7708 30.7351C57.7555 31.3051 56.61 31.7586 55.3344 32.0954C54.0848 32.4063 52.8222 32.5618 51.5466 32.5618Z" fill="var(--fill-0, #011448)"/>
<path d="M73.9889 32.5618C71.9844 32.5618 70.1881 32.1084 68.6 31.2015C67.038 30.2687 65.8015 29.0121 64.8903 27.4316C63.9791 25.8251 63.5236 23.9985 63.5236 21.9516C63.5236 19.9047 63.9791 18.091 64.8903 16.5104C65.8015 14.904 67.038 13.6474 68.6 12.7405C70.1881 11.8078 71.9844 11.3414 73.9889 11.3414C75.9674 11.3414 77.7377 11.8078 79.2997 12.7405C80.8877 13.6474 82.1373 14.904 83.0485 16.5104C83.9596 18.091 84.4152 19.9047 84.4152 21.9516C84.4152 23.9985 83.9596 25.8251 83.0485 27.4316C82.1373 29.0121 80.8877 30.2687 79.2997 31.2015C77.7377 32.1084 75.9674 32.5618 73.9889 32.5618ZM73.9889 28.9085C75.2125 28.9085 76.3059 28.6105 77.2691 28.0146C78.2323 27.3927 78.9873 26.5636 79.534 25.5272C80.0807 24.4649 80.341 23.273 80.315 21.9516C80.341 20.6043 80.0807 19.4124 79.534 18.376C78.9873 17.3137 78.2323 16.4845 77.2691 15.8886C76.3059 15.2927 75.2125 14.9947 73.9889 14.9947C72.7654 14.9947 71.6589 15.3056 70.6697 15.9275C69.7065 16.5234 68.9515 17.3525 68.4048 18.4148C67.8581 19.4512 67.5978 20.6302 67.6238 21.9516C67.5978 23.273 67.8581 24.4649 68.4048 25.5272C68.9515 26.5636 69.7065 27.3927 70.6697 28.0146C71.6589 28.6105 72.7654 28.9085 73.9889 28.9085Z" fill="var(--fill-0, #011448)"/>
<path d="M87.6264 32.1731V11.7689H91.6876V18.1817L91.2971 16.627C91.5835 15.6425 92.0651 14.7486 92.742 13.9453C93.4449 13.1421 94.2389 12.5073 95.124 12.0409C96.0352 11.5746 96.9724 11.3414 97.9356 11.3414C98.3782 11.3414 98.7947 11.3802 99.1852 11.458C99.6017 11.5357 99.9271 11.6264 100.161 11.73L99.1071 16.0829C98.7947 15.9534 98.4432 15.8497 98.0527 15.772C97.6883 15.6684 97.3238 15.6165 96.9593 15.6165C96.2565 15.6165 95.5796 15.7591 94.9288 16.0441C94.304 16.3032 93.7442 16.6789 93.2496 17.1712C92.781 17.6375 92.4035 18.1946 92.1172 18.8424C91.8308 19.4642 91.6876 20.1508 91.6876 20.9022V32.1731H87.6264Z" fill="var(--fill-0, #011448)"/>
<path d="M110.866 32.1731L102.197 11.7689H106.531L112.779 27.0429L112.037 27.3927L118.715 11.7689H122.854L113.756 32.1731H110.866Z" fill="var(--fill-0, #011448)"/>
<path d="M134.358 32.5618C132.249 32.5618 130.375 32.1213 128.735 31.2404C127.121 30.3335 125.845 29.1028 124.908 27.5482C123.997 25.9936 123.541 24.2058 123.541 22.1848C123.541 20.5783 123.802 19.1144 124.322 17.793C124.843 16.4716 125.559 15.3315 126.47 14.3729C127.407 13.3883 128.514 12.6369 129.789 12.1187C131.091 11.5746 132.497 11.3025 134.007 11.3025C135.334 11.3025 136.571 11.5616 137.716 12.0798C138.862 12.5721 139.851 13.2587 140.684 14.1397C141.543 15.0206 142.194 16.07 142.637 17.2878C143.105 18.4796 143.327 19.7881 143.3 21.2131L143.261 22.9232H126.509L125.611 19.7363H139.786L139.2 20.397V19.4642C139.122 18.6092 138.836 17.8448 138.341 17.1712C137.847 16.4975 137.222 15.9663 136.467 15.5777C135.712 15.189 134.892 14.9947 134.007 14.9947C132.601 14.9947 131.416 15.2668 130.453 15.8109C129.49 16.3291 128.761 17.1064 128.266 18.1428C127.772 19.1533 127.524 20.4099 127.524 21.9127C127.524 23.3378 127.824 24.5815 128.423 25.6438C129.021 26.6802 129.867 27.4834 130.961 28.0534C132.054 28.6234 133.317 28.9085 134.749 28.9085C135.764 28.9085 136.701 28.74 137.56 28.4032C138.445 28.0664 139.396 27.4575 140.411 26.5765L142.441 29.4137C141.817 30.0355 141.049 30.5797 140.137 31.046C139.252 31.5124 138.302 31.8881 137.287 32.1731C136.298 32.4322 135.321 32.5618 134.358 32.5618Z" fill="var(--fill-0, #011448)"/>
<path d="M160.014 32.1731L153.376 23.5839L152.79 22.8455L144.16 11.7689H149.236L155.758 20.2415L156.422 21.0965L164.934 32.1731H160.014ZM144.199 32.1731L152.282 21.6795L154.664 24.5167L148.963 32.1731H144.199ZM156.656 22.3014L154.43 19.5031L159.467 11.7689H164.231L156.656 22.3014Z" fill="var(--fill-0, #011448)"/>
<path d="M173.795 32.5619C172.104 32.5619 170.555 32.0956 169.149 31.163C167.77 30.2304 166.664 28.9611 165.831 27.355C164.998 25.7489 164.581 21.915 164.581 21.915C164.581 21.915 164.998 18.0552 165.831 16.475C166.69 14.8689 167.835 13.6126 169.266 12.7059C170.724 11.7992 172.351 11.3459 174.147 11.3459C175.214 11.3459 176.19 11.5013 177.075 11.8122C177.96 12.123 178.728 12.5634 179.378 13.1333C180.055 13.6773 180.602 14.312 181.018 15.0373C181.46 15.7626 181.734 16.5398 181.838 17.3687L180.94 17.0579V11.7733H185V32.1733H180.94V27.3162L181.877 27.0442C181.721 27.7436 181.395 28.4301 180.901 29.1036C180.432 29.7512 179.821 30.3341 179.066 30.8522C178.337 31.3703 177.517 31.7847 176.606 32.0956C175.721 32.4064 174.784 32.5619 173.795 32.5619ZM174.849 28.8704C176.073 28.8704 177.153 28.5725 178.09 27.9767C179.027 27.3809 179.756 26.5649 180.276 25.5287C180.823 24.4666 181.096 23.2621 181.096 21.915C181.096 20.5939 180.823 19.4152 180.276 18.379C179.756 17.3428 179.027 16.5268 178.09 15.931C177.153 15.3352 176.073 15.0373 174.849 15.0373C173.652 15.0373 172.585 15.3352 171.648 15.931C170.737 16.5268 170.008 17.3428 169.462 18.379C168.941 19.4152 168.681 20.5939 168.681 21.915C168.681 23.2621 168.941 24.4666 169.462 25.5287C170.008 26.5649 170.737 27.3809 171.648 27.9767C172.585 28.5725 173.652 28.8704 174.849 28.8704Z" fill="var(--fill-0, #011448)"/>
</g>
</g>
</svg>
