<svg width="106" height="20" viewBox="0 0 106 20" fill="none" xmlns="http://www.w3.org/2000/svg">
<path d="M11.7638 1.3116C13.8595 1.30052 15.7586 1.96977 17.294 3.41511C17.3329 3.45097 17.3721 3.48755 17.4122 3.52449C18.1281 4.2065 19.0992 5.44503 19.1778 6.46589C19.1785 6.50759 19.1801 6.54989 19.1808 6.59285C19.1819 6.63441 19.1825 6.676 19.1837 6.71882C19.1654 6.86617 19.1457 6.91389 19.0353 7.01472C18.8974 7.0327 18.7757 7.03947 18.6378 7.03816C18.5988 7.03833 18.5598 7.03896 18.5196 7.03914C18.4371 7.03926 18.3541 7.0389 18.2716 7.03816C18.1456 7.03722 18.0197 7.038 17.8937 7.03914C17.8135 7.03902 17.7326 7.03851 17.6524 7.03816C17.6149 7.03852 17.5769 7.03877 17.5382 7.03914C17.2778 7.03501 17.2777 7.03502 17.1407 6.93562C17.1385 6.93252 17.137 6.92895 17.1349 6.92586H17.1153C17.0968 6.88776 17.0782 6.84971 17.0597 6.8116C17.0299 6.7616 17.0026 6.71017 16.9776 6.65339C16.962 6.61872 16.9469 6.58365 16.9308 6.54793C16.9224 6.52907 16.9138 6.5103 16.9054 6.49129C16.9011 6.4825 16.8969 6.4737 16.8927 6.46492C16.8714 6.42117 16.8502 6.37717 16.8282 6.33211C16.798 6.26939 16.7975 6.26914 16.7667 6.20515C16.7548 6.18049 16.7427 6.1559 16.7306 6.13093C16.6089 5.89785 16.4747 5.67713 16.3116 5.45906C16.2839 5.42168 16.2562 5.38429 16.2276 5.34578C15.5929 4.52402 14.766 3.93206 13.7892 3.57918C13.7614 3.56902 13.7338 3.55839 13.7052 3.54793C13.0107 3.31148 12.3329 3.30757 11.6065 3.31062C11.4972 3.31064 11.3877 3.31069 11.2784 3.31062C11.05 3.31063 10.8213 3.31079 10.5929 3.3116C10.3019 3.31261 10.0108 3.31287 9.71983 3.31257C9.49424 3.31243 9.26866 3.31312 9.04307 3.31355C8.93602 3.31372 8.82883 3.31362 8.72178 3.31355C7.15922 3.31338 5.6809 3.61297 4.43662 4.61531C4.41195 4.63519 4.38685 4.65538 4.36143 4.67586C3.05982 5.73324 2.21147 7.20971 2.02549 8.88093C1.96656 10.0923 2.12466 11.2654 2.69541 12.3468C2.73597 12.4247 2.73619 12.4247 2.77744 12.504C3.26402 13.3943 3.96749 14.1113 4.79893 14.6895C5.12253 14.9187 5.36084 15.1548 5.46299 15.546C5.47689 15.6842 5.47964 15.8222 5.48155 15.961C5.48241 16 5.48359 16.0391 5.48448 16.0792C5.48713 16.2031 5.48925 16.3273 5.49131 16.4512C5.49301 16.5356 5.49441 16.6199 5.49619 16.7042C5.50047 16.9104 5.50443 17.1171 5.50791 17.3233C5.77993 17.178 6.0396 17.0211 6.29502 16.8487C6.36565 16.8014 6.43631 16.7534 6.50694 16.7061C6.54166 16.6828 6.57663 16.6598 6.6124 16.6358C6.78701 16.5187 6.9625 16.4023 7.1378 16.2862C7.28162 16.1909 7.42529 16.0954 7.56846 15.9991C7.61424 15.9684 7.61462 15.9678 7.66123 15.9366C7.71983 15.8973 7.77859 15.858 7.83701 15.8184C8.01717 15.6979 8.15002 15.6298 8.36729 15.629C8.40395 15.6287 8.44084 15.6283 8.47862 15.628C8.51876 15.628 8.55933 15.6281 8.60069 15.628C8.66393 15.6277 8.66413 15.6274 8.72862 15.627C8.82091 15.6266 8.91366 15.6264 9.00596 15.6261C9.15245 15.6255 9.29893 15.6241 9.44541 15.6231C9.86253 15.6204 10.2802 15.6188 10.6974 15.6173C10.9525 15.6163 11.2079 15.6143 11.463 15.6124C11.5596 15.6118 11.6564 15.6115 11.753 15.6114C12.4387 15.6103 13.098 15.579 13.7481 15.338C13.7791 15.3267 13.81 15.3144 13.8419 15.3028C14.4179 15.0859 14.9946 14.7766 15.4278 14.3341C15.5079 14.257 15.5085 14.2569 15.5978 14.2569C15.6096 14.2305 15.6217 14.2041 15.6339 14.1768C15.6877 14.0786 15.7373 14.0259 15.8204 13.9522C16.3992 13.3881 16.7755 12.6198 17.0577 11.8741C17.1198 11.7139 17.1465 11.6448 17.294 11.5469C17.4279 11.5371 17.5576 11.5327 17.6915 11.5323C17.7305 11.532 17.7695 11.5316 17.8097 11.5313C17.8922 11.5309 17.9752 11.5303 18.0577 11.5303C18.1837 11.5302 18.3097 11.5281 18.4356 11.5264C18.5158 11.5262 18.5967 11.5265 18.6769 11.5264C18.7145 11.5258 18.7524 11.5251 18.7911 11.5245C19.0528 11.5265 19.0532 11.5262 19.1915 11.6309C19.3091 11.7947 19.3088 11.8958 19.2833 12.0968C19.2365 12.3161 19.1381 12.5118 19.0411 12.713C19.0192 12.7593 18.9973 12.8059 18.9747 12.8536C18.6531 13.5277 18.3282 14.1935 17.8741 14.7901C17.8464 14.8275 17.8187 14.8649 17.7901 14.9034C17.1839 15.6932 16.3839 16.3207 15.5079 16.7901C15.4799 16.8053 15.4518 16.8204 15.423 16.836C14.2908 17.4362 13.0707 17.5943 11.8067 17.5968C11.6737 17.5971 11.5403 17.5979 11.4073 17.5987C11.0295 17.601 10.6514 17.6039 10.2735 17.6046C10.0414 17.605 9.80935 17.6056 9.57725 17.6075C9.48916 17.608 9.40069 17.6086 9.3126 17.6085C9.18964 17.6084 9.06641 17.6092 8.94346 17.6104C8.90769 17.6101 8.87191 17.6097 8.83506 17.6094C8.58295 17.6136 8.44141 17.6722 8.23155 17.8116C8.17936 17.8446 8.17931 17.8453 8.12608 17.879C8.07945 17.9102 8.07897 17.9096 8.03135 17.9415C7.9953 17.9655 7.95912 17.99 7.92198 18.0147C7.88396 18.0402 7.8459 18.0656 7.80674 18.0919C7.72308 18.1477 7.63944 18.2041 7.55576 18.2598C7.49116 18.3029 7.49075 18.3028 7.4249 18.3468C7.08624 18.5722 6.74635 18.7961 6.40635 19.0196C6.32019 19.0763 6.23364 19.1327 6.14756 19.1895C6.02042 19.2734 5.89302 19.3569 5.76573 19.4405C5.72779 19.4656 5.68957 19.4908 5.65049 19.5167C4.88318 20.0196 4.88315 20.02 4.43662 19.9893C4.1948 19.9058 4.04171 19.7524 3.90049 19.545C3.8162 19.3697 3.79928 19.2248 3.79502 19.0313C3.79353 18.9732 3.79168 18.9144 3.79014 18.8546C3.78955 18.8239 3.7888 18.7933 3.78819 18.7618C3.7863 18.6649 3.7839 18.5677 3.78135 18.4708C3.77514 18.2303 3.77009 17.9896 3.76475 17.7491C3.76019 17.5454 3.75546 17.3414 3.7501 17.1378C3.74773 17.0424 3.74608 16.947 3.74424 16.8516C3.74275 16.7937 3.7409 16.7356 3.73936 16.6759C3.73768 16.5994 3.73716 16.5993 3.73545 16.5216C3.72224 16.3934 3.70414 16.3184 3.63291 16.212C3.51816 16.1348 3.51784 16.1352 3.37901 16.0626C3.02469 15.8596 2.74401 15.5879 2.4542 15.3038C2.39807 15.2493 2.33957 15.1959 2.28135 15.1436C1.32033 14.2655 0.582993 12.7782 0.240335 11.5469C0.227329 11.5039 0.213696 11.4605 0.200296 11.4161C0.0177239 10.7667 -0.00165031 10.0788 0.00010037 9.40828C0.000124602 9.37286 7.54043e-05 9.33735 0.00010037 9.30086C0.00557172 7.5548 0.570878 5.8946 1.66905 4.52644C1.71624 4.46593 1.71653 4.46523 1.76475 4.40339C2.9913 2.86237 4.87189 1.75104 6.81944 1.43269C6.85257 1.42721 6.88588 1.42174 6.92002 1.41609C7.59889 1.31129 8.28287 1.31955 8.96787 1.31843C9.01987 1.31831 9.0725 1.31759 9.12608 1.31746C9.40114 1.31679 9.67621 1.31667 9.95127 1.31648C10.2328 1.31624 10.5145 1.31482 10.796 1.31355C11.0149 1.31272 11.2343 1.31264 11.4532 1.31257C11.5567 1.31244 11.6603 1.31219 11.7638 1.3116Z" fill="white"/>
<path d="M14.9328 5.42086C15.0736 5.38478 15.2009 5.51395 15.1619 5.65337L14.1551 9.2526C14.1161 9.39201 13.9401 9.43718 13.8383 9.33388L13.1277 8.61278L10.206 11.4508C9.85136 11.7952 9.28332 11.7883 8.93723 11.4354L8.03653 10.5169L5.53821 12.9434C5.22091 13.2516 4.7127 13.2454 4.40306 12.9296C4.09341 12.6138 4.09959 12.108 4.41687 11.7998L7.42204 8.88082C7.77666 8.53637 8.34471 8.54329 8.6908 8.89622L9.59145 9.81477L12.0035 7.47191L11.2097 6.66651C11.1079 6.56319 11.1567 6.38888 11.2975 6.35278L14.9328 5.42086Z" fill="white"/>
<path d="M29.4551 18.6068C28.3692 18.6068 27.3725 18.4143 26.465 18.0293C25.5576 17.6444 24.7692 17.0966 24.0997 16.3859C23.4303 15.6604 22.9096 14.8091 22.5377 13.8319C22.1807 12.8547 22.0022 11.7813 22.0022 10.6116C22.0022 9.50119 22.1956 8.47218 22.5824 7.52461C22.984 6.56223 23.5344 5.7183 24.2336 4.99282C24.9328 4.26733 25.7435 3.70471 26.6659 3.30496C27.5882 2.9052 28.5849 2.70532 29.656 2.70532C30.4146 2.70532 31.151 2.82377 31.8651 3.06066C32.594 3.28275 33.2485 3.60107 33.8287 4.01564C34.4238 4.41539 34.9072 4.87437 35.2791 5.39258L33.6725 7.05823C33.2411 6.62886 32.8023 6.27352 32.356 5.99221C31.9246 5.69609 31.4783 5.47401 31.0171 5.32595C30.5708 5.17789 30.1171 5.10386 29.656 5.10386C28.927 5.10386 28.2427 5.24452 27.6031 5.52583C26.9783 5.79233 26.4278 6.16988 25.9518 6.65847C25.4906 7.14706 25.1262 7.73189 24.8584 8.41296C24.5906 9.07922 24.4568 9.81211 24.4568 10.6116C24.4568 11.4556 24.5832 12.2255 24.8361 12.9213C25.1039 13.6024 25.4758 14.1872 25.9518 14.6758C26.4278 15.1644 26.9931 15.542 27.6477 15.8085C28.3171 16.0602 29.0535 16.186 29.8568 16.186C30.3477 16.186 30.8312 16.1194 31.3072 15.9861C31.7832 15.8529 32.2295 15.6604 32.6461 15.4087C33.0626 15.157 33.4419 14.8609 33.7841 14.5204L34.989 16.4747C34.6469 16.8745 34.1783 17.2372 33.5833 17.5629C33.0031 17.8887 32.3485 18.1478 31.6196 18.3403C30.9056 18.5179 30.1841 18.6068 29.4551 18.6068Z" fill="white"/>
<path d="M42.2793 18.6068C41.1339 18.6068 40.1074 18.3477 39.2 17.8295C38.3074 17.2964 37.6008 16.5784 37.0801 15.6752C36.5595 14.7572 36.2991 13.7134 36.2991 12.5438C36.2991 11.3741 36.5595 10.3377 37.0801 9.43456C37.6008 8.5166 38.3074 7.79852 39.2 7.28032C40.1074 6.74731 41.1339 6.4808 42.2793 6.4808C43.4099 6.4808 44.4215 6.74731 45.3141 7.28032C46.2215 7.79852 46.9356 8.5166 47.4562 9.43456C47.9769 10.3377 48.2372 11.3741 48.2372 12.5438C48.2372 13.7134 47.9769 14.7572 47.4562 15.6752C46.9356 16.5784 46.2215 17.2964 45.3141 17.8295C44.4215 18.3477 43.4099 18.6068 42.2793 18.6068ZM42.2793 16.5191C42.9785 16.5191 43.6033 16.3489 44.1537 16.0083C44.7041 15.653 45.1355 15.1792 45.4479 14.587C45.7603 13.9799 45.9091 13.2989 45.8942 12.5438C45.9091 11.7739 45.7603 11.0928 45.4479 10.5006C45.1355 9.89354 44.7041 9.41975 44.1537 9.07922C43.6033 8.73869 42.9785 8.56842 42.2793 8.56842C41.5802 8.56842 40.9479 8.74609 40.3826 9.10143C39.8322 9.44196 39.4008 9.91575 39.0884 10.5228C38.776 11.115 38.6272 11.7887 38.6421 12.5438C38.6272 13.2989 38.776 13.9799 39.0884 14.587C39.4008 15.1792 39.8322 15.653 40.3826 16.0083C40.9479 16.3489 41.5802 16.5191 42.2793 16.5191Z" fill="white"/>
<path d="M50.0722 18.3847V6.7251H52.3929V10.3895L52.1697 9.50119C52.3334 8.93857 52.6086 8.42777 52.9954 7.96879C53.397 7.50981 53.8507 7.14706 54.3565 6.88056C54.8772 6.61405 55.4127 6.4808 55.9632 6.4808C56.216 6.4808 56.4541 6.50301 56.6772 6.54743C56.9152 6.59185 57.1012 6.64367 57.2351 6.70289L56.6326 9.19026C56.4541 9.11623 56.2532 9.05701 56.0301 9.01259C55.8218 8.95337 55.6136 8.92376 55.4053 8.92376C55.0036 8.92376 54.6169 9.00519 54.245 9.16806C53.8879 9.31611 53.5681 9.5308 53.2854 9.81211C53.0177 10.0786 52.802 10.3969 52.6383 10.7671C52.4747 11.1224 52.3929 11.5148 52.3929 11.9441V18.3847H50.0722Z" fill="white"/>
<path d="M63.3519 18.3847L58.3982 6.7251H60.8751L64.4453 15.4531L64.0214 15.653L67.8371 6.7251H70.2024L65.0032 18.3847H63.3519Z" fill="white"/>
<path d="M76.776 18.6068C75.571 18.6068 74.5 18.3551 73.5628 17.8517C72.6404 17.3335 71.9115 16.6302 71.376 15.7418C70.8553 14.8535 70.595 13.8319 70.595 12.677C70.595 11.7591 70.7437 10.9225 71.0413 10.1674C71.3388 9.41235 71.7479 8.7609 72.2685 8.21308C72.8041 7.65046 73.4363 7.22109 74.1652 6.92498C74.909 6.61405 75.7124 6.45859 76.5752 6.45859C77.3339 6.45859 78.0405 6.60665 78.695 6.90277C79.3496 7.18408 79.9149 7.57643 80.3909 8.07983C80.8818 8.58323 81.2537 9.18286 81.5066 9.87873C81.7744 10.5598 81.9008 11.3075 81.8859 12.1218L81.8636 13.099H72.2908L71.7776 11.2779H79.8777L79.543 11.6554V11.1224C79.4983 10.6338 79.3347 10.1971 79.052 9.81211C78.7694 9.42716 78.4124 9.12364 77.981 8.90155C77.5496 8.67946 77.081 8.56842 76.5752 8.56842C75.7719 8.56842 75.095 8.72388 74.5446 9.0348C73.9942 9.33092 73.5776 9.77509 73.295 10.3673C73.0123 10.9448 72.871 11.6628 72.871 12.5216C72.871 13.3359 73.0421 14.0466 73.3842 14.6536C73.7264 15.2458 74.2099 15.7048 74.8347 16.0305C75.4595 16.3563 76.181 16.5191 76.9991 16.5191C77.5793 16.5191 78.1148 16.4229 78.6058 16.2304C79.1115 16.0379 79.6545 15.69 80.2347 15.1866L81.395 16.8078C81.038 17.1632 80.5992 17.4741 80.0785 17.7406C79.5727 18.0071 79.0297 18.2218 78.4496 18.3847C77.8843 18.5327 77.3264 18.6068 76.776 18.6068Z" fill="white"/>
<path d="M91.4366 18.3847L87.6432 13.4765L87.3085 13.0546L82.377 6.7251H85.2779L89.0043 11.5666L89.3837 12.0552L94.2482 18.3847H91.4366ZM82.3993 18.3847L87.0184 12.3883L88.3795 14.0096L85.1217 18.3847H82.3993ZM89.5176 12.7437L88.2457 11.1446L91.1242 6.7251H93.8465L89.5176 12.7437Z" fill="white"/>
<path d="M99.3116 18.6068C98.3448 18.6068 97.4599 18.3404 96.6567 17.8075C95.8685 17.2746 95.2364 16.5492 94.7604 15.6315C94.2845 14.7137 94.0465 12.5229 94.0465 12.5229C94.0465 12.5229 94.2845 10.3173 94.7604 9.41432C95.2512 8.49655 95.9056 7.77862 96.7237 7.26053C97.5565 6.74243 98.4861 6.48338 99.5124 6.48338C100.122 6.48338 100.68 6.5722 101.186 6.74983C101.691 6.92746 102.13 7.17911 102.502 7.50477C102.889 7.81563 103.201 8.17829 103.439 8.59277C103.692 9.00725 103.848 9.45133 103.907 9.92501L103.394 9.74738V6.72763H105.714V18.3848H103.394V15.6093L103.93 15.4538C103.84 15.8535 103.654 16.2458 103.372 16.6306C103.104 17.0007 102.755 17.3338 102.323 17.6298C101.907 17.9259 101.438 18.1627 100.918 18.3404C100.412 18.518 99.8767 18.6068 99.3116 18.6068ZM99.9139 16.4974C100.613 16.4974 101.23 16.3272 101.766 15.9867C102.301 15.6463 102.717 15.18 103.015 14.5879C103.327 13.981 103.483 13.2926 103.483 12.5229C103.483 11.768 103.327 11.0944 103.015 10.5023C102.717 9.91021 102.301 9.44393 101.766 9.10346C101.23 8.763 100.613 8.59277 99.9139 8.59277C99.2298 8.59277 98.62 8.763 98.0845 9.10346C97.564 9.44393 97.1475 9.91021 96.8352 10.5023C96.5378 11.0944 96.389 11.768 96.389 12.5229C96.389 13.2926 96.5378 13.981 96.8352 14.5879C97.1475 15.18 97.564 15.6463 98.0845 15.9867C98.62 16.3272 99.2298 16.4974 99.9139 16.4974Z" fill="white"/>
</svg>
