<svg preserveAspectRatio="none" width="100%" height="100%" overflow="visible" style="display: block;" viewBox="0 0 43 30" fill="none" xmlns="http://www.w3.org/2000/svg">
<g id="logo-salesforce" clip-path="url(#clip0_0_19)">
<path id="Vector" d="M17.9151 3.27188C19.2939 1.83281 21.2102 0.9375 23.3322 0.9375C26.1552 0.9375 28.6137 2.51719 29.9271 4.85625C31.0675 4.34531 32.3295 4.05937 33.6522 4.05937C38.7421 4.05937 42.8645 8.23125 42.8645 13.3828C42.8645 18.5344 38.7374 22.7062 33.6522 22.7062C33.0305 22.7062 32.4229 22.6453 31.8387 22.5234C30.6842 24.5859 28.4828 25.9828 25.9589 25.9828C24.9026 25.9828 23.9024 25.7391 23.0143 25.3031C21.8459 28.0641 19.1163 30 15.9427 30C12.7691 30 9.81522 27.9 8.73087 24.9563C8.2588 25.0547 7.76804 25.1109 7.26326 25.1109C3.32315 25.1109 0.13087 21.8766 0.13087 17.8828C0.13087 15.2063 1.56576 12.8719 3.69706 11.6203C3.25772 10.6078 3.01467 9.4875 3.01467 8.31562C3.01467 3.72187 6.73043 0 11.3155 0C14.0077 0 16.4008 1.28438 17.9151 3.27188Z" fill="var(--fill-0, #0D9DDA)"/>
<g id="Group">
<path id="Vector_2" d="M6.3238 15.5578C6.29576 15.6281 6.33315 15.6422 6.3425 15.6563C6.42196 15.7125 6.50609 15.7547 6.58554 15.8063C7.02022 16.0359 7.43152 16.1063 7.86152 16.1063C8.74022 16.1063 9.28239 15.6375 9.28239 14.8875V14.8734C9.28239 14.1797 8.66543 13.9266 8.09054 13.7438L8.01576 13.7203C7.58109 13.5797 7.20717 13.4578 7.20717 13.1672V13.1531C7.20717 12.9094 7.42685 12.7266 7.76804 12.7266C8.14663 12.7266 8.59533 12.8531 8.88043 13.0125C8.88043 13.0125 8.96457 13.0688 8.99728 12.9844C9.01598 12.9375 9.16087 12.5438 9.17489 12.5016C9.19359 12.4547 9.16087 12.4219 9.13283 12.4031C8.80098 12.2016 8.34761 12.0656 7.87554 12.0656H7.78674C6.98283 12.0656 6.42196 12.5531 6.42196 13.2469V13.2609C6.42196 13.9969 7.03891 14.2313 7.61848 14.4L7.71196 14.4281C8.13261 14.5594 8.49717 14.6719 8.49717 14.9672V14.9813C8.49717 15.2531 8.2588 15.4547 7.88022 15.4547C7.73065 15.4547 7.25859 15.4547 6.74913 15.1266C6.68837 15.0891 6.65098 15.0656 6.60424 15.0375C6.58087 15.0234 6.51543 14.9953 6.48739 15.075L6.31446 15.5578H6.3238Z" fill="var(--fill-0, white)"/>
<path id="Vector_3" d="M19.1537 15.5578C19.1257 15.6281 19.163 15.6422 19.1724 15.6563C19.2518 15.7125 19.336 15.7547 19.4154 15.8063C19.8501 16.0359 20.2614 16.1063 20.6914 16.1063C21.5701 16.1063 22.1123 15.6375 22.1123 14.8875V14.8734C22.1123 14.1797 21.5 13.9266 20.9204 13.7438L20.8457 13.7203C20.411 13.5797 20.0371 13.4578 20.0371 13.1672V13.1531C20.0371 12.9094 20.2567 12.7266 20.5979 12.7266C20.9765 12.7266 21.4252 12.8531 21.7103 13.0125C21.7103 13.0125 21.7945 13.0688 21.8272 12.9844C21.8459 12.9375 21.9908 12.5438 22.0048 12.5016C22.0235 12.4547 21.9908 12.4219 21.9627 12.4031C21.6309 12.2016 21.1775 12.0656 20.7054 12.0656H20.6166C19.8127 12.0656 19.2518 12.5531 19.2518 13.2469V13.2609C19.2518 13.9969 19.8688 14.2313 20.4484 14.4L20.5418 14.4281C20.9625 14.5594 21.3271 14.6719 21.3271 14.9672V14.9813C21.3271 15.2531 21.0887 15.4547 20.7101 15.4547C20.5605 15.4547 20.0885 15.4547 19.579 15.1266C19.5183 15.0891 19.4809 15.0656 19.4341 15.0375C19.4201 15.0281 19.3453 15 19.3173 15.075L19.1443 15.5578H19.1537Z" fill="var(--fill-0, white)"/>
<path id="Vector_4" d="M28.6464 13.2938C28.5763 13.05 28.4641 12.8344 28.3146 12.6563C28.165 12.4781 27.978 12.3328 27.7537 12.2297C27.5293 12.1266 27.2676 12.0703 26.9685 12.0703C26.6693 12.0703 26.4076 12.1219 26.1833 12.2297C25.9589 12.3328 25.772 12.4781 25.6224 12.6563C25.4728 12.8344 25.3607 13.05 25.2905 13.2938C25.2204 13.5375 25.183 13.8 25.183 14.0813C25.183 14.3625 25.2204 14.6297 25.2905 14.8687C25.3607 15.1125 25.4728 15.3281 25.6224 15.5063C25.772 15.6844 25.9636 15.8297 26.1833 15.9328C26.4076 16.0359 26.6693 16.0875 26.9685 16.0875C27.2676 16.0875 27.5293 16.0359 27.7537 15.9328C27.978 15.8297 28.165 15.6891 28.3146 15.5063C28.4641 15.3281 28.5763 15.1125 28.6464 14.8687C28.7165 14.625 28.7539 14.3625 28.7539 14.0813C28.7539 13.8 28.7165 13.5328 28.6464 13.2938ZM27.9126 14.0813C27.9126 14.5078 27.8332 14.8406 27.6789 15.0797C27.5247 15.3141 27.291 15.4266 26.9685 15.4266C26.646 15.4266 26.4123 15.3141 26.258 15.0797C26.1038 14.8406 26.0243 14.5078 26.0243 14.0813C26.0243 13.6547 26.1038 13.3219 26.2534 13.0875C26.4076 12.8531 26.6366 12.7406 26.9638 12.7406C27.291 12.7406 27.52 12.8531 27.6742 13.0875C27.8285 13.3219 27.9079 13.6547 27.9079 14.0813" fill="var(--fill-0, white)"/>
<path id="Vector_5" fill-rule="evenodd" clip-rule="evenodd" d="M34.6571 15.3141C34.6337 15.2437 34.5636 15.2719 34.5636 15.2719C34.4561 15.3141 34.3439 15.3516 34.2224 15.3703C34.1009 15.3891 33.9653 15.3984 33.8204 15.3984C33.4652 15.3984 33.1848 15.2906 32.9838 15.0844C32.7828 14.8734 32.666 14.5359 32.6707 14.0813C32.6707 13.6641 32.7735 13.3547 32.9511 13.1156C33.1287 12.8766 33.3998 12.7594 33.7643 12.7594C34.0681 12.7594 34.2972 12.7922 34.5402 12.8719C34.5402 12.8719 34.5963 12.8953 34.6243 12.8203C34.6898 12.6422 34.7365 12.5156 34.8066 12.3188C34.8253 12.2625 34.7786 12.2391 34.7599 12.2344C34.6664 12.1969 34.4421 12.1359 34.2738 12.1125C34.1149 12.0891 33.9326 12.075 33.727 12.075C33.4185 12.075 33.1474 12.1266 32.909 12.2344C32.6753 12.3375 32.479 12.4828 32.3201 12.6609C32.1612 12.8391 32.0443 13.0547 31.9649 13.2984C31.8854 13.5422 31.8434 13.8047 31.8434 14.0906C31.8434 14.7 32.007 15.1922 32.3295 15.5531C32.652 15.9141 33.138 16.0969 33.7737 16.0969C34.1476 16.0969 34.5309 16.0219 34.8113 15.9094C34.8113 15.9094 34.8627 15.8859 34.8393 15.8203L34.6617 15.3234L34.6571 15.3141Z" fill="var(--fill-0, white)"/>
<path id="Vector_6" fill-rule="evenodd" clip-rule="evenodd" d="M38.4009 13.1578C38.3401 12.9234 38.1859 12.6844 38.083 12.5766C37.9241 12.4031 37.7699 12.2859 37.611 12.2156C37.41 12.1266 37.167 12.0703 36.9005 12.0703C36.5921 12.0703 36.3116 12.1219 36.0826 12.2297C35.8536 12.3375 35.662 12.4828 35.5124 12.6656C35.3628 12.8484 35.2507 13.0641 35.1759 13.3125C35.1058 13.5562 35.0684 13.8234 35.0684 14.1047C35.0684 14.3859 35.1058 14.6578 35.1805 14.8969C35.2553 15.1406 35.3768 15.3516 35.5404 15.5297C35.704 15.7078 35.9143 15.8484 36.1621 15.9422C36.4098 16.0406 36.7136 16.0875 37.0595 16.0875C37.7746 16.0875 38.1531 15.9234 38.3074 15.8391C38.3354 15.825 38.3588 15.7969 38.3308 15.7219L38.1672 15.2672C38.1438 15.2016 38.0737 15.225 38.0737 15.225C37.8961 15.2906 37.6437 15.4078 37.0548 15.4078C36.6715 15.4078 36.3864 15.2953 36.2088 15.1172C36.0265 14.9344 35.9377 14.6672 35.919 14.2922H38.3962C38.3962 14.2922 38.4616 14.2922 38.4663 14.2313C38.4663 14.2031 38.5504 13.7203 38.3915 13.1625L38.4009 13.1578ZM35.9377 13.6781C35.9704 13.4438 36.0359 13.2469 36.1387 13.0922C36.2883 12.8578 36.522 12.7312 36.8491 12.7312C37.1763 12.7312 37.3866 12.8578 37.5409 13.0922C37.6437 13.2469 37.6858 13.4484 37.7045 13.6781H35.9377Z" fill="var(--fill-0, white)"/>
<path id="Vector_7" fill-rule="evenodd" clip-rule="evenodd" d="M18.5648 13.1578C18.504 12.9234 18.3498 12.6844 18.247 12.5766C18.088 12.4031 17.9338 12.2859 17.7749 12.2156C17.5739 12.1266 17.3309 12.0703 17.0645 12.0703C16.756 12.0703 16.4755 12.1219 16.2465 12.2297C16.0175 12.3375 15.8259 12.4828 15.6763 12.6656C15.5267 12.8484 15.4146 13.0641 15.3398 13.3125C15.2697 13.5562 15.2323 13.8234 15.2323 14.1047C15.2323 14.3859 15.2697 14.6578 15.3445 14.8969C15.4192 15.1406 15.5408 15.3516 15.7043 15.5297C15.8679 15.7078 16.0783 15.8484 16.326 15.9422C16.5737 16.0406 16.8775 16.0875 17.2234 16.0875C17.9385 16.0875 18.3171 15.9234 18.4713 15.8391C18.4993 15.825 18.5227 15.7969 18.49 15.7219L18.3264 15.2672C18.303 15.2016 18.2329 15.225 18.2329 15.225C18.0553 15.2906 17.8029 15.4078 17.214 15.4078C16.8308 15.4078 16.5457 15.2953 16.368 15.1172C16.1858 14.9344 16.097 14.6672 16.0783 14.2922H18.5554C18.5554 14.2922 18.6209 14.2922 18.6255 14.2313C18.6255 14.2031 18.7097 13.7203 18.5508 13.1625L18.5648 13.1578ZM16.1016 13.6781C16.1343 13.4438 16.1998 13.2469 16.3026 13.0922C16.4568 12.8578 16.6859 12.7312 17.013 12.7312C17.3402 12.7312 17.5505 12.8578 17.7095 13.0922C17.8123 13.2469 17.8543 13.4484 17.873 13.6781H16.1063H16.1016Z" fill="var(--fill-0, white)"/>
<path id="Vector_8" d="M11.7315 13.5563C11.6287 13.5469 11.5025 13.5469 11.3436 13.5469C11.1333 13.5469 10.9276 13.575 10.7313 13.6266C10.5397 13.6781 10.3621 13.7578 10.2125 13.8656C10.0629 13.9734 9.94141 14.1094 9.85261 14.2734C9.7638 14.4375 9.72174 14.6297 9.72174 14.8453C9.72174 15.0609 9.75913 15.2578 9.83391 15.4125C9.9087 15.5672 10.0162 15.6984 10.1564 15.8016C10.292 15.9 10.4649 15.975 10.6612 16.0219C10.8575 16.0641 11.0772 16.0875 11.3155 16.0875C11.5679 16.0875 11.825 16.0641 12.068 16.0266C12.3111 15.9844 12.6102 15.9234 12.6897 15.9047C12.7738 15.8859 12.8626 15.8625 12.8626 15.8625C12.9234 15.8484 12.9187 15.7828 12.9187 15.7828V13.5094C12.9187 13.0125 12.7832 12.6422 12.5214 12.4125C12.2597 12.1828 11.8811 12.0703 11.3857 12.0703C11.1987 12.0703 10.8996 12.0937 10.722 12.1312C10.722 12.1312 10.1798 12.2344 9.96011 12.4125C9.96011 12.4125 9.91337 12.4406 9.93674 12.5109L10.1143 12.9844C10.1377 13.0453 10.1938 13.0266 10.1938 13.0266C10.1938 13.0266 10.2125 13.0172 10.2359 13.0078C10.7126 12.75 11.3155 12.7547 11.3155 12.7547C11.582 12.7547 11.7876 12.8109 11.9278 12.9141C12.0634 13.0172 12.1335 13.1766 12.1335 13.5047V13.6078C11.9232 13.575 11.7268 13.5609 11.7268 13.5609L11.7315 13.5563ZM10.7453 15.3C10.6472 15.2203 10.6332 15.2016 10.6004 15.1547C10.5537 15.0797 10.5257 14.9719 10.5257 14.8312C10.5257 14.6109 10.5958 14.4563 10.7453 14.3484C10.7453 14.3484 10.9603 14.1609 11.4651 14.1703C11.8203 14.1703 12.1382 14.2266 12.1382 14.2266V15.3562C12.1382 15.3562 11.825 15.4219 11.4698 15.4453C10.965 15.4734 10.7407 15.3 10.7453 15.3Z" fill="var(--fill-0, white)"/>
<path id="Vector_9" fill-rule="evenodd" clip-rule="evenodd" d="M31.7078 12.2766C31.7265 12.2203 31.6891 12.1922 31.6704 12.1875C31.6284 12.1734 31.418 12.1266 31.2545 12.1172C30.9413 12.0984 30.7684 12.15 30.6141 12.2203C30.4599 12.2906 30.2916 12.4031 30.1935 12.5297V12.225C30.1935 12.1828 30.1654 12.15 30.1234 12.15H29.4877C29.4457 12.15 29.4176 12.1828 29.4176 12.225V15.9328C29.4176 15.975 29.4503 16.0078 29.4924 16.0078H30.1421C30.1841 16.0078 30.2168 15.975 30.2168 15.9328V14.0813C30.2168 13.8328 30.2449 13.5844 30.301 13.4297C30.3524 13.275 30.4272 13.1531 30.516 13.0641C30.6048 12.975 30.7076 12.9141 30.8198 12.8813C30.9366 12.8438 31.0628 12.8344 31.1516 12.8344C31.2825 12.8344 31.4227 12.8672 31.4227 12.8672C31.4695 12.8719 31.4975 12.8438 31.5115 12.8016C31.5536 12.6891 31.6751 12.3469 31.6985 12.2813L31.7078 12.2766Z" fill="var(--fill-0, white)"/>
<path id="Vector_10" fill-rule="evenodd" clip-rule="evenodd" d="M25.599 10.5609C25.5196 10.5375 25.4495 10.5187 25.356 10.5047C25.2625 10.4859 25.1457 10.4766 25.0195 10.4766C24.5708 10.4766 24.2202 10.6031 23.9725 10.8562C23.7248 11.1047 23.5565 11.4844 23.4771 11.9812L23.449 12.15H22.8882C22.8882 12.15 22.818 12.15 22.804 12.2203L22.7105 12.7359C22.7059 12.7875 22.7246 12.8156 22.79 12.8156H23.3369L22.7807 15.9234C22.7386 16.1719 22.6872 16.3781 22.6311 16.5375C22.575 16.6922 22.5236 16.8047 22.4582 16.8891C22.3927 16.9687 22.3366 17.0297 22.2338 17.0625C22.1497 17.0906 22.0515 17.1047 21.944 17.1047C21.8833 17.1047 21.8038 17.0953 21.743 17.0812C21.6823 17.0719 21.6542 17.0578 21.6075 17.0391C21.6075 17.0391 21.5421 17.0156 21.5187 17.0812C21.5 17.1328 21.3504 17.5359 21.3364 17.5875C21.3177 17.6344 21.3458 17.6766 21.3738 17.6859C21.4486 17.7141 21.5 17.7281 21.5982 17.7516C21.7337 17.7844 21.8505 17.7844 21.9627 17.7844C22.1917 17.7844 22.3974 17.7516 22.5703 17.6906C22.7433 17.6297 22.8928 17.5172 23.0284 17.3719C23.1733 17.2125 23.2621 17.0437 23.3509 16.8141C23.435 16.5891 23.5098 16.3078 23.5705 15.9797L24.1267 12.8109H24.9447C24.9447 12.8109 25.0148 12.8109 25.0288 12.7406L25.1223 12.225C25.127 12.1734 25.1083 12.1453 25.0428 12.1453H24.2529C24.2529 12.1453 24.295 11.85 24.3838 11.5828C24.4212 11.4703 24.496 11.3812 24.5567 11.3156C24.6175 11.2547 24.6876 11.2125 24.7624 11.1844C24.8418 11.1609 24.9307 11.1469 25.0288 11.1469C25.1036 11.1469 25.1784 11.1562 25.2345 11.1656C25.3092 11.1797 25.342 11.1891 25.3607 11.1984C25.4401 11.2219 25.4541 11.1984 25.4682 11.1609L25.6598 10.6406C25.6785 10.5844 25.6317 10.5609 25.613 10.5563L25.599 10.5609Z" fill="var(--fill-0, white)"/>
<path id="Vector_11" fill-rule="evenodd" clip-rule="evenodd" d="M14.5359 15.9328C14.5359 15.975 14.5078 16.0078 14.4658 16.0078H13.8067C13.7647 16.0078 13.7366 15.975 13.7366 15.9328V10.6313C13.7366 10.5891 13.7647 10.5563 13.8067 10.5563H14.4658C14.5078 10.5563 14.5359 10.5891 14.5359 10.6313V15.9328Z" fill="var(--fill-0, white)"/>
</g>
</g>
<defs>
<clipPath id="clip0_0_19">
<rect width="43" height="30" fill="white"/>
</clipPath>
</defs>
</svg>
