<svg preserveAspectRatio="none" width="100%" height="100%" overflow="visible" style="display: block;" viewBox="0 0 90.7991 25.8498" fill="none" xmlns="http://www.w3.org/2000/svg">
<g id="Wordmark">
<path id="Vector" d="M40.401 7.68715C42.3242 7.68715 44.1455 8.86664 44.5298 11.4151H35.9646C36.3231 9.17881 37.9906 7.68715 40.401 7.68715ZM44.2561 15.1856C43.6019 16.2078 42.3375 16.9941 40.6065 16.9941C38.2212 16.9941 36.3999 15.6833 35.9646 13.3692H46.7103C46.7622 13.0375 46.7884 12.7023 46.7888 12.3666C46.7888 8.76756 44.2788 5.579 40.4025 5.579C36.4023 5.579 33.6837 8.53559 33.6837 12.3414C33.6837 16.1944 36.429 19.1038 40.5563 19.1038C43.1211 19.1038 45.0702 17.9464 46.1981 16.1944L44.2561 15.1856Z" fill="var(--fill-0, #006BFF)"/>
<path id="Vector_2" d="M32.628 1.48213e-07H30.3972V18.7689H32.628V1.48213e-07Z" fill="var(--fill-0, #006BFF)"/>
<path id="Vector_3" d="M59.2012 10.8757V18.7681H56.9697V11.0039C56.9697 8.89573 55.765 7.7131 53.7899 7.7131C51.7381 7.7131 50.0713 8.92168 50.0713 11.9553V18.7681H47.8398V5.91476H50.0713V7.76578C51.0204 6.24895 52.4307 5.58057 54.2284 5.58057C57.2286 5.58057 59.2036 7.58571 59.2036 10.8773" fill="var(--fill-0, #006BFF)"/>
<path id="Vector_4" d="M71.5039 12.3406C71.5039 9.71823 69.5289 7.73826 66.9389 7.73826C64.3741 7.73826 62.3999 9.71823 62.3999 12.3406C62.3999 14.963 64.3741 16.943 66.9389 16.943C69.5273 16.943 71.5039 14.963 71.5039 12.3406ZM73.7346 1.48213e-07V18.7689H71.5039V16.5569C70.478 18.1296 68.8371 19.1031 66.6566 19.1031C63.0916 19.1031 60.1683 16.1457 60.1683 12.3406C60.1683 8.5356 63.0916 5.57821 66.6566 5.57821C68.8363 5.57821 70.478 6.55483 71.5039 8.12356V1.48213e-07H73.7346Z" fill="var(--fill-0, #006BFF)"/>
<path id="Vector_5" d="M77.7646 1.48213e-07H75.5339V18.7689H77.7646V1.48213e-07Z" fill="var(--fill-0, #006BFF)"/>
<path id="Vector_6" d="M26.4205 12.3406C26.4205 9.71823 24.4463 7.73826 21.8556 7.73826C19.2915 7.73826 17.3165 9.71823 17.3165 12.3406C17.3165 14.963 19.2915 16.943 21.8556 16.943C24.444 16.943 26.4205 14.963 26.4205 12.3406ZM28.652 5.91476V18.7681H26.4205V16.5569C25.3946 18.1296 23.7537 19.1031 21.574 19.1031C18.0091 19.1031 15.085 16.1457 15.085 12.3406C15.085 8.5356 18.0091 5.57821 21.574 5.57821C23.7537 5.57821 25.3946 6.55483 26.4205 8.12356V5.91476H28.652Z" fill="var(--fill-0, #006BFF)"/>
<path id="Vector_7" d="M11.7758 16.2943C10.6337 16.7168 9.40087 16.8309 8.20092 16.6251C7.00098 16.4193 5.87609 15.9008 4.93904 15.1217C4.00199 14.3426 3.28572 13.3303 2.86204 12.1861C2.43836 11.042 2.32217 9.80629 2.5251 8.60293C2.72804 7.39957 3.24298 6.27085 4.01829 5.32992C4.7936 4.389 5.80203 3.66895 6.94248 3.24197C8.08292 2.81499 9.31529 2.69609 10.516 2.89718C11.7168 3.09827 12.8437 3.6123 13.7838 4.38771C14.1757 4.71196 14.5304 5.07909 14.8411 5.48228L16.7714 4.06689C15.6468 2.59307 14.1111 1.48713 12.3589 0.889269C10.6066 0.291404 8.71681 0.228524 6.9289 0.7086C5.14099 1.18868 3.5355 2.19009 2.31593 3.58592C1.09636 4.98175 0.317613 6.70914 0.0783987 8.54916C-0.160815 10.3892 0.150273 12.259 0.972232 13.9215C1.79419 15.5841 3.09001 16.9646 4.69545 17.8881C6.30089 18.8115 8.14367 19.2364 9.99022 19.1087C11.8368 18.9811 13.6039 18.3067 15.0677 17.1711L13.783 15.1345C13.1828 15.6301 12.5044 16.022 11.7758 16.2943Z" fill="var(--fill-0, #006BFF)"/>
<path id="Vector_8" d="M88.5339 5.91476V13.2103C88.5339 15.5693 87.1652 17.0633 85.0757 17.0633C82.9861 17.0633 81.4731 15.5693 81.4731 13.2103V5.91476H79.2157V12.9917C79.2157 16.7 81.5209 19.1078 85.0757 19.1078C88.1503 19.1078 88.6304 17.1577 88.6304 17.1089V19.7337C88.6304 22.3341 87.5017 23.8029 85.1478 23.8029C84.307 23.8071 83.4933 23.5047 82.8584 22.9521C82.2235 22.3995 81.8106 21.6343 81.6966 20.7992L79.6785 21.5069C79.9673 22.7441 80.6655 23.8469 81.6594 24.6355C82.6533 25.4241 83.8842 25.8521 85.1517 25.8498C88.8021 25.8498 90.7991 23.4412 90.7991 19.7337V5.91476H88.5339Z" fill="var(--fill-0, #006BFF)"/>
</g>
</svg>
