<svg preserveAspectRatio="none" width="100%" height="100%" overflow="visible" style="display: block;" viewBox="0 0 30 29.9999" fill="none" xmlns="http://www.w3.org/2000/svg">
<g id="Group">
<path id="Vector" d="M8.99912 9.25852H7.34242L11.859 22.0259L14.3876 14.8002L12.4272 9.25852H10.6792V8.04197H18.4197V9.25852H16.6071L21.1237 22.0259L22.7472 17.3863C24.8769 11.4421 21.0016 9.59051 21.0016 8.26392C21.0016 6.93733 22.077 5.86197 23.4036 5.86197C23.4753 5.86197 23.545 5.86585 23.6133 5.87222C21.3656 3.75039 18.3348 2.44919 14.9999 2.44919C10.6422 2.44919 6.80377 4.67041 4.5536 8.04197H8.99898V9.25852H8.99912Z" fill="var(--fill-0, #00769D)"/>
<path id="Vector_2" d="M2.44919 15C2.44919 19.8051 5.14995 23.9788 9.11585 26.0878L3.45191 10.0772C2.80671 11.5887 2.44919 13.2526 2.44919 15Z" fill="var(--fill-0, #00769D)"/>
<path id="Vector_3" d="M25.9229 8.81536C26.1024 9.87243 26.048 11.0605 25.7725 12.2532H25.8225L25.6327 12.7955C25.5202 13.187 25.3786 13.5876 25.2178 13.9811L20.8992 26.0797C24.8568 23.9682 27.5507 19.7989 27.5507 14.9999C27.5507 12.7512 26.9587 10.6409 25.9229 8.81536Z" fill="var(--fill-0, #00769D)"/>
<path id="Vector_4" d="M11.1292 26.9415C12.3485 27.3364 13.6491 27.5507 15 27.5507C16.2885 27.5507 17.5316 27.3562 18.7017 26.9955L15.0305 16.6177L11.1292 26.9415Z" fill="var(--fill-0, #00769D)"/>
<path id="Vector_5" d="M25.6066 4.39338C22.7734 1.56026 19.0066 0 14.9999 0C10.9933 0 7.22649 1.56026 4.39338 4.39338C1.56026 7.22649 0 10.9933 0 15C0 19.0066 1.56026 22.7734 4.39338 25.6066C7.22649 28.4397 10.9934 29.9999 15 29.9999C19.0066 29.9999 22.7734 28.4397 25.6066 25.6066C28.4397 22.7734 30 19.0066 30 15C29.9999 10.9933 28.4397 7.22649 25.6066 4.39338ZM14.9999 28.9418C7.3124 28.9418 1.05814 22.6875 1.05814 15C1.05814 7.31246 7.3124 1.05814 14.9999 1.05814C22.6875 1.05814 28.9417 7.31246 28.9417 15C28.9417 22.6875 22.6875 28.9418 14.9999 28.9418Z" fill="var(--fill-0, #00769D)"/>
</g>
</svg>
