<svg preserveAspectRatio="none" width="100%" height="100%" overflow="visible" style="display: block;" viewBox="0 0 26.498 27.0702" fill="none" xmlns="http://www.w3.org/2000/svg">
<g id="Brand mark">
<path id="Vector" d="M18.161 17.5536C17.3037 18.3164 16.233 19.2655 14.2917 19.2655H13.1309C11.7261 19.2655 10.4484 18.7536 9.53382 17.8257C8.64044 16.9191 8.14864 15.6782 8.14864 14.3313V12.7389C8.14864 11.392 8.64044 10.1511 9.53382 9.2445C10.4484 8.31663 11.7261 7.80552 13.1309 7.80552H14.2917C16.2354 7.80552 17.3037 8.75383 18.161 9.51657C19.0512 10.3029 19.8191 10.9901 21.8671 10.9901C22.1794 10.9901 22.4913 10.9651 22.7997 10.9154L22.7926 10.8974C22.6699 10.592 22.5261 10.2956 22.362 10.0104L20.9933 7.63331C20.3761 6.56173 19.4884 5.6719 18.4194 5.05325C17.3504 4.4346 16.1378 4.10894 14.9035 4.10899H12.1653C10.931 4.10894 9.71846 4.4346 8.64949 5.05325C7.58051 5.6719 6.69281 6.56173 6.07558 7.63331L4.70688 10.0104C4.08987 11.0821 3.76504 12.2977 3.76504 13.5351C3.76504 14.7725 4.08987 15.9881 4.70688 17.0598L6.07558 19.4369C6.69281 20.5085 7.58051 21.3983 8.64949 22.017C9.71846 22.6356 10.931 22.9613 12.1653 22.9612H14.9035C16.1378 22.9613 17.3504 22.6356 18.4194 22.017C19.4884 21.3983 20.3761 20.5085 20.9933 19.4369L22.362 17.0638C22.5261 16.7785 22.6699 16.4822 22.7926 16.1768L22.7997 16.1595C22.4914 16.1081 22.1795 16.0818 21.8671 16.0808C19.8191 16.0808 19.0512 16.7642 18.161 17.5544" fill="var(--fill-0, #006BFF)"/>
<path id="Vector_2" d="M14.2917 9.24843H13.1309C10.9927 9.24843 9.58794 10.7794 9.58794 12.7389V14.3313C9.58794 16.2908 10.9927 17.8218 13.1309 17.8218H14.2917C17.4072 17.8218 17.1625 14.6371 21.8671 14.6371C22.3128 14.6366 22.7576 14.6777 23.1958 14.7598C23.3385 13.9496 23.3385 13.1206 23.1958 12.3104C22.7576 12.3921 22.3128 12.4332 21.8671 12.4331C17.1609 12.4331 17.4072 9.24843 14.2917 9.24843Z" fill="var(--fill-0, #006BFF)"/>
<path id="Vector_3" d="M25.8987 15.9236C25.0975 15.3353 24.1736 14.9371 23.1966 14.759C23.1966 14.7677 23.1966 14.7747 23.1966 14.7826C23.1125 15.2521 22.9811 15.7118 22.8044 16.1548C23.6115 16.2801 24.3772 16.5962 25.0382 17.0771C25.0382 17.0834 25.0343 17.0913 25.032 17.0983C24.1812 19.8601 22.3705 22.2243 19.9289 23.7615C17.4872 25.2987 14.5765 25.9068 11.7256 25.4756C8.87471 25.0443 6.27266 23.6021 4.39218 21.4111C2.51169 19.2201 1.47751 16.4255 1.47751 13.5351C1.47751 10.6447 2.51169 7.85011 4.39218 5.65908C6.27266 3.46805 8.87471 2.02591 11.7256 1.59464C14.5765 1.16336 17.4872 1.77155 19.9289 3.30874C22.3705 4.84592 24.1812 7.21012 25.032 9.97185C25.032 9.97893 25.0359 9.9868 25.0382 9.99309C24.3773 10.474 23.6115 10.79 22.8044 10.9147C22.9808 11.3582 23.1122 11.8184 23.1966 12.2884C23.1961 12.2957 23.1961 12.3031 23.1966 12.3104C24.1735 12.1326 25.0975 11.7347 25.8987 11.1466C26.6689 10.575 26.5199 9.92939 26.403 9.54724C25.4507 6.45077 23.4219 3.79954 20.6853 2.07533C17.9487 0.351114 14.6859 -0.331659 11.4898 0.151077C8.29366 0.633813 5.37634 2.25002 3.26795 4.70602C1.15955 7.16201 0 10.2948 0 13.5351C0 16.7754 1.15955 19.9082 3.26795 22.3642C5.37634 24.8202 8.29366 26.4364 11.4898 26.9191C14.6859 27.4019 17.9487 26.7191 20.6853 24.9949C23.4219 23.2707 25.4507 20.6194 26.403 17.523C26.5199 17.1408 26.6689 16.4952 25.8987 15.9236Z" fill="var(--fill-0, #006BFF)"/>
<path id="Vector_4" d="M22.7997 10.9147C22.4914 10.966 22.1795 10.9923 21.8671 10.9933C19.8191 10.9933 19.0512 10.31 18.1618 9.51972C17.3037 8.75698 16.2354 7.80788 14.2917 7.80788H13.1309C11.7253 7.80788 10.4484 8.31978 9.53382 9.24765C8.64044 10.1543 8.14864 11.3951 8.14864 12.7421V14.3344C8.14864 15.6814 8.64044 16.9222 9.53382 17.8288C10.4484 18.7567 11.7253 19.2678 13.1309 19.2678H14.2917C16.2354 19.2678 17.3037 18.3195 18.1618 17.5568C19.0512 16.7705 19.8191 16.0832 21.8671 16.0832C22.1794 16.0833 22.4913 16.1083 22.7997 16.1579C22.9767 15.7151 23.1081 15.2553 23.1919 14.7858C23.1923 14.7779 23.1923 14.77 23.1919 14.7622C22.7536 14.6807 22.3088 14.6399 21.8632 14.6403C17.157 14.6403 17.4033 17.8257 14.2878 17.8257H13.127C10.9888 17.8257 9.58402 16.2939 9.58402 14.3344V12.7389C9.58402 10.7794 10.9888 9.24843 13.127 9.24843H14.2878C17.4033 9.24843 17.1586 12.4323 21.8632 12.4323C22.3089 12.433 22.7537 12.3922 23.1919 12.3104C23.1919 12.3033 23.1919 12.2962 23.1919 12.2884C23.1075 11.8184 22.9761 11.3582 22.7997 10.9147Z" fill="var(--fill-0, #0AE8F0)"/>
<path id="Vector_5" d="M22.7997 10.9147C22.4914 10.966 22.1795 10.9923 21.8671 10.9933C19.8191 10.9933 19.0512 10.31 18.1618 9.51972C17.3037 8.75698 16.2354 7.80788 14.2917 7.80788H13.1309C11.7253 7.80788 10.4484 8.31978 9.53382 9.24765C8.64044 10.1543 8.14864 11.3951 8.14864 12.7421V14.3344C8.14864 15.6814 8.64044 16.9222 9.53382 17.8288C10.4484 18.7567 11.7253 19.2678 13.1309 19.2678H14.2917C16.2354 19.2678 17.3037 18.3195 18.1618 17.5568C19.0512 16.7705 19.8191 16.0832 21.8671 16.0832C22.1794 16.0833 22.4913 16.1083 22.7997 16.1579C22.9767 15.7151 23.1081 15.2553 23.1919 14.7858C23.1923 14.7779 23.1923 14.77 23.1919 14.7622C22.7536 14.6807 22.3088 14.6399 21.8632 14.6403C17.157 14.6403 17.4033 17.8257 14.2878 17.8257H13.127C10.9888 17.8257 9.58402 16.2939 9.58402 14.3344V12.7389C9.58402 10.7794 10.9888 9.24843 13.127 9.24843H14.2878C17.4033 9.24843 17.1586 12.4323 21.8632 12.4323C22.3089 12.433 22.7537 12.3922 23.1919 12.3104C23.1919 12.3033 23.1919 12.2962 23.1919 12.2884C23.1075 11.8184 22.9761 11.3582 22.7997 10.9147Z" fill="var(--fill-0, #0AE8F0)"/>
</g>
</svg>
