<svg width="33" height="28" viewBox="0 0 33 28" fill="none" xmlns="http://www.w3.org/2000/svg">
<path d="M27.9996 3.84454V17.2951C27.4761 17.0793 26.9359 16.9064 26.3843 16.7782V16.1536C26.3831 15.5349 26.2051 14.9294 25.8712 14.4085C25.5373 13.8876 25.0614 13.473 24.4997 13.2136C23.9369 12.9667 23.3165 12.8813 22.7079 12.9669C22.0993 13.0524 21.5265 13.3057 21.0536 13.6982L14.7644 19.0828C14.4122 19.3875 14.1298 19.7645 13.9365 20.1882C13.7433 20.612 13.6436 21.0724 13.6444 21.5381H3.23073C2.37466 21.5356 1.55436 21.1944 0.94902 20.5891C0.343682 19.9838 0.00250016 19.1635 0 18.3074V3.84454L12.3737 11.0706C12.8558 11.3416 13.3982 11.4876 13.9513 11.4951C14.5043 11.5026 15.0505 11.3715 15.5398 11.1137C15.5696 11.1015 15.5984 11.0871 15.626 11.0706L27.9996 3.84454Z" fill="#0B6DFF"/>
<path d="M13.4539 9.20572C13.6286 9.30654 13.8281 9.35649 14.0297 9.34991C14.2364 9.33048 14.4366 9.26718 14.6169 9.16425L27.5511 1.61708C27.27 1.12717 26.8648 0.719845 26.3765 0.436006C25.8881 0.152166 25.3336 0.00179928 24.7687 0H3.23055C2.66569 0.00181815 2.11125 0.152194 1.62289 0.436032C1.13453 0.719871 0.729421 1.12718 0.448242 1.61708L13.4539 9.20572Z" fill="#0B6DFF"/>
<path d="M29.8916 21.0814C29.3863 20.5722 28.8125 20.1358 28.1868 19.7847C26.9856 19.0794 25.6232 18.6948 24.2305 18.6679V16.1536C24.2303 15.9478 24.1713 15.7464 24.0602 15.5731C23.9491 15.3998 23.7907 15.262 23.6038 15.176C23.4168 15.09 23.2091 15.0593 23.0053 15.0877C22.8014 15.116 22.61 15.2022 22.4536 15.3359L16.1705 20.7197C16.0522 20.8208 15.9573 20.9463 15.8922 21.0876C15.8272 21.2289 15.7935 21.3826 15.7935 21.5381C15.7935 21.6937 15.8272 21.8474 15.8922 21.9887C15.9573 22.13 16.0522 22.2555 16.1705 22.3566L22.4531 27.7411C22.6096 27.8751 22.8011 27.9614 23.0051 27.9897C23.2091 28.0181 23.4169 27.9874 23.604 27.9013C23.7911 27.8151 23.9495 27.6772 24.0606 27.5037C24.1716 27.3303 24.2306 27.1286 24.2305 26.9227V24.4124C25.4253 24.4424 26.5979 24.7419 27.6607 25.2884C28.7236 25.835 29.6494 26.6145 30.3689 27.5688C30.5065 27.7471 30.6957 27.8787 30.9108 27.9457C31.1259 28.0127 31.3563 28.0118 31.5709 27.9433C31.7853 27.872 31.9717 27.7351 32.1039 27.5519C32.2361 27.3687 32.3072 27.1486 32.3073 26.9227C32.3091 25.8379 32.0966 24.7635 31.682 23.7611C31.2675 22.7587 30.659 21.8481 29.8916 21.0814Z" fill="#0B6DFF"/>
</svg>
