<svg width="28" height="28" viewBox="0 0 28 28" fill="none" xmlns="http://www.w3.org/2000/svg">
<path d="M3.69459 22.4H9.85459L9.29459 24.64H6.83059C6.15859 24.64 5.71059 25.088 5.71059 25.76C5.71059 26.32 6.15859 26.88 6.83059 26.88H21.1666C21.8386 26.88 22.2866 26.32 22.2866 25.76C22.2866 25.088 21.8386 24.64 21.1666 24.64H18.8146L18.2546 22.4H24.4146C26.0946 22.4 27.5506 20.944 27.5506 19.264C27.5506 13.888 27.5506 9.85602 27.5506 4.36802C27.5506 2.68801 26.0946 1.23201 24.4146 1.23201H3.69459C2.01459 1.12001 0.558594 2.57601 0.558594 4.25601V19.152C0.558594 20.944 1.90259 22.4 3.69459 22.4ZM2.79859 4.25601C2.79859 3.80801 3.24659 3.36001 3.69459 3.36001H24.3026C24.7506 3.36001 25.1986 3.80801 25.1986 4.25601V15.68H2.79859V4.25601Z" fill="white"/>
<path d="M20.7182 11.648C20.1582 11.648 19.8222 11.312 19.5982 10.976C19.3742 10.528 19.4862 10.08 19.8222 9.74404L19.9342 9.63204C20.3822 9.18404 20.3822 8.51204 19.9342 8.06404L19.1502 7.28004C18.7022 6.83204 18.0302 6.83204 17.5822 7.28004L17.4702 7.39204C17.2462 7.84004 16.7982 7.84004 16.3502 7.72804C16.3502 7.72804 16.3502 7.72804 16.2382 7.72804C15.7902 7.61604 15.5662 7.16804 15.5662 6.72004V6.60804C15.5662 6.04804 15.1182 5.48804 14.4462 5.48804H13.4382C12.8782 5.48804 12.3182 5.93604 12.3182 6.60804V6.72004C12.3182 7.16804 12.0942 7.61604 11.6462 7.72804C11.6462 7.72804 11.6462 7.72804 11.5342 7.72804C11.1982 7.84004 10.7502 7.84004 10.4142 7.50404V7.39204C9.9662 6.94404 9.2942 6.94404 8.8462 7.39204L8.0622 8.17604C7.6142 8.62404 7.6142 9.29604 8.0622 9.74404L8.1742 9.85604C8.5102 10.08 8.6222 10.528 8.3982 10.976C8.1742 11.424 7.8382 11.648 7.3902 11.648H7.2782C6.7182 11.648 6.1582 12.096 6.1582 12.768V13.44H10.6382V13.328C10.6382 11.424 12.0942 9.96804 13.9982 9.96804C15.9022 9.96804 17.3582 11.424 17.3582 13.328V13.44H21.8382V12.768C21.8382 12.208 21.2782 11.648 20.7182 11.648Z" fill="white"/>
</svg>
