<svg width="28" height="28" viewBox="0 0 28 28" fill="none" xmlns="http://www.w3.org/2000/svg">
<path fill-rule="evenodd" clip-rule="evenodd" d="M18.6954 16.8393C18.6954 14.2694 20.7782 12.1866 23.3481 12.1866C25.918 12.1866 28.0008 14.2694 28.0008 16.8393C28.0008 17.675 27.7798 18.4606 27.3925 19.1398C27.1667 18.2203 26.444 17.5669 25.5502 17.1894C25.8051 16.786 25.9534 16.3085 25.9534 15.7971C25.9534 14.3581 24.7855 13.1917 23.348 13.1917C21.9106 13.1917 20.7426 14.358 20.7426 15.7971C20.7426 16.3085 20.8894 16.786 21.1459 17.1894C20.2522 17.5669 19.5294 18.2202 19.3035 19.1398C18.9164 18.4606 18.6953 17.675 18.6953 16.8393H18.6954Z" fill="white"/>
<path fill-rule="evenodd" clip-rule="evenodd" d="M7.32909 15.7004L5.03824 17.9913C3.67666 19.3529 3.67666 21.6001 5.03824 22.9617C6.39982 24.3234 8.64873 24.3234 10.0104 22.9617L12.3012 20.6725L15.1422 23.5118L12.8513 25.8027C9.92164 28.7324 5.12697 28.7324 2.19727 25.8027C-0.732424 22.873 -0.732424 18.0799 2.19727 15.1502L4.48812 12.8594L7.32909 15.7003V15.7004Z" fill="white"/>
<path fill-rule="evenodd" clip-rule="evenodd" d="M17.0301 13.9402C16.8962 14.0725 16.68 14.0725 16.5477 13.9402C16.4138 13.8063 16.4138 13.5902 16.5477 13.4562L17.8996 12.1043C18.0335 11.9704 18.2497 11.9704 18.3836 12.1043C18.5159 12.2366 18.5159 12.4528 18.3836 12.5867L17.03 13.9403L17.0301 13.9402Z" fill="white"/>
<path fill-rule="evenodd" clip-rule="evenodd" d="M14.5438 11.4542C14.4099 11.5881 14.1937 11.5881 14.0614 11.4542C13.9275 11.3203 13.9275 11.1041 14.0614 10.9718L15.4133 9.61826C15.5472 9.48434 15.7634 9.48434 15.8973 9.61826C16.0296 9.75217 16.0296 9.96833 15.8973 10.1007L14.5438 11.4542Z" fill="white"/>
<path fill-rule="evenodd" clip-rule="evenodd" d="M11.0262 12.4852C10.8923 12.6191 10.6761 12.6191 10.5438 12.4852C10.4099 12.3513 10.4099 12.1351 10.5438 12.0028L11.8957 10.6493C12.0296 10.5153 12.2458 10.5153 12.3797 10.6493C12.512 10.7832 12.512 10.9993 12.3797 11.1317L11.0262 12.4852Z" fill="white"/>
<path fill-rule="evenodd" clip-rule="evenodd" d="M13.5125 14.9712C13.3786 15.1051 13.1624 15.1051 13.0301 14.9712C12.8962 14.8373 12.8962 14.6211 13.0301 14.4888L14.382 13.1352C14.5159 13.0013 14.7321 13.0013 14.866 13.1352C14.9983 13.2691 14.9983 13.4853 14.866 13.6176L13.5125 14.9712H13.5125Z" fill="white"/>
<path fill-rule="evenodd" clip-rule="evenodd" d="M15.9992 17.4572C15.8653 17.5895 15.6492 17.5895 15.5153 17.4572C15.3829 17.3233 15.3829 17.1071 15.5153 16.9732L16.8688 15.6213C17.0027 15.4874 17.2189 15.4874 17.3512 15.6213C17.4851 15.7536 17.4851 15.9698 17.3512 16.1037L15.9993 17.4573L15.9992 17.4572Z" fill="white"/>
<path d="M12.7793 20.1881L14.6859 18.2815L17.5265 21.1221L15.6198 23.0287L12.7793 20.1881Z" fill="white"/>
<path fill-rule="evenodd" clip-rule="evenodd" d="M9.72013 13.3095L7.81167 15.2163L4.9707 12.377L6.87916 10.4685L9.72013 13.3095Z" fill="white"/>
<path fill-rule="evenodd" clip-rule="evenodd" d="M23.3488 13.8759C24.4103 13.8759 25.2702 14.7357 25.2702 15.7973C25.2702 16.8588 24.4103 17.7203 23.3488 17.7203C22.2873 17.7203 21.4258 16.8588 21.4258 15.7973C21.4258 14.7357 22.2873 13.8759 23.3488 13.8759Z" fill="white"/>
<path fill-rule="evenodd" clip-rule="evenodd" d="M11.1633 1.68896C10.1017 1.68896 9.24023 2.54886 9.24023 3.61034C9.24023 4.67182 10.1017 5.53336 11.1633 5.53336C12.2248 5.53336 13.0847 4.67187 13.0847 3.61034C13.0847 2.5488 12.2249 1.68896 11.1633 1.68896Z" fill="white"/>
<path fill-rule="evenodd" clip-rule="evenodd" d="M23.3488 1.68896C24.4103 1.68896 25.2702 2.54886 25.2702 3.61034C25.2702 4.67182 24.4103 5.53336 23.3488 5.53336C22.2873 5.53336 21.4258 4.67187 21.4258 3.61034C21.4258 2.5488 22.2873 1.68896 23.3488 1.68896Z" fill="white"/>
<path fill-rule="evenodd" clip-rule="evenodd" d="M26.7831 19.9772C25.9329 20.9081 24.7084 21.4905 23.3484 21.4905C21.9884 21.4905 20.7639 20.9081 19.9121 19.9772V19.761C19.9121 18.7641 20.6365 18.0897 21.6125 17.7396C22.5998 18.6237 24.0953 18.6237 25.0842 17.7396C26.0603 18.0897 26.783 18.7641 26.783 19.761V19.9772H26.7831Z" fill="white"/>
<path fill-rule="evenodd" clip-rule="evenodd" d="M26.7831 7.79037C25.9329 8.72124 24.7084 9.30522 23.3484 9.30522C21.9884 9.30522 20.7639 8.72124 19.9121 7.79037V7.57581C19.9121 6.57716 20.6365 5.90445 21.6125 5.55273C22.6014 6.43682 24.0953 6.43682 25.0842 5.55273C26.0603 5.90445 26.783 6.57716 26.783 7.57581V7.79037H26.7831Z" fill="white"/>
<path fill-rule="evenodd" clip-rule="evenodd" d="M7.72656 7.79037C8.57678 8.72124 9.80126 9.30522 11.1612 9.30522C12.5212 9.30522 13.7457 8.72124 14.5959 7.79037V7.57581C14.5959 6.57716 13.8732 5.90445 12.8971 5.55273C11.9082 6.43682 10.4143 6.43682 9.42541 5.55273C8.44935 5.9028 7.72662 6.57716 7.72662 7.57581V7.79037H7.72656Z" fill="white"/>
<path fill-rule="evenodd" clip-rule="evenodd" d="M11.1624 1.00508C12.6014 1.00508 13.7678 2.1731 13.7678 3.61049C13.7678 4.1219 13.6194 4.5994 13.3645 5.00274C14.2583 5.38024 14.981 6.0336 15.2069 6.9532C15.5941 6.274 15.8151 5.48997 15.8151 4.65267C15.8151 2.08272 13.7324 0 11.1624 0C8.59249 0 6.50977 2.08272 6.50977 4.65267C6.50977 5.48997 6.73076 6.274 7.11799 6.9532C7.34388 6.03366 8.06661 5.38024 8.96037 5.00274C8.70546 4.5994 8.55709 4.1219 8.55709 3.61049C8.55709 2.17304 9.72351 1.00508 11.1625 1.00508H11.1624Z" fill="white"/>
<path fill-rule="evenodd" clip-rule="evenodd" d="M23.3499 1.00508C24.7873 1.00508 25.9553 2.1731 25.9553 3.61049C25.9553 4.1219 25.8069 4.5994 25.552 5.00274C26.4458 5.38024 27.1685 6.0336 27.3944 6.9532C27.7816 6.274 28.0026 5.48997 28.0026 4.65267C28.0026 2.08272 25.9199 0 23.3499 0C20.78 0 18.6973 2.08272 18.6973 4.65267C18.6973 5.48997 18.9183 6.274 19.3055 6.9532C19.5313 6.03366 20.2541 5.38024 21.1479 5.00274C20.8914 4.5994 20.7445 4.1219 20.7445 3.61049C20.7445 2.17304 21.911 1.00508 23.35 1.00508H23.3499Z" fill="white"/>
</svg>
