<svg width="28" height="28" viewBox="0 0 28 28" fill="none" xmlns="http://www.w3.org/2000/svg">
<path d="M7.46734 4.66681C7.46734 3.63529 6.63238 2.80005 5.60086 2.80005C4.57046 2.80005 3.73438 3.63529 3.73438 4.66681C3.73438 5.44969 4.21738 6.11805 4.90086 6.39497V12.1336H6.30086V6.39497C6.98434 6.11833 7.46734 5.45025 7.46734 4.66681Z" fill="white"/>
<path d="M24.2667 4.66681C24.2667 3.63529 23.4318 2.80005 22.4 2.80005C21.3698 2.80005 20.5332 3.63529 20.5332 4.66681C20.5332 5.44969 21.0165 6.11805 21.7 6.39497V12.1336H23.1V6.39553C23.7834 6.11833 24.2667 5.45025 24.2667 4.66681Z" fill="white"/>
<path d="M19.6 13.0668C16.1437 14.2646 12.1369 14.3576 8.4 13.0668C7.53424 14.4998 7 16.4794 7 18.6671C7 19.698 10.1326 20.5335 14 20.5335C17.8657 20.5335 21 19.698 21 18.6671C21 16.4794 20.466 14.4998 19.6 13.0668ZM10.5 18.6671C9.85516 18.6671 9.33352 18.1454 9.33352 17.5C9.33352 16.8557 9.85516 16.3335 10.5 16.3335C11.1448 16.3335 11.6665 16.8557 11.6665 17.5C11.6665 18.1454 11.1448 18.6671 10.5 18.6671ZM17.5 18.6671C16.8546 18.6671 16.3332 18.1454 16.3332 17.5C16.3332 16.8557 16.8546 16.3335 17.5 16.3335C18.1454 16.3335 18.6668 16.8557 18.6668 17.5C18.6668 18.1454 18.1454 18.6671 17.5 18.6671Z" fill="white"/>
<path d="M14.0008 6.53357C7.81558 6.53357 2.80078 11.9644 2.80078 18.6671C2.80078 22.2766 7.81558 25.2001 14.0008 25.2001C20.1879 25.2001 25.2008 22.2766 25.2008 18.6671C25.2008 11.9644 20.1879 6.53357 14.0008 6.53357ZM14.0008 23.3336C8.50046 23.3336 4.66726 20.8743 4.66726 18.6671C4.66726 13.0058 8.8541 8.40005 14.0008 8.40005C19.1469 8.40005 23.334 13.0058 23.334 18.6671C23.334 20.8743 19.5017 23.3336 14.0008 23.3336Z" fill="white"/>
</svg>
