<svg width="28" height="28" viewBox="0 0 28 28" fill="none" xmlns="http://www.w3.org/2000/svg">
<g clip-path="url(#clip0_1012_2713)">
<path d="M22.5677 26.5202C22.8078 26.5202 23.0447 26.6116 23.2249 26.7856C24.3769 27.898 26.0572 28.2683 27.551 27.8048C26.5896 25.802 26.4564 23.5075 27.2014 21.383C28.1259 18.7398 28.3576 16.0905 27.3054 13.4334C26.381 11.0992 24.5971 9.15994 22.3394 8.05408C22.4783 8.79455 22.5483 9.54903 22.5483 10.3115C22.5484 13.5478 21.3039 16.5916 19.0444 18.8823C16.7846 21.1733 13.7553 22.4615 10.5147 22.5097C9.91264 22.5191 9.31328 22.4837 8.7207 22.4056C10.5017 25.5274 13.8606 27.5606 17.5516 27.6153C19.1662 27.6403 20.7166 27.302 22.1604 26.6125C22.2904 26.5504 22.4296 26.5202 22.5677 26.5202Z" fill="white"/>
<path d="M10.5414 0.00205732C4.79267 -0.112091 0.0138926 4.53854 3.11717e-05 10.286C-0.00336487 11.6903 0.270744 13.0517 0.814803 14.3328C0.822704 14.3514 0.830051 14.3703 0.836704 14.3894C1.58168 16.5139 1.44855 18.8083 0.48712 20.8111C1.98103 21.2745 3.66117 20.9043 4.81319 19.7919C5.097 19.5177 5.52164 19.4487 5.87774 19.6189C7.32134 20.3084 8.87187 20.6477 10.4864 20.6218C16.1902 20.5371 20.6581 16.0082 20.658 10.3114C20.6581 4.73891 16.1197 0.114196 10.5414 0.00205732ZM4.81943 11.8514C3.9935 11.8514 3.32392 11.1829 3.32392 10.3584C3.32392 9.53384 3.9935 8.86537 4.81943 8.86537C5.64536 8.86537 6.31493 9.53384 6.31493 10.3584C6.31486 11.1829 5.64536 11.8514 4.81943 11.8514ZM10.3291 11.8514C9.50312 11.8514 8.83355 11.1829 8.83355 10.3584C8.83355 9.53384 9.50312 8.86537 10.3291 8.86537C11.155 8.86537 11.8246 9.53384 11.8246 10.3584C11.8246 11.1829 11.155 11.8514 10.3291 11.8514ZM15.8387 11.8514C15.0128 11.8514 14.3432 11.1829 14.3432 10.3584C14.3432 9.53384 15.0128 8.86537 15.8387 8.86537C16.6647 8.86537 17.3342 9.53384 17.3342 10.3584C17.3342 11.1829 16.6647 11.8514 15.8387 11.8514Z" fill="white"/>
</g>
<defs>
<clipPath id="clip0_1012_2713">
<rect width="28" height="28" fill="white"/>
</clipPath>
</defs>
</svg>
