<svg width="40" height="40" viewBox="0 0 40 40" fill="none" xmlns="http://www.w3.org/2000/svg">
<path d="M9.88739 1.25C7.4749 1.25 5.5249 3.21251 5.5249 5.61249C5.5249 8.02498 7.4749 9.97497 9.88739 9.97497C12.2874 9.97497 14.25 8.02498 14.25 5.61249C14.25 3.21251 12.2875 1.25 9.88739 1.25Z" fill="white"/>
<path d="M2.5 20.7502H17.2625C17.9625 20.7502 18.5125 20.1876 18.5125 19.5002C18.5125 14.7876 14.675 10.9502 9.96246 10.9502H9.80004C5.08751 10.9502 1.25 14.7876 1.25 19.5002C1.25 20.1876 1.81251 20.7502 2.5 20.7502Z" fill="white"/>
<path d="M30.1126 19.25C27.7125 19.25 25.75 21.2125 25.75 23.6126C25.75 26.0251 27.7125 27.975 30.1126 27.975C32.5251 27.975 34.4751 26.0251 34.4751 23.6126C34.4751 21.2125 32.5251 19.25 30.1126 19.25Z" fill="white"/>
<path d="M22.7373 38.7502H37.4998C38.1873 38.7502 38.7498 38.1877 38.7498 37.5002C38.7498 32.7877 34.9123 28.9502 30.1998 28.9502H30.0373C25.3248 28.9502 21.4873 32.7877 21.4873 37.5002C21.4873 38.1877 22.0373 38.7502 22.7373 38.7502Z" fill="white"/>
<path d="M27.5 6.86377C29.5679 6.86377 31.25 8.54589 31.25 10.6138V15.8481C31.25 16.5385 31.8091 17.0981 32.5 17.0981C33.1909 17.0981 33.75 16.5385 33.75 15.8481V10.6138C33.75 7.16772 30.946 4.36377 27.5 4.36377H20C19.3091 4.36377 18.75 4.92346 18.75 5.61377C18.75 6.30408 19.3091 6.86377 20 6.86377H27.5Z" fill="white"/>
<path d="M7.5 22.9014C6.80909 22.9014 6.25 23.4611 6.25 24.1514V29.3857C6.25 32.8318 9.05395 35.6357 12.5 35.6357H18.2251C18.916 35.6357 19.4751 35.0761 19.4751 34.3857C19.4751 33.6954 18.916 33.1357 18.2251 33.1357H12.5C10.4321 33.1357 8.75 31.4536 8.75 29.3857V24.1514C8.75 23.4611 8.19091 22.9014 7.5 22.9014Z" fill="white"/>
</svg>
