<svg width="24" height="24" viewBox="0 0 24 24" fill="none" xmlns="http://www.w3.org/2000/svg">
<path d="M13.1719 12.4691V3.98468C13.1719 2.82157 12.2257 1.87531 11.0625 1.87531H2.10938C0.946266 1.87531 0 2.82157 0 3.98468V12.4691C0 13.6322 0.946266 14.5784 2.10938 14.5784H3.16411L4.35942 16.1721C4.64077 16.5473 5.20369 16.5465 5.48442 16.1721L6.67973 14.5784H11.0625C12.2257 14.5784 13.1719 13.6322 13.1719 12.4691ZM9.49697 11.1092C9.22247 11.3837 8.7772 11.3838 8.50261 11.1092L8.24203 10.8486C7.76025 11.1557 7.18913 11.3345 6.57666 11.3345C4.86309 11.3345 3.46898 9.94043 3.46898 8.22687C3.46898 6.51326 4.86309 5.1192 6.57666 5.1192C8.29027 5.1192 9.68433 6.51331 9.68433 8.22687C9.68433 8.81965 9.51731 9.37413 9.22809 9.84598L9.49692 10.1148C9.77156 10.3894 9.77156 10.8346 9.49697 11.1092Z" fill="white"/>
<path d="M6.57642 6.52545C5.63827 6.52545 4.875 7.28872 4.875 8.22687C4.875 9.42744 6.09019 10.2498 7.20183 9.80867L6.96384 9.57069C6.68925 9.29614 6.68925 8.85092 6.96384 8.57633C7.23839 8.30173 7.68361 8.30173 7.9582 8.57633L8.17917 8.7973C8.57362 7.69236 7.74952 6.52545 6.57642 6.52545Z" fill="white"/>
<path d="M16.9863 14.3958H17.8508L17.4205 13.2558L16.9863 14.3958Z" fill="white"/>
<path d="M21.8907 7.54688H14.5782V12.469C14.5782 14.4075 13.0011 15.9847 11.0626 15.9847H10.8281V18.1406C10.8281 19.3037 11.7744 20.25 12.9375 20.25H17.3202L18.5155 21.8437C18.7969 22.2188 19.3598 22.218 19.6405 21.8437L20.8358 20.25H21.8907C23.0538 20.25 24 19.3037 24 18.1406V9.65625C24 8.49314 23.0538 7.54688 21.8907 7.54688ZM19.5608 16.9377C19.1988 17.0743 18.7923 16.8928 18.6547 16.5281L18.3807 15.8021H16.45L16.1727 16.5301C16.0345 16.893 15.6282 17.0752 15.2654 16.9369C14.9025 16.7987 14.7204 16.3925 14.8586 16.0296L16.6643 11.2882C16.7788 10.986 17.0733 10.768 17.4215 10.7676C17.7505 10.7673 18.0468 10.9631 18.1733 11.2708C18.1795 11.2858 18.0991 11.0734 19.9703 16.0315C20.1075 16.3949 19.9241 16.8006 19.5608 16.9377Z" fill="white"/>
</svg>
