<svg width="40" height="40" viewBox="0 0 40 40" fill="none" xmlns="http://www.w3.org/2000/svg">
<g clip-path="url(#clip0_937_307)">
<path d="M19.9998 28.3332C24.6022 28.3332 28.3332 24.6022 28.3332 19.9998C28.3332 15.3975 24.6022 11.6665 19.9998 11.6665C15.3975 11.6665 11.6665 15.3975 11.6665 19.9998C11.6665 24.6022 15.3975 28.3332 19.9998 28.3332Z" fill="white"/>
<path d="M38.3333 18.3333H36.5817C35.7983 10.4717 29.5283 4.20167 21.6667 3.41833V1.66667C21.6667 0.746667 20.9217 0 20 0C19.0783 0 18.3333 0.746667 18.3333 1.66667V3.41833C10.4717 4.20167 4.20167 10.4717 3.41833 18.3333H1.66667C0.745 18.3333 0 19.08 0 20C0 20.92 0.745 21.6667 1.66667 21.6667H3.41833C4.20333 29.5283 10.4717 35.7983 18.3333 36.5817V38.3333C18.3333 39.2533 19.0783 40 20 40C20.9217 40 21.6667 39.2533 21.6667 38.3333V36.5817C29.5283 35.7967 35.7983 29.5283 36.5817 21.6667H38.3333C39.255 21.6667 40 20.92 40 20C40 19.08 39.255 18.3333 38.3333 18.3333ZM21.6433 33.2217C21.5833 32.3567 20.8817 31.6667 20 31.6667C19.1183 31.6667 18.4167 32.3567 18.3567 33.2217C12.32 32.475 7.52667 27.6817 6.78 21.645C7.645 21.5833 8.33333 20.88 8.33333 20C8.33333 19.12 7.645 18.4167 6.77833 18.3567C7.525 12.32 12.3183 7.52667 18.355 6.78C18.4167 7.64333 19.1183 8.33333 20 8.33333C20.8817 8.33333 21.5833 7.64333 21.6433 6.77833C27.68 7.525 32.4733 12.3183 33.22 18.355C32.355 18.4167 31.6667 19.12 31.6667 20C31.6667 20.88 32.355 21.5833 33.2217 21.6433C32.4733 27.6817 27.6817 32.4733 21.6433 33.2217Z" fill="white"/>
</g>
<defs>
<clipPath id="clip0_937_307">
<rect width="40" height="40" fill="white"/>
</clipPath>
</defs>
</svg>
