<svg width="24" height="24" viewBox="0 0 24 24" fill="none" xmlns="http://www.w3.org/2000/svg">
<path d="M8.57141 12.0002C9.41918 12.0002 10.2479 11.7488 10.9528 11.2778C11.6577 10.8068 12.2071 10.1373 12.5315 9.35409C12.8559 8.57084 12.9407 7.70898 12.7752 6.87751C12.6098 6.04603 12.2015 5.2823 11.602 4.68288C11.0025 4.08347 10.2387 3.67531 9.40715 3.51C8.57565 3.3447 7.71381 3.42969 6.93061 3.75422C6.14741 4.07875 5.47804 4.62825 5.00715 5.33322C4.53627 6.03819 4.28501 6.86696 4.28516 7.71474C4.28635 8.85109 4.73834 9.94054 5.54193 10.744C6.34552 11.5474 7.43506 11.9992 8.57141 12.0002Z" fill="#0B6DFF"/>
<path d="M14.1788 15.5409C13.0926 14.4269 11.699 13.6619 10.176 13.3437C8.65303 13.0254 7.06973 13.1684 5.62839 13.7544C4.18705 14.3403 2.95309 15.3426 2.08414 16.6333C1.21519 17.9239 0.750703 19.4443 0.75 21.0002C0.75 21.1991 0.829018 21.3899 0.96967 21.5305C1.11032 21.6712 1.30109 21.7502 1.5 21.7502H15.645C15.8439 21.7502 16.0347 21.6712 16.1753 21.5305C16.316 21.3899 16.395 21.1991 16.395 21.0002C16.3979 20.2049 16.2751 19.4142 16.0312 18.6572C15.6681 17.4869 15.0333 16.4191 14.1788 15.5409Z" fill="#0B6DFF"/>
<path d="M17.625 12.375C19.3854 12.375 20.8125 10.9479 20.8125 9.1875C20.8125 7.42709 19.3854 6 17.625 6C15.8646 6 14.4375 7.42709 14.4375 9.1875C14.4375 10.9479 15.8646 12.375 17.625 12.375Z" fill="#0B6DFF"/>
<path d="M17.624 13.2524C16.6187 13.2562 15.6328 13.53 14.7695 14.0452C14.9323 14.1907 15.0965 14.3339 15.2503 14.4914C16.2715 15.5411 17.0301 16.8173 17.4643 18.2159C17.613 18.6764 17.7226 19.1486 17.792 19.6274H22.499C22.6979 19.6274 22.8887 19.5484 23.0294 19.4078C23.17 19.2671 23.249 19.0764 23.249 18.8774C23.2474 17.3861 22.6543 15.9563 21.5998 14.9017C20.5452 13.8472 19.1154 13.254 17.624 13.2524Z" fill="#0B6DFF"/>
</svg>
