<svg width="24" height="24" viewBox="0 0 24 24" fill="none" xmlns="http://www.w3.org/2000/svg">
<path fill-rule="evenodd" clip-rule="evenodd" d="M19.2583 9.29564V12.3082C19.2583 12.4901 19.1108 12.6376 18.9289 12.6376H14.9562V11.9788H18.5995V5.3795C18.2325 5.245 17.9703 4.89239 17.9703 4.47903C17.9703 3.94994 18.3998 3.52039 18.9289 3.52039C19.458 3.52039 19.8875 3.94994 19.8875 4.47903C19.8875 4.89239 19.6253 5.245 19.2583 5.3795V8.63681H21.5727C21.7039 8.3075 22.0257 8.07451 22.4016 8.07451C22.8937 8.07451 23.2933 8.47409 23.2933 8.96623C23.2933 9.45841 22.8937 9.85799 22.4016 9.85799C22.0257 9.85799 21.7039 9.62496 21.5727 9.29564H19.2583ZM17.6066 16.5178V14.4839H14.956C14.9561 14.4776 14.9562 14.4714 14.9562 14.465V13.8251H17.936C18.1179 13.8251 18.2654 13.9726 18.2654 14.1545V16.1883H20.5799C20.711 15.859 21.0328 15.626 21.4087 15.626C21.9008 15.626 22.3004 16.0256 22.3004 16.5178C22.3004 17.0099 21.9008 17.4095 21.4087 17.4095C21.0328 17.4095 20.711 17.1765 20.5799 16.8472H18.2654V18.8211C18.5947 18.9523 18.8278 19.2741 18.8278 19.65C18.8278 20.1421 18.4282 20.5417 17.936 20.5417C17.4439 20.5417 17.0443 20.1421 17.0443 19.65C17.0443 19.2741 17.2773 18.9523 17.6066 18.8211V16.5178ZM15.0888 5.76707C14.9543 6.13408 14.6017 6.3963 14.1883 6.3963C13.6592 6.3963 13.2297 5.96674 13.2297 5.43766C13.2297 4.90858 13.6592 4.47903 14.1883 4.47903C14.6017 4.47903 14.9543 4.74124 15.0888 5.10825H16.5689C16.7509 5.10825 16.8983 5.25573 16.8983 5.43766V9.98712C16.8983 10.169 16.7509 10.3165 16.5689 10.3165H14.9562V9.65771H16.2395V5.76707H15.0888ZM11.6492 2.37865V6.58679C11.2459 6.49314 10.826 6.44359 10.395 6.44359C7.33364 6.44359 4.83792 8.93936 4.83792 12.0006C4.83792 15.0606 7.33364 17.5577 10.395 17.5577C10.826 17.5577 11.2459 17.5081 11.6492 17.4144V21.6215C11.5632 21.6648 11.4659 21.6891 11.363 21.6891H9.4255C9.07421 21.6891 8.78922 21.4053 8.78922 21.0529C8.78922 19.1428 6.47863 18.1861 5.12823 19.5365C4.8799 19.7849 4.47708 19.7849 4.22875 19.5365L2.85774 18.1666C2.60941 17.9183 2.60941 17.5143 2.85774 17.266C4.20701 15.9167 3.25025 13.605 1.34136 13.605C0.990019 13.605 0.705078 13.3201 0.705078 12.9687V11.0312C0.705078 10.6799 0.990019 10.3949 1.34136 10.3949C3.25025 10.3949 4.20701 8.08321 2.85774 6.73394C2.60941 6.48561 2.60941 6.08279 2.85774 5.83441L4.22875 4.4634C4.47708 4.21507 4.8799 4.21507 5.12823 4.4634C6.4775 5.81267 8.78922 4.85597 8.78922 2.94707C8.78922 2.59573 9.07421 2.31079 9.4255 2.31079H11.363C11.4659 2.31079 11.5632 2.33521 11.6492 2.37865ZM13.6126 8.85013C13.9908 8.85013 14.2974 9.15667 14.2974 9.53488V14.465C14.2974 14.8433 13.9908 15.1498 13.6126 15.1498H8.6824C8.30423 15.1498 7.99764 14.8433 7.99764 14.465V9.53488C7.99764 9.15667 8.30423 8.85013 8.6824 8.85013H13.6126Z" fill="white"/>
</svg>
