<svg width="20" height="20" viewBox="0 0 20 20" fill="none" xmlns="http://www.w3.org/2000/svg">
<g clip-path="url(#clip0_1122_1042)">
<path d="M10.0007 0.833023C8.18766 0.833023 6.41538 1.37064 4.90793 2.37788C3.40048 3.38513 2.22556 4.81677 1.53176 6.49176C0.837956 8.16675 0.656426 10.0099 1.01012 11.788C1.36382 13.5662 2.23686 15.1995 3.51884 16.4815C4.80082 17.7635 6.43417 18.6365 8.21233 18.9902C9.99049 19.3439 11.8336 19.1624 13.5086 18.4686C15.1836 17.7748 16.6152 16.5999 17.6225 15.0924C18.6297 13.585 19.1673 11.8127 19.1673 9.99969C19.1645 7.56942 18.1978 5.23951 16.4793 3.52104C14.7608 1.80258 12.4309 0.83589 10.0007 0.833023ZM13.0898 13.0889C12.9335 13.2451 12.7216 13.3328 12.5007 13.3328C12.2797 13.3328 12.0678 13.2451 11.9115 13.0889L9.41149 10.5889C9.2552 10.4326 9.16737 10.2207 9.16732 9.99969V4.99969C9.16732 4.77868 9.25512 4.56671 9.4114 4.41043C9.56768 4.25415 9.77964 4.16636 10.0007 4.16636C10.2217 4.16636 10.4336 4.25415 10.5899 4.41043C10.7462 4.56671 10.834 4.77868 10.834 4.99969V9.65469L13.0898 11.9105C13.246 12.0668 13.3338 12.2787 13.3338 12.4997C13.3338 12.7207 13.246 12.9326 13.0898 13.0889Z" fill="#011448"/>
</g>
<defs>
<clipPath id="clip0_1122_1042">
<rect width="20" height="20" fill="white"/>
</clipPath>
</defs>
</svg>
