<svg width="28" height="28" viewBox="0 0 28 28" fill="none" xmlns="http://www.w3.org/2000/svg">
<g clip-path="url(#clip0_899_373)">
<path d="M14 28C6.3 28 0 21.7 0 14C0 6.3 6.3 0 14 0C14.875 0 15.6625 0.0875 16.45 0.175C17.15 0.35 17.5875 1.05 17.5 1.75C17.325 2.45 16.7125 2.975 16.0125 2.8C15.3125 2.7125 14.7 2.625 14 2.625C7.7 2.625 2.625 7.7 2.625 14C2.625 20.3 7.7 25.375 14 25.375C20.125 25.375 25.2 20.3875 25.375 14.2625C25.375 13.5625 25.9875 12.95 26.6875 12.95C27.3875 12.95 28 13.5625 28 14.2625C27.825 21.875 21.525 28 14 28Z" fill="white"/>
<path d="M22.9247 8.31248H25.3747C25.8122 8.31248 26.2497 8.66248 26.2497 9.18748V10.0625C26.2497 10.5 25.8997 10.9375 25.3747 10.9375H20.3872C19.9497 10.9375 19.5122 10.5875 19.5122 10.0625V8.83748C19.5122 8.57498 19.5997 8.39998 19.7747 8.22498L22.4872 5.59998H20.3872C19.9497 5.59998 19.5122 5.24998 19.5122 4.72498V3.84998C19.5122 3.41248 19.8622 2.97498 20.3872 2.97498H25.1997C25.6372 2.97498 26.0747 3.32498 26.0747 3.84998V5.07498C26.0747 5.33748 25.9872 5.51248 25.8122 5.68748L22.9247 8.31248Z" fill="white"/>
<path d="M17.9375 19.25C17.5875 19.25 17.2375 19.1625 16.975 18.9L13.0375 14.9625C12.775 14.7 12.6875 14.35 12.6875 14V8.75C12.6875 8.05 13.3 7.4375 14 7.4375C14.7 7.4375 15.3125 8.05 15.3125 8.75V13.475L18.9 17.0625C19.425 17.5875 19.425 18.375 18.9 18.9C18.6375 19.1625 18.2875 19.25 17.9375 19.25Z" fill="white"/>
</g>
<defs>
<clipPath id="clip0_899_373">
<rect width="28" height="28" fill="white"/>
</clipPath>
</defs>
</svg>
