<svg width="17" height="16" viewBox="0 0 17 16" fill="none" xmlns="http://www.w3.org/2000/svg">
<path d="M13.2586 8.32399H7.67603V2.74143C7.67603 2.55636 7.60251 2.37886 7.47164 2.248C7.34077 2.11713 7.16328 2.04361 6.97821 2.04361C5.59805 2.04361 4.24888 2.45287 3.10132 3.21965C1.95376 3.98642 1.05935 5.07627 0.531187 6.35137C0.00302354 7.62647 -0.135168 9.02955 0.134087 10.3832C0.403343 11.7368 1.06795 12.9802 2.04387 13.9561C3.01979 14.9321 4.26319 15.5967 5.61683 15.8659C6.97046 16.1352 8.37355 15.997 9.64865 15.4688C10.9237 14.9407 12.0136 14.0463 12.7804 12.8987C13.5471 11.7511 13.9564 10.402 13.9564 9.02181C13.9564 8.83674 13.8829 8.65925 13.752 8.52838C13.6212 8.39751 13.4437 8.32399 13.2586 8.32399Z" fill="#0B6DFF"/>
<path d="M9.18805 0C9.00298 0 8.82549 0.0735201 8.69462 0.204387C8.56375 0.335254 8.49023 0.512747 8.49023 0.69782V6.9782C8.49023 7.16328 8.56375 7.34077 8.69462 7.47164C8.82549 7.6025 9.00298 7.67602 9.18805 7.67602H15.4684C15.6535 7.67602 15.831 7.6025 15.9619 7.47164C16.0927 7.34077 16.1663 7.16328 16.1663 6.9782C16.1642 5.12809 15.4284 3.35434 14.1201 2.04611C12.8119 0.737886 11.0382 0.00203177 9.18805 0Z" fill="#011448"/>
</svg>
