<svg width="24" height="24" viewBox="0 0 24 24" fill="none" xmlns="http://www.w3.org/2000/svg">
<path d="M22.3923 8.00172V6L20.6585 4.99914L19.339 5.76103L13.7336 2.52466V1.00086L11.9998 0L10.266 1.00086V2.52466L4.6607 5.76103L3.34121 4.99914L1.60742 6V8.00172L2.92742 8.76362V15.2364L1.60742 15.9983V18L3.34121 19.0009L4.6607 18.239L10.266 21.4748V22.9991L11.9998 24L13.7336 22.9991V21.4753L19.339 18.239L20.6585 19.0009L22.3923 18V15.9983L21.0722 15.2364V8.76362L22.3923 8.00172ZM20.2447 15.2364L18.9252 15.9983V17.5221L13.3198 20.7584L11.9998 19.9966L10.6798 20.7584L5.07449 17.5221V15.9983L3.75501 15.2364V8.76362L5.07449 8.00172V6.47793L10.6798 3.24155L11.9998 4.00345L13.3198 3.24155L18.9252 6.47793V8.00172L20.2447 8.76362V15.2364Z" fill="white"/>
<path d="M11.5867 12.2389L8.94727 10.715V13.7629L11.5867 15.2868V12.2389Z" fill="white"/>
<path d="M12.0008 11.5222L14.6403 9.99831L12.0008 8.47437L9.36133 9.99831L12.0008 11.5222Z" fill="white"/>
<path d="M11.9993 5.77808C8.563 5.77808 5.77734 8.56373 5.77734 12C5.77734 15.4362 8.563 18.2219 11.9993 18.2219C15.4355 18.2219 18.2212 15.4362 18.2212 12C18.2212 8.56373 15.4355 5.77808 11.9993 5.77808ZM15.8802 14.0017C15.8802 14.1495 15.8013 14.2861 15.6733 14.36L12.2062 16.3618C12.0782 16.4357 11.9204 16.4357 11.7924 16.3618L8.32533 14.36C8.19726 14.2861 8.11843 14.1495 8.11843 14.0017V9.99825C8.11843 9.85042 8.19726 9.71382 8.32533 9.6399L11.7924 7.63818C11.9204 7.56427 12.0782 7.56427 12.2062 7.63818L15.6733 9.6399C15.8013 9.71382 15.8802 9.85042 15.8802 9.99825V14.0017Z" fill="white"/>
<path d="M12.4141 12.2389V15.2868L15.0535 13.7629V10.715L12.4141 12.2389Z" fill="white"/>
</svg>
