<svg width="43" height="51" viewBox="0 0 43 51" fill="none" xmlns="http://www.w3.org/2000/svg">
<path d="M11.9046 50.2826C11.4413 50.2826 11.1325 49.9683 11.1325 49.4969V42.5045C10.7464 42.2688 9.51101 41.7189 5.26437 41.0118C3.17965 40.6975 1.86706 38.5762 2.94802 35.9835C1.40379 34.2551 1.94427 31.9767 2.25311 31.0339C1.55821 30.7196 0.554457 30.1696 0.245611 29.0697C-0.140447 27.9698 0.245611 26.6342 1.32657 25.22C7.81235 16.9705 2.7936 16.1063 7.27187 11.628C19.8574 -1.17828 36.9211 11.7066 35.2225 26.7127C34.7592 31.191 32.6745 34.8836 29.2 37.7906C27.2697 39.4405 27.5013 42.8974 27.3469 47.9256C27.3469 48.397 26.9608 48.7113 26.5748 48.7113C26.1115 48.7113 25.8027 48.3184 25.8027 47.9256C25.8799 43.3688 25.571 38.7334 28.1962 36.6121C31.3619 34.0194 33.215 30.641 33.6783 26.6342C35.2225 13.1208 19.9346 1.02157 8.35283 12.8065C4.49225 16.6562 9.35659 17.599 2.56196 26.3199C2.02148 27.027 1.481 27.9698 1.71263 28.6769C1.94427 29.4625 3.02523 29.8554 3.41129 29.9339C3.87456 30.0125 4.10619 30.5625 3.95177 30.9553C2.94802 33.7051 3.4885 33.3909 4.18341 35.2764C4.49225 35.6693 4.56946 36.2978 4.33783 36.7692C3.64292 38.4191 4.41504 39.4405 5.496 39.5976C12.1362 40.6975 12.4451 41.6403 12.5995 42.1117C12.6767 42.1903 12.5995 49.5755 12.5995 49.6541C12.6767 49.9683 12.3678 50.2826 11.9046 50.2826Z" fill="#364670"/>
<path d="M21.7107 31.6624C21.479 31.6624 21.1702 31.5052 21.093 31.2695L18.4678 27.1055C17.2324 27.3412 16.1514 27.1055 15.3021 26.5556C14.0667 25.6913 13.5262 24.2771 13.3718 23.4129C12.7541 23.2558 11.7504 22.9415 10.9782 22.0773C10.3606 21.3702 10.1289 20.4274 10.2061 19.3275C9.82007 18.2275 9.89728 17.049 10.4378 16.0277C10.9782 15.0849 11.8276 14.5349 12.8313 14.3778L12.9085 14.2992C13.6807 12.6493 15.5337 11.9422 17.1552 12.6493H17.2324C17.8501 12.0208 18.6994 11.7065 19.5487 11.7065C20.3981 11.7065 21.1702 12.0994 21.7879 12.7279C22.8688 12.2565 24.027 12.4136 24.9536 13.1207C25.8801 13.8278 26.4206 14.8492 26.4206 15.792C27.7332 16.342 28.5825 17.7561 28.5825 18.9346C30.0495 20.2703 30.2039 22.7058 28.8141 24.1986C28.4281 25.6128 27.5015 26.477 26.2662 26.7913C25.9573 27.8912 24.9536 28.3626 23.8726 28.3626L24.6447 30.1696C24.8763 30.641 24.5675 31.191 24.027 31.2695C21.6335 31.6624 21.7879 31.6624 21.7107 31.6624Z" fill="#0066FF"/>
<path d="M2.17585 12.0207L0.322771 10.6851C0.0139242 10.4494 -0.140499 9.97801 0.168348 9.58518C0.399983 9.19235 0.863253 9.11378 1.24931 9.42805L3.10239 10.7637C3.41124 10.9994 3.56566 11.4708 3.25681 11.8636C3.02518 12.1779 2.56191 12.2564 2.17585 12.0207Z" fill="#364670"/>
<path d="M9.27964 5.49953L8.19868 3.45681C7.96704 3.06398 8.12147 2.59258 8.50752 2.43545C8.89358 2.19975 9.35685 2.35688 9.51127 2.74971L10.5922 4.79244C10.8239 5.18527 10.6694 5.65666 10.2834 5.8138C9.89733 6.0495 9.43406 5.89236 9.27964 5.49953Z" fill="#364670"/>
<path d="M19.1627 3.84975C18.6995 3.84975 18.3906 3.53548 18.3906 3.06408V0.785662C18.3906 0.314265 18.6995 0 19.1627 0C19.626 0 19.9349 0.314265 19.9349 0.785662V3.06408C19.9349 3.53548 19.626 3.84975 19.1627 3.84975Z" fill="#364670"/>
<path d="M28.1188 5.89257C27.7328 5.65687 27.5784 5.18547 27.81 4.87121L28.8138 2.74992C28.9682 2.35709 29.5087 2.19996 29.8175 2.35709C30.2036 2.59279 30.358 3.06419 30.1264 3.37845L29.1226 5.49974C28.9682 5.89257 28.5049 6.0497 28.1188 5.89257Z" fill="#364670"/>
<path d="M35.1464 11.8634C34.9148 11.5491 34.992 10.9991 35.3008 10.7634L37.1539 9.42782C37.4627 9.19212 38.0032 9.27068 38.2349 9.58495C38.4665 9.89921 38.3893 10.4492 38.0804 10.6849L36.2274 12.0205C35.8413 12.2562 35.378 12.1776 35.1464 11.8634Z" fill="#364670"/>
<path d="M39.1608 22.5485C38.7747 22.5485 38.3887 22.2343 38.3887 21.8414C38.3887 21.37 38.6975 21.0558 39.0836 20.9772L41.3227 20.8201C41.786 20.8201 42.0948 21.1343 42.172 21.5272C42.172 21.9986 41.8632 22.3128 41.4771 22.3914C38.7747 22.5485 39.238 22.5485 39.1608 22.5485Z" fill="#364670"/>
</svg>
