<svg width="22" height="22" viewBox="0 0 22 22" fill="none" xmlns="http://www.w3.org/2000/svg">
<path d="M11 0C12.0544 3.35556e-06 13.0738 0.132337 14.0381 0.378906C14.5897 0.519723 14.923 1.08247 14.7822 1.63379C14.6413 2.18517 14.0788 2.51774 13.5273 2.37695C12.7253 2.17194 11.8771 2.0625 11 2.0625C6.10129 2.0625 2.0625 5.48959 2.0625 9.79688C2.06252 11.9838 3.11709 13.952 4.78711 15.3516C5.02835 15.5538 5.16478 15.8553 5.15625 16.1699C5.1554 16.1929 5.08652 17.9771 4.36523 19.7227C5.85836 19.3856 7.10256 18.6717 7.73926 17.7285C7.97559 17.3784 8.4011 17.2072 8.81348 17.2969C9.51386 17.4496 10.2464 17.5312 11 17.5312C15.8987 17.5312 19.9375 14.1044 19.9375 9.79688C19.9375 9.30985 19.885 8.8328 19.7852 8.37109C19.665 7.81484 20.0193 7.26595 20.5752 7.14551C21.1316 7.02518 21.6817 7.37917 21.8018 7.93555C21.932 8.53836 22 9.16078 22 9.79688C22 15.1652 17.1051 19.5937 11 19.5938C10.3218 19.5938 9.65744 19.5383 9.01367 19.4336C7.65785 20.9314 5.1691 22 2.40625 22C1.99624 21.9999 1.62485 21.7567 1.46094 21.3809C1.29741 21.0046 1.37222 20.567 1.65137 20.2666C2.69142 19.1489 2.9824 17.4068 3.06348 16.5801C1.15878 14.8132 1.88944e-05 12.4216 0 9.79688C0 4.42878 4.89482 0 11 0ZM11.0693 7.01074C11.4877 7.01083 11.8269 7.35018 11.8271 7.76855V9.59375H13.6523C14.0707 9.59388 14.41 9.93317 14.4102 10.3516C14.4102 10.7701 14.0709 11.1102 13.6523 11.1104H11.8271V12.9346C11.8271 13.3531 11.4879 13.6923 11.0693 13.6924C10.6507 13.6924 10.3115 13.3532 10.3115 12.9346V11.1104H8.48633C8.06771 11.1104 7.72852 10.7702 7.72852 10.3516C7.72869 9.93309 8.06782 9.59375 8.48633 9.59375H10.3115V7.76855C10.3117 7.35012 10.6509 7.01074 11.0693 7.01074ZM17.4131 0.505859C17.7426 0.505859 18.0379 0.711374 18.1523 1.02051L18.877 2.97949L20.8369 3.70508C21.1459 3.81958 21.3505 4.11396 21.3506 4.44336C21.3506 4.77291 21.146 5.06813 20.8369 5.18262L18.877 5.90723L18.1523 7.86719C18.0378 8.17621 17.7426 8.38086 17.4131 8.38086C17.0838 8.3807 16.7893 8.17605 16.6748 7.86719L15.9502 5.90723L13.9902 5.18262C13.6811 5.06813 13.4756 4.77291 13.4756 4.44336C13.4757 4.1139 13.6812 3.81954 13.9902 3.70508L15.9502 2.97949L16.6748 1.02051C16.7892 0.711497 17.0837 0.506023 17.4131 0.505859ZM20.3008 0.505859C20.88 0.505859 21.3504 0.97645 21.3506 1.55566C21.3506 2.13526 20.8802 2.60645 20.3008 2.60645C19.7213 2.6063 19.251 2.13517 19.251 1.55566C19.2512 0.976538 19.7214 0.506003 20.3008 0.505859Z" fill="white"/>
</svg>
