<svg width="32" height="32" viewBox="0 0 32 32" fill="none" xmlns="http://www.w3.org/2000/svg">
<path d="M25.8491 10.3701L20.9291 15.2901C20.9591 15.5201 20.9991 15.7601 20.9991 16.0001C20.9991 18.7601 18.7591 21.0001 15.9991 21.0001C15.7591 21.0001 15.5291 20.9601 15.2891 20.9301L11.7891 24.4301C13.1491 24.8001 14.5591 25.0001 15.9991 25.0001C21.4691 25.0001 26.6491 22.1701 29.5291 17.6201C30.1491 16.6401 30.1491 15.3601 29.5291 14.3801C28.5491 12.8301 27.2891 11.4801 25.8491 10.3701Z" fill="white"/>
<path d="M28.2901 2.28998L22.2801 8.29998C20.3201 7.46998 18.1801 7.00998 16.0001 7.00998C10.5301 7.00998 5.35014 9.83998 2.47014 14.39C1.85014 15.38 1.85014 16.65 2.47014 17.63C3.82014 19.76 5.67014 21.51 7.82014 22.77L2.29014 28.3C1.34014 29.25 2.78014 30.64 3.70014 29.71L29.7001 3.69998C30.6401 2.75998 29.2201 1.34998 28.2901 2.28998ZM11.0001 16C11.0001 13.24 13.2401 11 16.0001 11C17.0101 11 17.9601 11.31 18.7401 11.83L17.2701 13.3C16.8801 13.12 16.4501 13 15.9901 13C14.3401 13 12.9901 14.35 12.9901 16C12.9901 16.46 13.1001 16.89 13.2901 17.28L11.8201 18.75C11.3001 17.96 10.9901 17.02 10.9901 16.01L11.0001 16Z" fill="white"/>
</svg>
