<svg width="24" height="24" viewBox="0 0 24 24" fill="none" xmlns="http://www.w3.org/2000/svg">
<path d="M20.625 2.70752H3.375C2.87778 2.7077 2.40097 2.90531 2.04938 3.2569C1.69779 3.60849 1.50018 4.0853 1.5 4.58252V5.67002H22.5V4.58252C22.4998 4.0853 22.3022 3.60849 21.9506 3.2569C21.599 2.90531 21.1222 2.7077 20.625 2.70752ZM16.2188 4.72129C16.0805 4.71825 15.949 4.66121 15.8523 4.56238C15.7556 4.46355 15.7015 4.33079 15.7015 4.19253C15.7015 4.05428 15.7556 3.92152 15.8523 3.82269C15.949 3.72386 16.0806 3.66682 16.2188 3.66379C16.357 3.66683 16.4885 3.72387 16.5852 3.82271C16.6819 3.92154 16.736 4.0543 16.736 4.19255C16.736 4.33081 16.6819 4.46357 16.5852 4.56239C16.4885 4.66122 16.357 4.71826 16.2188 4.72129ZM17.8013 4.72129C17.663 4.71825 17.5315 4.66121 17.4348 4.56238C17.3381 4.46355 17.284 4.33079 17.284 4.19253C17.284 4.05428 17.3381 3.92152 17.4348 3.82269C17.5315 3.72386 17.663 3.66682 17.8013 3.66379C17.9395 3.66683 18.071 3.72387 18.1677 3.82271C18.2644 3.92154 18.3185 4.0543 18.3185 4.19255C18.3185 4.33081 18.2644 4.46357 18.1677 4.56239C18.071 4.66122 17.9395 4.71826 17.8013 4.72129ZM19.3837 4.72129C19.2455 4.71825 19.114 4.66121 19.0173 4.56238C18.9206 4.46355 18.8665 4.33079 18.8665 4.19253C18.8665 4.05428 18.9206 3.92152 19.0173 3.82269C19.114 3.72386 19.2456 3.66682 19.3838 3.66379C19.522 3.66683 19.6535 3.72387 19.7502 3.82271C19.8469 3.92154 19.901 4.0543 19.901 4.19255C19.901 4.33081 19.8469 4.46357 19.7502 4.56239C19.6535 4.66122 19.522 4.71826 19.3837 4.72129Z" fill="white"/>
<path d="M2.25 6.42004H1.5V19.4175C1.50018 19.9148 1.69778 20.3916 2.04937 20.7432C2.40097 21.0948 2.87777 21.2924 3.375 21.2925H20.625C21.1222 21.2924 21.599 21.0948 21.9506 20.7432C22.3022 20.3916 22.4998 19.9148 22.5 19.4175V6.42004H2.25ZM3.78 13.3763C8.95093 6.50629 15.0705 6.53335 20.22 13.3764C20.2639 13.4397 20.2875 13.5149 20.2875 13.592C20.2875 13.669 20.2639 13.7443 20.22 13.8076C15.0491 20.6776 8.92946 20.6505 3.78 13.8074C3.73605 13.7441 3.7125 13.6689 3.7125 13.5919C3.7125 13.5148 3.73605 13.4396 3.78 13.3763Z" fill="white"/>
<path d="M12.0004 18.2475C15.6154 18.2475 18.7166 14.535 19.4441 13.5938C18.7166 12.6488 15.6154 8.93628 12.0004 8.93628C8.38539 8.93628 5.28414 12.6488 4.55664 13.5938C5.28414 14.535 8.38539 18.2475 12.0004 18.2475ZM12.0004 9.93753C12.9693 9.93892 13.8981 10.3247 14.5829 11.0102C15.2677 11.6957 15.6525 12.6249 15.6529 13.5938C15.4519 18.4392 8.54814 18.4378 8.34789 13.5938C8.34829 12.6248 8.73312 11.6957 9.4179 11.0102C10.1027 10.3247 11.0315 9.93892 12.0004 9.93753Z" fill="white"/>
<path d="M12.0002 16.4963C12.7696 16.4951 13.5071 16.1889 14.0512 15.6448C14.5952 15.1008 14.9014 14.3632 14.9027 13.5938C14.7563 9.74359 9.2434 9.74464 9.09766 13.5938C9.09889 14.3632 9.40509 15.1008 9.94915 15.6448C10.4932 16.1889 11.2307 16.4951 12.0002 16.4963Z" fill="white"/>
</svg>
