<svg width="28" height="28" viewBox="0 0 28 28" fill="none" xmlns="http://www.w3.org/2000/svg">
<g clip-path="url(#clip0_899_486)">
<path d="M17.3633 9.73438H10.6367C9.29485 9.73438 8.20312 10.826 8.20312 12.168C8.20312 13.5099 9.2948 14.6016 10.6367 14.6016H17.3633C18.7051 14.6016 19.7969 13.5099 19.7969 12.168C19.7969 10.826 18.7051 9.73438 17.3633 9.73438ZM11.6395 12.4687C11.6395 12.9217 11.2722 13.289 10.8192 13.289C10.3661 13.289 9.99884 12.9217 9.99884 12.4687V11.8671C9.99884 11.4141 10.3661 11.0468 10.8192 11.0468C11.2722 11.0468 11.6395 11.4141 11.6395 11.8671V12.4687ZM18.0011 12.4687C18.0011 12.9217 17.6338 13.289 17.1808 13.289C16.7278 13.289 16.3605 12.9217 16.3605 12.4687V11.8671C16.3605 11.4141 16.7278 11.0468 17.1808 11.0468C17.6338 11.0468 18.0011 11.4141 18.0011 11.8671V12.4687Z" fill="white"/>
<path d="M23.8984 14.1092V12.5236C23.8984 7.03981 19.4552 2.73438 14 2.73438C8.53896 2.73438 4.10156 7.04047 4.10156 12.5236V14.1092C4.10156 16.6394 6.16552 18.7031 8.69548 18.7031H19.3045C21.8345 18.7031 23.8984 16.6392 23.8984 14.1092ZM10.6367 16.2421C8.39021 16.2421 6.5625 14.4145 6.5625 12.1679C6.5625 9.92135 8.39016 8.0937 10.6367 8.0937H17.3633C19.6098 8.0937 21.4375 9.92135 21.4375 12.1679C21.4375 14.4145 19.6098 16.2421 17.3633 16.2421H10.6367Z" fill="white"/>
<path d="M18.2656 21.9844H16.4609C15.5586 21.9844 14.8203 22.7227 14.8203 23.625C14.8203 24.5273 15.5586 25.2656 16.4609 25.2656H18.2656C19.168 25.2656 19.9062 24.5273 19.9062 23.625C19.9062 22.7227 19.168 21.9844 18.2656 21.9844Z" fill="white"/>
<path d="M26.3591 19.4959C26.3591 21.319 24.7811 22.8593 22.9131 22.8593H21.4555C21.5145 23.1051 21.5466 23.3613 21.5466 23.6249C21.5466 23.9279 21.5045 24.2211 21.4272 24.4999H22.9131C25.6703 24.4999 27.9998 22.2084 27.9998 19.4959V17.8926C27.5226 18.2516 26.965 18.5091 26.3591 18.6326V19.4959Z" fill="white"/>
<path d="M25.5392 8.81669H25.4683V4.07288C25.4683 3.61984 25.101 3.25256 24.6479 3.25256C24.1949 3.25256 23.8276 3.61984 23.8276 4.07288V6.49816C24.9424 8.28381 25.5392 10.3536 25.5392 12.5235V14.1091C25.5392 15.1818 25.2669 16.1921 24.7877 17.0745H25.5392C26.8962 17.0745 28.0002 15.9705 28.0002 14.6136V11.2776C28.0002 9.92066 26.8962 8.81669 25.5392 8.81669Z" fill="white"/>
<path d="M2.46094 12.5235C2.46094 10.3526 3.05774 8.28217 4.17249 6.4963V4.07288C4.17249 3.61984 3.80521 3.25256 3.35218 3.25256C2.89915 3.25256 2.53187 3.61984 2.53187 4.07288V8.81669H2.46094C1.10398 8.81669 0 9.92066 0 11.2776V14.6136C0 15.9705 1.10398 17.0745 2.46094 17.0745H3.21245C2.73328 16.1921 2.46094 15.1819 2.46094 14.1091V12.5235Z" fill="white"/>
</g>
<defs>
<clipPath id="clip0_899_486">
<rect width="28" height="28" fill="white"/>
</clipPath>
</defs>
</svg>
