<svg width="28" height="28" viewBox="0 0 28 28" fill="none" xmlns="http://www.w3.org/2000/svg">
<g clip-path="url(#clip0_899_497)">
<path fill-rule="evenodd" clip-rule="evenodd" d="M0 9.94507V17.7595H2.10549C2.30785 17.7595 2.47231 17.9252 2.47231 18.1291C2.47231 18.9095 3.10261 19.5446 3.8778 19.5446C4.65239 19.5446 5.2833 18.9095 5.2833 18.1291C5.2833 17.9245 5.44714 17.7595 5.65011 17.7595H7.75561V15.9811C6.73404 15.8191 5.95028 14.9265 5.95028 13.8523C5.95028 12.778 6.73404 11.8854 7.75561 11.7234V9.94507H0Z" fill="white"/>
<path fill-rule="evenodd" clip-rule="evenodd" d="M3.8778 20.2838C2.82322 20.2838 1.94471 19.5113 1.77047 18.498H0V26.3124H7.75561V24.1904C7.75561 24.0912 7.79473 23.9957 7.86565 23.9267C7.93534 23.8571 8.03194 23.8202 8.12914 23.8214H8.15482C8.93001 23.8214 9.56032 23.1863 9.56032 22.4052C9.56032 21.6248 8.93001 20.9891 8.15482 20.9891L8.12914 20.9897C8.03071 20.9909 7.93534 20.9534 7.86565 20.8844C7.79473 20.8148 7.75561 20.7199 7.75561 20.6201V18.498H5.98513C5.8109 19.5107 4.93238 20.2838 3.8778 20.2838Z" fill="white"/>
<path fill-rule="evenodd" clip-rule="evenodd" d="M8.48926 20.2765C9.51021 20.4385 10.294 21.3317 10.294 22.4053C10.294 23.4796 9.51021 24.3722 8.48926 24.5342V26.3119H16.2443V18.4981H14.1388C13.9364 18.4981 13.7719 18.3324 13.7719 18.1286C13.7719 17.3475 13.1416 16.7124 12.3664 16.7124C11.5919 16.7124 10.9616 17.3475 10.9616 18.1286C10.9616 18.3324 10.7971 18.4981 10.5948 18.4981H8.48926V20.2765Z" fill="white"/>
<path fill-rule="evenodd" clip-rule="evenodd" d="M20.4812 4.72039C22.6619 6.91761 22.6619 10.4934 20.4812 12.6912C19.4248 13.7557 18.0199 14.3421 16.5257 14.3421C15.0316 14.3421 13.6273 13.7557 12.5709 12.6912C11.5139 11.6268 10.9325 10.2113 10.9325 8.70582C10.9325 7.20035 11.5139 5.78543 12.5709 4.72039C13.6273 3.65596 15.0316 3.06955 16.5257 3.06955C18.0199 3.06955 19.4248 3.65596 20.4812 4.72039ZM12.0372 13.2284C14.5125 15.7225 18.5395 15.7225 21.0149 13.2284C23.4896 10.7349 23.4896 6.67676 21.0149 4.18263C19.7769 2.93588 18.1513 2.3125 16.5257 2.3125C14.9001 2.3125 13.2746 2.93588 12.0372 4.18263C9.56182 6.67676 9.56182 10.7349 12.0372 13.2284Z" fill="white"/>
<path d="M15.8945 9.57213V9.54047C15.898 9.20453 15.9335 8.93719 16.0009 8.73844C16.0684 8.53969 16.1642 8.37876 16.2884 8.25564C16.4126 8.13252 16.5616 8.01908 16.7355 7.91531C16.8402 7.85199 16.9343 7.77724 17.0177 7.69105C17.1011 7.60311 17.1667 7.50198 17.2146 7.38765C17.2643 7.27333 17.2892 7.14669 17.2892 7.00775C17.2892 6.83538 17.2484 6.68588 17.1667 6.55924C17.0851 6.43261 16.976 6.33499 16.8393 6.2664C16.7027 6.1978 16.551 6.1635 16.3842 6.1635C16.2387 6.1635 16.0985 6.1934 15.9637 6.2532C15.8288 6.313 15.7161 6.4071 15.6256 6.5355C15.5351 6.66389 15.4828 6.83186 15.4686 7.0394H14.7979C14.812 6.7404 14.8901 6.48449 15.0321 6.27167C15.1758 6.05885 15.3648 5.89616 15.599 5.78359C15.835 5.67103 16.0967 5.61475 16.3842 5.61475C16.6965 5.61475 16.968 5.67631 17.1987 5.79942C17.4311 5.92254 17.6103 6.09139 17.7363 6.30597C17.8641 6.52055 17.928 6.76503 17.928 7.0394C17.928 7.23288 17.8978 7.40788 17.8375 7.56442C17.7789 7.72095 17.6937 7.86078 17.582 7.9839C17.4719 8.10702 17.3389 8.21607 17.1827 8.31104C17.0266 8.40778 16.9015 8.50979 16.8074 8.61708C16.7134 8.72261 16.645 8.84837 16.6025 8.99435C16.5599 9.14034 16.5368 9.32238 16.5333 9.54047V9.57213H15.8945ZM16.2352 11.134C16.1038 11.134 15.9912 11.0874 15.8971 10.9942C15.8031 10.9009 15.7561 10.7892 15.7561 10.6591C15.7561 10.5289 15.8031 10.4173 15.8971 10.324C15.9912 10.2308 16.1038 10.1842 16.2352 10.1842C16.3665 10.1842 16.4791 10.2308 16.5732 10.324C16.6672 10.4173 16.7143 10.5289 16.7143 10.6591C16.7143 10.7453 16.6921 10.8244 16.6477 10.8965C16.6051 10.9686 16.5475 11.0267 16.4747 11.0707C16.4037 11.1129 16.3239 11.134 16.2352 11.134Z" fill="#F9FAFF"/>
<path fill-rule="evenodd" clip-rule="evenodd" d="M24.223 14.7566L22.5308 16.4616L25.958 19.9161C26.1854 20.1428 26.485 20.2672 26.8041 20.2672C27.1263 20.2672 27.4259 20.1422 27.6502 19.9161C27.8776 19.69 27.9999 19.387 27.9999 19.0636C27.9999 18.7402 27.8776 18.4377 27.6502 18.211L24.223 14.7566Z" fill="white"/>
<path fill-rule="evenodd" clip-rule="evenodd" d="M21.4282 15.7762L23.5358 13.6527L23.9088 14.0286L21.8012 16.1521L21.4282 15.7762Z" fill="white"/>
<path fill-rule="evenodd" clip-rule="evenodd" d="M21.3273 14.8323L22.6063 13.5437L22.1319 13.0663C21.9497 13.3047 21.7498 13.5332 21.5333 13.7519C21.3169 13.9699 21.0895 14.1707 20.8535 14.3549L21.3273 14.8323Z" fill="white"/>
</g>
<defs>
<clipPath id="clip0_899_497">
<rect width="28" height="24" fill="white" transform="translate(0 2.3125)"/>
</clipPath>
</defs>
</svg>
